<svg width="955" height="454" viewBox="0 0 955 454" fill="none" xmlns="http://www.w3.org/2000/svg">
<path d="M519.732 26.141C518.55 25.8438 518.041 25.3812 517.552 24.1608C516.752 22.2195 515.472 20.5129 513.833 19.2006C512.193 17.8882 510.248 17.0129 508.178 16.6566C506.108 16.3003 503.982 16.4746 501.998 17.1632C500.014 17.8518 498.237 19.0322 496.833 20.594C495.168 22.426 494.107 24.7247 493.791 27.1795C493.639 28.3609 494.215 29.2322 495.294 29.4514C496.311 29.6576 497.138 29.0929 497.454 27.9783C497.506 27.7925 497.543 27.6272 497.58 27.4581C497.599 27.3727 497.617 27.2853 497.638 27.1999C498.619 23.0833 501.897 20.3265 505.795 20.3265H505.821C510.385 20.3395 513.564 22.8753 514.543 27.2816C514.774 28.3182 515.318 29.6966 517.388 29.5758C517.963 29.537 518.539 29.6363 519.068 29.8654C519.597 30.0945 520.064 30.4468 520.428 30.8929C521.534 32.1617 521.748 33.6794 521.051 35.2696C520.391 36.7724 519.133 37.5359 517.307 37.5359H511.253C501.386 37.5359 491.519 37.5359 481.653 37.5359C481.042 37.5147 480.43 37.5652 479.83 37.6864C479.402 37.7714 479.02 38.0084 478.753 38.3536C478.486 38.6989 478.353 39.129 478.379 39.5645C478.435 40.5565 479.106 41.2364 480.128 41.3256C480.531 41.3627 480.925 41.3627 481.304 41.3609H499.176H499.893H504.585C506.36 41.3609 508.161 41.3609 509.974 41.3609C512.446 41.3609 514.934 41.3609 517.398 41.3367C521.486 41.307 524.726 38.409 525.282 34.2906C525.756 30.7629 523.216 27.0271 519.732 26.141Z" fill="#F1EFEE" fill-opacity="0.5"/>
<path d="M514.102 42.0781H498.877V42.1153H485.339C484.922 42.1153 484.491 42.1153 484.056 42.1506C483.073 42.2323 482.442 42.8435 482.365 43.7853C482.289 44.7272 482.756 45.4089 483.648 45.7173C484.35 45.9588 485.058 45.9551 485.692 45.9514H513.215C513.319 45.9514 513.425 45.9514 513.531 45.9514C513.892 45.9514 514.234 45.9514 514.564 45.9737C515.049 46.0167 515.502 46.2309 515.842 46.5778C516.183 46.9247 516.389 47.3817 516.423 47.8666C516.471 48.8159 515.62 49.793 514.6 49.9565C514.117 50.0302 513.624 49.9251 513.213 49.661C512.803 49.3969 512.503 48.992 512.37 48.5224C512.333 48.3942 512.303 48.2623 512.271 48.1323C512.207 47.814 512.111 47.5029 511.985 47.2034C511.836 46.8293 511.563 46.5177 511.212 46.3212C510.86 46.1246 510.451 46.0551 510.055 46.1241C509.239 46.2542 508.676 46.8486 508.549 47.7143C508.435 48.5237 508.541 49.349 508.856 50.1032C509.28 51.2029 510.029 52.1474 511.003 52.8111C511.978 53.4748 513.131 53.8262 514.31 53.8186C514.844 53.8177 515.376 53.7503 515.893 53.6179C518.528 52.9529 520.552 50.0884 520.223 47.4876C519.799 44.1587 517.454 42.08 514.102 42.0781Z" fill="#F1EFEE" fill-opacity="0.5"/>
<path d="M488.067 36.2459H488.294C490.338 36.2459 492.408 36.2459 494.413 36.2459H496.752C497.633 36.2459 498.514 36.2459 499.396 36.2459C500.264 36.2459 501.147 36.2459 502.033 36.2459C503.137 36.2459 504.246 36.2459 505.346 36.2255C507.47 36.1958 509.299 35.1964 510.364 33.4836C511.428 31.7708 511.506 29.6327 510.596 27.7248C509.538 25.5105 506.853 24.1061 504.482 24.5278C501.78 25.0312 499.703 27.1805 499.543 29.6754C499.497 30.3999 499.4 31.9046 501.017 32.1869C502.254 32.4006 503.029 31.73 503.325 30.1918L503.349 30.0711C503.368 29.9369 503.399 29.8046 503.44 29.6754C503.602 29.2134 503.924 28.8248 504.348 28.5804C504.773 28.3359 505.27 28.2518 505.751 28.3434C506.236 28.4438 506.669 28.7137 506.972 29.1047C507.275 29.4956 507.429 29.9819 507.405 30.476C507.401 30.9468 507.225 31.3998 506.91 31.75C506.595 32.1002 506.163 32.3236 505.696 32.3783C505.264 32.4256 504.829 32.443 504.395 32.4303H504.139C498.984 32.4303 493.829 32.4303 488.673 32.4303H488.364C487.541 32.4303 485.657 32.4433 485.64 34.4013C485.625 34.6431 485.66 34.8855 485.742 35.1133C485.825 35.3412 485.953 35.5496 486.12 35.7258C486.658 36.2608 487.441 36.2515 488.067 36.2459Z" fill="#F1EFEE" fill-opacity="0.5"/>
<path d="M526.889 55.0041C528.964 54.4821 529.858 53.6697 530.717 51.5263C532.122 48.1171 534.369 45.12 537.248 42.8152C540.128 40.5104 543.544 38.9732 547.179 38.3475C550.814 37.7217 554.549 38.0278 558.033 39.2372C561.517 40.4465 564.638 42.5195 567.103 45.2624C570.027 48.4798 571.891 52.5168 572.445 56.8278C572.713 58.9027 571.701 60.4328 569.805 60.8177C568.02 61.1799 566.568 60.1881 566.013 58.2306C565.922 57.9044 565.857 57.614 565.791 57.3171C565.759 57.1671 565.726 57.0137 565.69 56.8636C563.967 49.6341 558.211 44.7926 551.364 44.7926H551.318C543.303 44.8154 537.72 49.2687 536 57.0072C535.595 58.8276 534.639 61.2484 531.004 61.0363C529.994 60.9681 528.982 61.1424 528.053 61.5448C527.125 61.9472 526.306 62.566 525.665 63.3494C523.723 65.5776 523.348 68.243 524.572 71.0357C525.73 73.675 527.939 75.0159 531.147 75.0159H541.779C559.108 75.0159 576.435 75.0159 593.762 75.0159C594.836 74.9786 595.91 75.0673 596.963 75.2801C597.715 75.4293 598.387 75.8456 598.856 76.4519C599.324 77.0582 599.557 77.8136 599.512 78.5785C599.414 80.3206 598.236 81.5147 596.441 81.6713C595.733 81.7365 595.041 81.7365 594.375 81.7332H562.988H561.729H553.488C550.372 81.7332 547.21 81.7332 544.025 81.7332C539.684 81.7332 535.315 81.7332 530.987 81.6908C523.808 81.6386 518.117 76.5492 517.141 69.3164C516.309 63.121 520.77 56.5602 526.889 55.0041Z" fill="#F1EFEE" fill-opacity="0.7"/>
<path d="M536.781 83H563.518V83.0653H587.295C588.026 83.0653 588.783 83.0653 589.546 83.1272C591.273 83.2708 592.382 84.3441 592.516 85.9982C592.65 87.6522 591.831 88.8496 590.264 89.3911C589.031 89.8153 587.787 89.8087 586.675 89.8022H538.337C538.155 89.8022 537.969 89.8022 537.783 89.8022C537.149 89.8022 536.549 89.8022 535.968 89.8414C535.118 89.9169 534.322 90.2931 533.724 90.9024C533.126 91.5117 532.764 92.3142 532.705 93.1658C532.62 94.8329 534.115 96.5489 535.906 96.836C536.754 96.9655 537.62 96.7809 538.341 96.3171C539.062 95.8533 539.589 95.1422 539.822 94.3174C539.887 94.0923 539.94 93.8607 539.995 93.6323C540.109 93.0734 540.277 92.527 540.498 92.0011C540.759 91.344 541.239 90.7969 541.856 90.4517C542.474 90.1065 543.191 89.9843 543.888 90.1056C545.321 90.334 546.31 91.378 546.532 92.8983C546.733 94.3197 546.547 95.7692 545.993 97.0938C545.248 99.025 543.933 100.684 542.222 101.849C540.511 103.015 538.486 103.632 536.415 103.619C535.477 103.617 534.543 103.499 533.635 103.266C529.007 102.098 525.453 97.0676 526.031 92.5002C526.775 86.6539 530.894 83.0033 536.781 83Z" fill="#F1EFEE" fill-opacity="0.7"/>
<path d="M582.502 72.7419H582.104C578.515 72.7419 574.879 72.7419 571.358 72.7419H567.249C565.703 72.7419 564.155 72.7419 562.606 72.7419C561.082 72.7419 559.531 72.7419 557.975 72.7419C556.036 72.7419 554.088 72.7419 552.156 72.706C548.426 72.6538 545.215 70.8986 543.345 67.8906C541.475 64.8827 541.338 61.1276 542.937 57.7771C544.794 53.8882 549.51 51.4218 553.674 52.1624C558.419 53.0465 562.067 56.8212 562.348 61.2026C562.429 62.475 562.599 65.1176 559.76 65.6134C557.587 65.9886 556.226 64.8109 555.707 62.1096L555.664 61.8975C555.63 61.662 555.576 61.4296 555.504 61.2026C555.22 60.3913 554.654 59.7088 553.909 59.2795C553.164 58.8502 552.29 58.7026 551.445 58.8635C550.594 59.0396 549.834 59.5137 549.301 60.2003C548.769 60.8869 548.499 61.741 548.54 62.6087C548.548 63.4355 548.858 64.231 549.41 64.846C549.963 65.4611 550.721 65.8534 551.543 65.9495C552.301 66.0326 553.064 66.0632 553.827 66.0408H554.277C563.33 66.0408 572.384 66.0408 581.439 66.0408H581.98C583.426 66.0408 586.735 66.0637 586.764 69.5023C586.791 69.927 586.73 70.3526 586.585 70.7528C586.44 71.1529 586.215 71.519 585.923 71.8284C584.976 72.768 583.602 72.7517 582.502 72.7419Z" fill="#F1EFEE" fill-opacity="0.7"/>
<path d="M118.48 32.1837C120.556 31.6618 121.45 30.8494 122.308 28.706C123.714 25.2968 125.961 22.2997 128.84 19.9949C131.719 17.6901 135.136 16.1529 138.771 15.5272C142.406 14.9014 146.14 15.2075 149.625 16.4169C153.109 17.6262 156.23 19.6992 158.695 22.4421C161.618 25.6595 163.483 29.6964 164.037 34.0074C164.305 36.0824 163.293 37.6124 161.397 37.9974C159.612 38.3595 158.16 37.3678 157.605 35.4103C157.514 35.0841 157.448 34.7937 157.383 34.4968C157.351 34.3467 157.318 34.1934 157.282 34.0433C155.559 26.8138 149.802 21.9723 142.956 21.9723H142.91C134.895 21.9951 129.312 26.4484 127.592 34.1869C127.187 36.0073 126.231 38.4281 122.596 38.216C121.586 38.1478 120.574 38.3221 119.645 38.7245C118.716 39.1269 117.897 39.7457 117.257 40.5291C115.315 42.7573 114.94 45.4227 116.163 48.2154C117.322 50.8547 119.531 52.1956 122.739 52.1956H133.371C150.7 52.1956 168.027 52.1956 185.354 52.1956C186.427 52.1583 187.502 52.247 188.555 52.4598C189.307 52.609 189.979 53.0253 190.448 53.6316C190.916 54.2379 191.149 54.9933 191.104 55.7582C191.006 57.5003 189.828 58.6943 188.033 58.8509C187.325 58.9162 186.633 58.9162 185.967 58.9129H154.58H153.32H145.08C141.964 58.9129 138.801 58.9129 135.616 58.9129C131.276 58.9129 126.906 58.9129 122.579 58.8705C115.4 58.8183 109.708 53.7289 108.733 46.4961C107.9 40.3007 112.362 33.7399 118.48 32.1837Z" fill="#F1EFEE" fill-opacity="0.7"/>
<path d="M128.373 60.1797H155.109V60.2449H178.886C179.617 60.2449 180.375 60.2449 181.138 60.3069C182.865 60.4505 183.974 61.5238 184.108 63.1779C184.242 64.8319 183.423 66.0293 181.856 66.5708C180.623 66.9949 179.379 66.9884 178.266 66.9819H129.929C129.746 66.9819 129.56 66.9819 129.374 66.9819C128.741 66.9819 128.141 66.9819 127.56 67.021C126.709 67.0966 125.914 67.4727 125.315 68.082C124.717 68.6913 124.356 69.4939 124.297 70.3455C124.212 72.0126 125.706 73.7286 127.498 74.0157C128.346 74.1451 129.211 73.9606 129.932 73.4968C130.654 73.033 131.18 72.3219 131.414 71.4971C131.479 71.272 131.531 71.0404 131.587 70.812C131.701 70.2531 131.869 69.7067 132.09 69.1808C132.351 68.5237 132.831 67.9766 133.448 67.6314C134.066 67.2862 134.783 67.164 135.48 67.2853C136.913 67.5137 137.902 68.5576 138.124 70.0779C138.325 71.4994 138.139 72.9489 137.585 74.2734C136.84 76.2047 135.525 77.8634 133.814 79.029C132.103 80.1946 130.077 80.8117 128.007 80.7983C127.069 80.7967 126.135 80.6784 125.227 80.446C120.599 79.278 117.045 74.2473 117.623 69.6799C118.367 63.8336 122.485 60.1829 128.373 60.1797Z" fill="#F1EFEE" fill-opacity="0.7"/>
<path d="M174.094 49.9216H173.696C170.106 49.9216 166.471 49.9216 162.95 49.9216H158.841C157.294 49.9216 155.746 49.9216 154.197 49.9216C152.673 49.9216 151.123 49.9216 149.567 49.9216C147.628 49.9216 145.68 49.9216 143.748 49.8857C140.018 49.8335 136.807 48.0783 134.937 45.0703C133.067 42.0623 132.93 38.3073 134.529 34.9568C136.386 31.0679 141.101 28.6015 145.266 29.3421C150.01 30.2262 153.659 34.0009 153.94 38.3823C154.021 39.6547 154.191 42.2972 151.352 42.7931C149.178 43.1683 147.817 41.9906 147.299 39.2893L147.256 39.0772C147.222 38.8416 147.168 38.6093 147.096 38.3823C146.812 37.5709 146.246 36.8885 145.501 36.4592C144.756 36.0299 143.881 35.8823 143.037 36.0431C142.186 36.2193 141.426 36.6934 140.893 37.38C140.361 38.0666 140.091 38.9206 140.132 39.7884C140.14 40.6152 140.449 41.4107 141.002 42.0257C141.555 42.6408 142.313 43.0331 143.135 43.1292C143.893 43.2123 144.656 43.2429 145.419 43.2205H145.869C154.922 43.2205 163.976 43.2205 173.03 43.2205H173.572C175.018 43.2205 178.327 43.2434 178.356 46.682C178.383 47.1067 178.322 47.5323 178.177 47.9324C178.032 48.3326 177.807 48.6987 177.514 49.0081C176.568 49.9477 175.194 49.9314 174.094 49.9216Z" fill="#F1EFEE" fill-opacity="0.7"/>
<path d="M285.676 13.4279C278.763 9.19287 276.201 9.2943 271.61 13.9858C271.082 12.1708 270.386 10.4091 269.53 8.72371C268.643 7.04434 267.414 5.56953 265.922 4.3945C264.43 3.21948 262.708 2.37036 260.867 1.90197C257.542 0.993745 254.148 0.357653 250.72 0C253.029 6.87965 257.405 12.8796 263.251 17.1811C259.028 17.4528 254.791 17.4528 250.568 17.1811C246.623 16.8515 246.623 16.8261 247.739 20.6301C248.716 24.0156 248.716 23.9902 252.077 24.2692C255.882 24.5862 259.586 24.5101 263.695 24.5481L258.051 31.9278C263.581 33.1958 273.867 29.9244 276.429 22.7856C277.687 19.6344 279.844 16.9225 282.632 14.9875C283.606 14.3917 284.623 13.8704 285.676 13.4279Z" fill="#5E0B1A"/>
<path d="M257.772 57.8029C250.86 53.5679 248.298 53.6693 243.706 58.3608C243.179 56.5458 242.482 54.7841 241.626 53.0987C240.74 51.4193 239.511 49.9445 238.018 48.7695C236.526 47.5945 234.804 46.7454 232.963 46.277C229.638 45.3687 226.245 44.7327 222.817 44.375C225.126 51.2547 229.502 57.2546 235.348 61.5562C231.125 61.8278 226.888 61.8278 222.665 61.5562C218.72 61.2265 218.72 61.2011 219.836 65.0051C220.813 68.3906 220.813 68.3652 224.174 68.6442C227.979 68.9612 231.682 68.8851 235.792 68.9231L230.148 76.3028C235.678 77.5708 245.964 74.2994 248.526 67.1606C249.784 64.0094 251.941 61.2975 254.728 59.3625C255.702 58.7667 256.72 58.2454 257.772 57.8029Z" fill="#5E0B1A"/>
<path d="M-11.2177 390.932C5.27704 381.877 22.5024 374.222 40.2773 368.045C61.3318 360.513 82.1328 352.627 101.297 340.67C119.955 328.991 139.5 319.215 161.709 316.147C163.269 315.931 163.573 315.018 163.624 313.522C164.043 302.034 164.461 290.559 165.07 279.084C166.681 248.88 166.605 218.639 167.607 188.436C167.607 186.813 167.201 186.483 165.742 186.534C163.206 186.623 161.544 188.195 159.794 189.64C157.757 191.502 155.162 192.639 152.412 192.874C137.623 193.719 122.826 194.598 108.02 195.511C106.414 195.525 104.814 195.32 103.263 194.902C102.865 194.877 102.484 194.726 102.176 194.471C101.868 194.216 101.65 193.87 101.551 193.482C101.323 192.481 102.071 191.986 102.82 191.631C104.343 190.856 105.971 190.305 107.652 189.995C125.168 186.8 142.494 182.679 159.933 179.091C163.079 178.444 165.159 175.883 168.343 175.452C170.435 175.16 173.416 176.644 174.38 174.78C175.344 172.916 174.469 170.291 174.38 167.996C174.291 165.701 174.228 163.165 174.101 160.756C174.056 159.265 174.387 157.786 175.065 156.457C179.593 146.757 183.943 136.994 188.674 127.37C191.515 121.537 193.748 115.349 197.958 110.239C199.037 108.908 200.609 107.868 202.131 108.807C203.653 109.745 202.334 111.342 201.916 112.458C193.798 133.621 188.23 155.658 179.935 176.758C177.969 181.766 179.415 184.581 184.59 186.065C189.067 187.333 193.215 188.994 196.005 193.039C206 207.409 216.02 221.779 226.065 236.15C227.042 237.545 228.31 239.244 226.534 240.74C224.759 242.236 222.856 241.678 221.182 240.334C220.468 239.754 219.81 239.109 219.216 238.407C207.936 225.38 196.665 212.354 185.402 199.328C181.901 195.27 177.881 191.618 175.8 186.432C175.648 188.778 175.94 190.934 175.965 193.089C176.206 232.295 177.322 271.476 178.033 310.682C178.033 313.218 178.692 313.662 181.102 313.471C191.059 312.66 201.041 312.203 210.997 311.392C220.573 310.593 230.111 309.541 239.357 306.65C251.787 302.77 263.126 296.214 275.493 292.207C275.871 292.116 276.206 291.894 276.437 291.581C276.669 291.269 276.784 290.884 276.761 290.496C276.951 287.516 277.294 284.549 277.408 281.62C277.949 268.095 278.461 254.544 278.943 240.968C279.919 213.516 280.731 186.052 280.883 158.549C280.883 156.609 281.365 154.048 279.615 153.135C277.864 152.222 275.81 153.947 274.541 155.303C269.367 160.642 262.72 161.364 255.884 161.643C240.055 162.353 224.175 163.013 208.372 163.735C206.38 163.837 204.186 163.533 203.793 161.605C203.324 159.361 205.759 158.803 207.446 158.347C211.733 157.18 216.045 156.115 220.396 155.215C235.02 152.171 249.327 147.683 264.166 145.654C269.24 144.969 274.009 144.259 278.118 140.734C279.729 139.34 282.101 139.124 284.295 139.01C290.117 138.744 290.244 138.718 288.671 132.86C286.819 125.937 286.388 119.318 289.939 112.572C296.281 100.577 302.267 88.354 308.444 76.2448C311.4 70.4754 314.456 64.7442 317.475 59.0129C318.54 56.9841 320.43 55.5386 322.472 56.3501C324.742 57.2377 323.55 59.4694 322.992 61.1685C316.651 80.2643 310.309 99.36 303.967 118.494C300.999 127.56 294.607 135.827 296.534 146.389C296.928 148.558 297.181 150.105 299.376 150.789C300.898 151.271 302.382 151.88 303.929 152.248C309.896 153.662 315.105 157.287 318.502 162.391C329.968 178.824 341.447 195.245 352.938 211.652C354.22 213.295 354.84 215.358 354.676 217.434C354.384 219.97 353.052 220.592 350.972 219.096C349.379 217.976 347.901 216.702 346.558 215.292C329.816 197.134 313.264 178.799 297.511 159.767C295.773 157.649 294.15 155.43 292.438 153.262L291.448 153.503C291.448 197.641 293.389 241.742 294.112 286.159C310.357 281.353 327.05 278.217 343.933 276.801C346.128 276.118 348.42 275.797 350.718 275.85C366.801 275.698 382.579 278.069 398.218 281.531C403.05 282.609 403.57 282.216 403.811 277.22C403.811 276.649 403.811 276.079 403.811 275.495C403.583 268.369 404.826 261.281 404.598 254.143C404.489 251.922 405.031 249.719 406.158 247.803C406.488 236.323 406.822 224.839 407.16 213.352C408.048 184.759 408.923 156.166 409.113 127.547C409.178 126.516 409.114 125.481 408.923 124.466C408.263 121.765 406.754 121.131 404.42 122.628C402.234 123.881 400.185 125.36 398.307 127.04C394.337 130.996 389.53 131.833 384.203 132.112C370.555 132.924 356.882 133.164 343.235 133.875C334.902 134.293 326.518 135.586 318.122 134.318C315.978 134.001 312.884 134.001 312.769 131.63C312.655 129.259 315.89 129.094 317.843 128.663C328.776 126.305 339.734 124.022 350.706 121.892C363.808 119.356 376.593 115.235 389.898 113.878C395.833 113.282 401.313 112.268 405.955 108.084C407.407 106.972 409.2 106.398 411.028 106.461C412.512 106.461 414.009 106.258 415.493 106.22C419.996 106.118 420.122 105.979 419.032 101.807C418.537 99.9306 417.979 98.0033 417.535 96.1901C416.267 90.4842 415.125 84.9685 417.878 79.1484C426.667 60.6105 435.634 42.1868 445.096 23.9659C447.622 18.8421 450.634 13.972 454.089 9.42214C455.002 8.28095 456.029 7.27925 457.577 7.95128C459.124 8.62331 458.972 10.297 458.667 11.565C458.185 13.5431 457.323 15.369 456.664 17.3597C446.682 46.5233 437.638 76.0038 426.363 104.698C425.614 106.626 425.006 108.502 426.718 110.48C427.117 110.989 427.351 111.608 427.39 112.253C427.428 112.899 427.269 113.541 426.933 114.094C424.511 117.315 427.136 117.898 429.166 118.671C430.54 119.225 431.962 119.649 433.415 119.939C441.38 121.55 447.164 126.026 451.704 132.721C461.191 146.745 471.009 160.553 480.623 174.488C484.58 180.232 488.36 186.09 492.19 191.923C493.306 193.622 494.156 195.727 492.38 197.21C490.605 198.694 489.184 197.033 487.827 196.031C485.171 194.014 482.735 191.723 480.559 189.197C468.738 176.035 456.828 162.962 445.045 149.724C437.08 140.734 428.481 132.239 422.215 121.829C420.566 122.868 420.604 124.58 420.642 126.343C421.162 152.425 421.441 178.507 422.266 204.59C422.659 216.991 422.266 229.417 423.534 241.78C423.926 242.28 424.211 242.856 424.373 243.471C424.534 244.086 424.568 244.727 424.473 245.355C424.27 257.186 425.741 268.978 425.196 280.859C425.196 282 425.196 283.154 425.297 284.308C425.449 287.402 426.845 289.152 429.965 290.217C452.25 297.825 473.089 308.361 493.243 320.534C502.971 326.405 512.382 332.897 523.112 336.942C535.852 341.573 548.875 345.385 562.101 348.354C586.068 353.979 609.238 362.575 631.074 373.941C644.561 380.991 657.697 388.599 670.482 396.765L670.596 396.334C672.295 397.602 674.261 399.085 676.456 400.632C678.65 402.179 681.136 403.726 683.457 405.311C685.588 406.668 687.845 408.05 690.281 409.458C696.343 412.945 714.658 423.494 734.571 427.488C750.844 430.76 752.43 426.487 787.056 424.217C802.948 423.164 796.264 424.483 854.278 424.217C873.709 424.115 881.357 423.938 893.597 425.853C915.374 429.238 927.842 435.477 931.318 437.328C939.817 441.7 947.67 447.226 954.655 453.748H654.488L654.577 453.431C434.687 453.431 214.789 453.431 -5.11682 453.431C-6.48663 453.431 -7.86914 453.431 -9.25165 453.431C-10.6356 453.511 -11.9974 453.057 -13.0567 452.163V391.465C-12.3337 391.757 -11.8265 391.262 -11.2177 390.932Z" fill="#171A17" fill-opacity="0.5"/>
</svg>
