<svg width="593" height="569" viewBox="0 0 593 569" fill="none" xmlns="http://www.w3.org/2000/svg">
<path d="M539.886 327.872C527.347 328.979 514.856 330.559 502.341 331.713C456.878 335.909 411.391 340.033 364.089 344.346C355.652 346.491 350.278 341.4 347.002 332.255C344.066 323.398 340.562 314.738 336.514 306.33C332.578 298.647 333.309 293.485 339.248 286.651C360.318 262.399 380.351 237.157 401.021 212.599C428.25 180.106 455.684 147.731 483.322 115.473C492.749 104.373 497.463 92.5648 493.008 78.1881C488.978 65.2962 479.339 58.2257 466.753 55.6332C450.609 52.2865 439.06 60.5118 429.279 72.3432C410.872 94.6389 391.994 116.557 373.941 139.136C367.247 147.503 363.241 144.934 357.726 138.405C350.231 129.567 356.594 123.487 361.567 117.665C376.698 99.9418 393.078 83.2318 407.455 64.9427C420.017 48.9162 416.882 29.7551 402.223 17.5938C388.695 6.4695 369.062 8.04859 355.722 22.0246C343.467 34.8223 331.282 47.7849 320.205 61.5724C314.006 69.2557 310.612 70.1513 304.98 61.5724C295.552 47.1014 285.253 33.2903 275.637 18.9372C263.381 0.671688 242.641 -5.26755 226.025 5.03184C209.41 15.3312 205.851 36.9199 218.413 55.4446C249.837 101.733 281.568 147.786 313.606 193.603C319.026 201.357 318.319 206.801 312.663 213.306C303.518 223.888 294.492 234.517 285.795 245.524C281.081 251.581 275.425 252.359 268.401 250.662C240.284 243.897 212.097 237.345 183.932 230.817C138.516 220.282 93.0997 209.606 47.6127 199.424C27.391 194.899 9.64404 206.494 5.18961 225.986C1.53651 241.941 13.7214 260.16 31.4919 265.274C35.0979 266.287 38.7275 267.112 42.3806 267.961C73.2316 275.22 104.083 282.432 134.91 289.832C138.139 290.61 142.9 289.832 143.159 295.394C143.63 306.212 131.728 315.781 121.429 312.811C94.9852 305.152 68.6357 297.138 42.027 290.092C23.6672 285.213 6.13235 296.361 1.18299 314.697C-1.12984 323.1 -0.0238558 332.077 4.25944 339.668C8.54274 347.259 15.6554 352.847 24.0443 355.211C44.1089 361.386 64.2442 367.333 84.4501 373.052C101.254 377.766 100.948 377.365 93.5711 393.015C83.9788 413.755 69.5078 432.162 63.2386 454.293C56.0266 479.817 78.6523 501.783 104.46 495.726C119.661 492.167 126.025 480.312 132.247 468.245C153.883 426.419 175.385 384.507 196.754 342.508C214.736 307.155 214.665 307.155 252.893 317.054C255.615 317.72 258.279 318.603 260.86 319.693C263.889 320.889 266.636 322.704 268.924 325.021C271.213 327.338 272.994 330.107 274.152 333.151C291.781 377.35 309.599 421.47 327.605 465.511C338.824 493.18 349.665 521.038 361.709 548.354C365.283 556.329 371.762 562.643 379.827 566.01C387.893 569.377 396.938 569.544 405.122 566.478C422.562 559.596 430.717 541.519 424.589 522.735C422.421 516.089 419.876 509.584 417.094 503.126C406.324 476.777 395.553 450.427 384.594 424.172C381.483 416.725 381.765 412.624 391.169 410.196C402.6 407.25 410.024 409.536 415.02 420.354C425.343 442.791 435.973 465.134 446.272 487.477C455.959 508.523 476.228 516.725 495.766 507.18C513.183 498.648 518.486 477.248 508.516 457.498C501.163 442.933 494.635 427.943 487.187 413.425C483.322 405.86 484.571 402.301 493.268 401.641C510.92 400.203 528.62 398.6 546.155 396.927C567.697 394.9 582.969 378.332 581.201 359.1C579.434 339.868 561.262 325.939 539.886 327.872Z" fill="#0D3B66" fill-opacity="0.1"/>
<path d="M239.389 338.527C232.341 338.516 225.469 340.732 219.755 344.859C214.041 348.986 209.777 354.812 207.572 361.507C189.636 415.95 172.219 470.558 154.708 525.071C153.282 529.524 153.282 534.311 154.708 538.764C159.421 555.545 170.499 564.973 186.337 565.538C203.895 566.175 215.632 558.868 221.383 541.498C238.022 491.086 254.096 440.508 270.216 389.93C271.43 385.682 272.367 381.36 273.021 376.991C273.021 368.836 272.88 364.264 271.041 359.786C265.668 346.658 254.308 338.881 239.389 338.527Z" fill="#0D3B66" fill-opacity="0.1"/>
<path d="M150.655 131.647C174.012 161.201 197.297 190.851 221.125 220.028C234.088 235.937 254.851 237.681 269.605 225.19C283.746 213.217 285.561 193.184 273.777 177.747C269.063 171.454 263.996 165.326 259.141 159.08C232.014 124.223 204.933 89.2472 177.688 54.5545C169.581 44.2551 160.837 34.1207 145.942 35.5113C131.542 34.7335 121.313 40.6492 114.808 53.0226C108.02 65.9852 109.694 78.1936 118.367 89.6007C129.067 103.671 139.72 117.765 150.655 131.647Z" fill="#0D3B66" fill-opacity="0.1"/>
<path d="M592.751 251.959C591.196 234.519 576.371 223.159 553.486 223.677C502.767 230.748 449.785 237.677 396.709 245.454C374.932 248.66 363.289 264.309 365.953 284.366C368.31 301.995 386.198 315.335 406.231 312.648C458.396 305.86 510.498 298.656 562.537 291.036C584.667 287.854 594.755 274.09 592.751 251.959Z" fill="#0D3B66" fill-opacity="0.1"/>
</svg>
