<svg width="635" height="471" viewBox="0 0 635 471" fill="none" xmlns="http://www.w3.org/2000/svg">
<mask id="mask0_1019_996" style="mask-type:luminance" maskUnits="userSpaceOnUse" x="0" y="0" width="635" height="471">
<path d="M635 0H0V471H635V0Z" fill="white"/>
</mask>
<g mask="url(#mask0_1019_996)">
<path d="M381.059 335.077C337.536 353.226 277.699 339.362 245.086 332.492C212.472 325.622 210.435 346.232 210.435 346.232C210.435 346.232 264.164 365.053 302.242 369.76C340.321 374.469 381.059 335.077 381.059 335.077Z" fill="#374A9E"/>
<path d="M486.246 212.689H388.38C388.38 212.689 379.991 207.452 388.38 199.768C396.768 192.085 401.33 208.19 410.308 197.7C419.285 187.209 440.036 182.332 443.862 196.813C447.689 211.293 455.488 203.167 458.285 201.098C461.08 199.03 467.998 199.62 471.53 204.645C475.062 209.668 474.179 207.452 479.477 206.565C484.773 205.678 488.012 210.687 486.246 212.689Z" fill="#FDFDFD"/>
<path d="M230.351 227.951H132.485C132.485 227.951 124.096 222.713 132.485 215.03C140.874 207.345 145.436 223.452 154.413 212.961C163.391 202.47 184.141 197.594 187.967 212.074C191.794 226.555 199.593 218.428 202.39 216.36C205.186 214.292 212.104 214.882 215.636 219.906C219.168 224.93 218.285 222.714 223.583 221.827C228.881 220.94 232.117 225.948 230.351 227.951Z" fill="#FDFDFD"/>
<path d="M172.064 284.258C186.523 227.364 221.867 149.201 240.471 160.213C259.075 171.225 291.238 203.342 291.238 203.342C291.238 203.342 345.583 122.589 376.962 146.448C408.341 170.306 448.655 284.258 448.655 284.258H172.064Z" fill="#95AC57"/>
<path d="M414.992 203.699C433.74 242.1 448.656 284.261 448.656 284.261" stroke="#1D1D1B" stroke-width="1.292" stroke-miterlimit="10" stroke-linecap="round" stroke-linejoin="round"/>
<path d="M240.471 160.213C259.075 171.225 291.238 203.342 291.238 203.342C291.238 203.342 345.583 122.589 376.962 146.448" stroke="#1D1D1B" stroke-width="1.292" stroke-miterlimit="10" stroke-linecap="round" stroke-linejoin="round"/>
<path d="M172.064 284.261C178.861 257.518 190.27 226.077 202.388 201.406" stroke="#1D1D1B" stroke-width="1.292" stroke-miterlimit="10" stroke-linecap="round" stroke-linejoin="round"/>
<path d="M240.471 160.215C240.471 160.215 308.945 202.598 337.781 274.335" stroke="#1D1D1B" stroke-width="1.292" stroke-miterlimit="10" stroke-linecap="round" stroke-linejoin="round"/>
<path d="M234.245 227.992C234.245 227.992 223.537 232.311 223.386 224.552C223.386 224.552 207.603 227.225 209.399 217.49C209.399 217.49 199.693 213.785 206.363 203.663C206.363 203.663 201.303 192.249 214.414 191.603C214.414 191.603 218.785 179.974 230.747 188.803C230.747 188.803 239.718 180.404 245.698 190.095C245.698 190.095 257.156 188.103 256.28 199.169C256.28 199.169 262.362 204.942 257.818 212.853C257.818 212.853 259.887 223.259 248.998 225.628C248.996 225.628 247.176 233.155 234.245 227.992Z" fill="#B9C152"/>
<path d="M230.746 188.803C230.746 188.803 239.717 180.404 245.698 190.095" stroke="#1D1D1B" stroke-width="1.292" stroke-miterlimit="10" stroke-linecap="round" stroke-linejoin="round"/>
<path d="M209.399 217.488C209.399 217.488 199.693 213.783 206.363 203.662C206.363 203.662 201.303 192.248 214.414 191.602" stroke="#1D1D1B" stroke-width="1.292" stroke-miterlimit="10" stroke-linecap="round" stroke-linejoin="round"/>
<path d="M235.687 254.543C235.687 254.543 236.123 238.131 233.199 220.715C233.199 220.715 219.228 218.038 216.304 208.691" stroke="#1D1D1B" stroke-width="1.292" stroke-miterlimit="10" stroke-linecap="round" stroke-linejoin="round"/>
<path d="M232.762 199.164C232.762 199.164 236.812 209.898 233.199 220.711C233.199 220.711 241.938 217.762 248.997 209.61" stroke="#1D1D1B" stroke-width="1.292" stroke-miterlimit="10" stroke-linecap="round" stroke-linejoin="round"/>
<path d="M256.28 199.164C256.28 199.164 261.978 203.177 257.818 212.848C257.818 212.848 259.887 223.255 248.998 225.624C248.998 225.624 247.177 233.15 234.247 227.988" stroke="#1D1D1B" stroke-width="1.292" stroke-miterlimit="10" stroke-linecap="round" stroke-linejoin="round"/>
<path d="M433.152 234.182C433.152 234.182 430.031 226.197 437.811 227.582C437.811 227.582 441.459 219.704 448.476 225.826C448.476 225.826 453.812 223.774 455.935 228.275C458.057 232.775 452.487 233.272 452.487 233.272C452.487 233.272 452.84 236.641 447.447 239.717C442.054 242.792 440.186 238.57 440.186 238.57C440.186 238.57 430.791 242.459 433.152 234.182Z" fill="#708536"/>
<path d="M452.487 233.27C452.487 233.27 452.84 236.638 447.447 239.714C442.054 242.789 440.187 238.567 440.187 238.567" stroke="#1D1D1B" stroke-width="1.292" stroke-miterlimit="10" stroke-linecap="round" stroke-linejoin="round"/>
<path d="M437.811 227.582C437.811 227.582 441.459 219.704 448.476 225.826C448.476 225.826 453.812 223.774 455.935 228.275" stroke="#1D1D1B" stroke-width="1.292" stroke-miterlimit="10" stroke-linecap="round" stroke-linejoin="round"/>
<path d="M437.023 233.683C437.023 233.683 441.053 238.756 449.349 230.242" stroke="#1D1D1B" stroke-width="1.292" stroke-miterlimit="10" stroke-linecap="round" stroke-linejoin="round"/>
<path d="M418.546 227.075C418.546 227.075 414.75 220.384 409.837 225.82C409.837 225.82 399.452 226.133 405.663 233.681C405.663 233.681 407.046 244.115 414.751 237.529C414.751 237.529 420.886 241.71 423.011 234.706C423.011 234.706 426.698 225.611 418.546 227.075Z" fill="#708536"/>
<path d="M409.837 225.82C409.837 225.82 399.452 226.134 405.663 233.682C405.663 233.682 407.046 244.115 414.751 237.529" stroke="#1D1D1B" stroke-width="1.292" stroke-miterlimit="10" stroke-linecap="round" stroke-linejoin="round"/>
<path d="M418.545 227.074C418.545 227.074 421.789 226.178 423.241 228.268" stroke="#1D1D1B" stroke-width="1.292" stroke-miterlimit="10" stroke-linecap="round" stroke-linejoin="round"/>
<path d="M425.491 218.279C425.491 218.279 414.783 222.597 414.632 214.838C414.632 214.838 398.85 217.511 400.645 207.775C400.645 207.775 390.939 204.07 397.61 193.948C397.61 193.948 392.549 182.534 405.661 181.888C405.661 181.888 410.031 170.259 421.993 179.088C421.993 179.088 430.964 170.69 436.945 180.381C436.945 180.381 448.402 178.389 447.526 189.454C447.526 189.454 453.608 195.228 449.064 203.138C449.064 203.138 451.133 213.545 440.244 215.913C440.242 215.914 438.422 223.442 425.491 218.279Z" fill="#708536"/>
<path d="M421.992 179.088C421.992 179.088 430.963 170.69 436.944 180.381" stroke="#1D1D1B" stroke-width="1.292" stroke-miterlimit="10" stroke-linecap="round" stroke-linejoin="round"/>
<path d="M400.645 207.777C400.645 207.777 390.939 204.072 397.61 193.951C397.61 193.951 392.549 182.537 405.661 181.891" stroke="#1D1D1B" stroke-width="1.292" stroke-miterlimit="10" stroke-linecap="round" stroke-linejoin="round"/>
<path d="M428.474 265.784C428.474 265.784 427.369 228.414 424.444 210.998C424.444 210.998 410.473 202.379 407.549 193.031" stroke="#1D1D1B" stroke-width="1.292" stroke-miterlimit="10" stroke-linecap="round" stroke-linejoin="round"/>
<path d="M424.008 189.449C424.008 189.449 428.058 200.183 424.445 210.997C424.445 210.997 435.851 207.769 441.061 193.03" stroke="#1D1D1B" stroke-width="1.292" stroke-miterlimit="10" stroke-linecap="round" stroke-linejoin="round"/>
<path d="M447.526 189.449C447.526 189.449 453.224 193.462 449.064 203.133C449.064 203.133 451.133 213.54 440.244 215.909C440.244 215.909 438.423 223.435 425.493 218.273" stroke="#1D1D1B" stroke-width="1.292" stroke-miterlimit="10" stroke-linecap="round" stroke-linejoin="round"/>
<path d="M426.991 235.782C426.991 235.782 437.081 234.875 441.063 231.59" stroke="#1D1D1B" stroke-width="1.292" stroke-miterlimit="10" stroke-linecap="round" stroke-linejoin="round"/>
<path d="M426.517 229.414C426.517 229.414 419.359 231.743 412.978 230.249" stroke="#1D1D1B" stroke-width="1.292" stroke-miterlimit="10" stroke-linecap="round" stroke-linejoin="round"/>
<path d="M157.45 303.629C157.45 303.629 136.456 258.291 175.855 241.431C215.254 224.572 242.267 263.745 268.219 257.795C294.172 251.844 291.915 205.282 349.887 210.736C349.887 210.736 396.622 213.746 399.572 247.878C402.523 282.01 476.901 226.335 470.016 287.437L431.825 316.111L267.16 328.846L157.45 303.629Z" fill="#B9C152"/>
<path d="M399.571 247.875C402.522 282.007 476.9 226.332 470.015 287.434" stroke="#1D1D1B" stroke-width="1.292" stroke-miterlimit="10" stroke-linecap="round" stroke-linejoin="round"/>
<path d="M218.608 241.887C237.088 249.002 252.839 261.321 268.217 257.795C294.17 251.844 291.913 205.282 349.885 210.736" stroke="#1D1D1B" stroke-width="1.292" stroke-miterlimit="10" stroke-linecap="round" stroke-linejoin="round"/>
<path d="M157.45 303.628C157.45 303.628 136.456 258.289 175.855 241.43" stroke="#1D1D1B" stroke-width="1.292" stroke-miterlimit="10" stroke-linecap="round" stroke-linejoin="round"/>
<path d="M248.225 206.738C248.225 206.738 247.604 226.687 243.053 239.857C243.053 239.857 244.502 240.631 248.225 239.857C248.225 239.857 244.502 253.631 237.881 259.333C237.881 259.333 257.534 260 276.773 249.348C276.773 249.348 273.301 238.559 266.843 227.449C265.891 225.811 258.407 227.53 257.327 225.913C256.247 224.295 261.571 219.341 260.365 217.809C256.835 213.323 252.775 209.353 248.225 206.738Z" fill="#708536"/>
<path d="M255.528 257.295C261.91 255.864 269.372 253.442 276.774 249.344C276.774 249.344 274.915 243.567 271.387 236.113" stroke="#1D1D1B" stroke-width="1.292" stroke-miterlimit="10" stroke-linecap="round" stroke-linejoin="round"/>
<path d="M257.328 225.913C256.248 224.295 261.572 219.341 260.366 217.809C256.837 213.323 252.777 209.353 248.226 206.738C248.226 206.738 247.992 214.264 246.757 223.123C245.981 228.687 244.81 234.777 243.055 239.857C243.055 239.857 244.503 240.632 248.226 239.857" stroke="#1D1D1B" stroke-width="1.292" stroke-miterlimit="10" stroke-linecap="round" stroke-linejoin="round"/>
<path d="M259.607 263.654C259.607 263.654 258.927 242.549 251.449 212.371" stroke="#1D1D1B" stroke-width="1.292" stroke-miterlimit="10" stroke-linecap="round" stroke-linejoin="round"/>
<path d="M377.452 177.398C377.452 177.398 380.938 197.087 387.343 209.563C387.343 209.563 386.019 210.513 382.219 210.215C382.219 210.215 387.891 223.394 395.271 228.209C395.271 228.209 375.893 231.348 355.297 223.219C355.297 223.219 357.183 212.092 361.984 200.268C362.692 198.526 370.355 199.285 371.193 197.546C372.03 195.807 366.042 191.569 367.016 189.899C369.867 185.009 373.319 180.563 377.452 177.398Z" fill="#708536"/>
<path d="M377.49 228.418C370.961 227.806 363.217 226.347 355.295 223.219C355.295 223.219 356.305 217.261 358.729 209.43" stroke="#1D1D1B" stroke-width="1.292" stroke-miterlimit="10" stroke-linecap="round" stroke-linejoin="round"/>
<path d="M371.191 197.546C372.028 195.807 366.04 191.569 367.014 189.899C369.866 185.01 373.317 180.563 377.451 177.398C377.451 177.398 378.766 184.826 381.265 193.448C382.834 198.864 384.871 204.75 387.342 209.563C387.342 209.563 386.018 210.513 382.218 210.215" stroke="#1D1D1B" stroke-width="1.292" stroke-miterlimit="10" stroke-linecap="round" stroke-linejoin="round"/>
<path d="M374.362 235.223C374.362 235.223 371.998 214.225 375.065 183.379" stroke="#1D1D1B" stroke-width="1.292" stroke-miterlimit="10" stroke-linecap="round" stroke-linejoin="round"/>
<path d="M185.404 154.117C185.404 154.117 183.616 169.754 178.718 180.93C178.718 180.93 181.988 181.217 185.404 180.93C185.404 180.93 183.087 197.236 175.852 210.288C179.25 211.987 185.851 211.446 185.851 211.446C185.851 211.446 180.751 221.123 173.766 232.117C173.766 232.117 182.738 232.299 185.932 232.117C185.932 232.117 179.025 245.855 170.455 256.375C170.455 256.375 199.838 251.896 220.958 245.785C220.958 245.785 212.363 235.267 208.69 230.786C208.69 230.786 215.546 231.251 218.606 230.497C218.606 230.497 208.7 218.36 201.674 210.287C201.674 210.287 206.491 209.797 211.186 207.818C211.186 207.818 201.822 198.865 196.12 180.716C196.12 180.716 200.499 179.391 203.022 178.138C203.022 178.138 193.064 169.776 185.404 154.117Z" fill="#708536"/>
<path d="M185.402 154.117C185.402 154.117 183.614 169.754 178.717 180.93C178.717 180.93 181.986 181.217 185.402 180.93" stroke="#1D1D1B" stroke-width="1.292" stroke-miterlimit="10" stroke-linecap="round" stroke-linejoin="round"/>
<path d="M214.667 225.702C211.139 221.431 205.889 215.127 201.675 210.286C201.675 210.286 206.492 209.795 211.187 207.817C211.187 207.817 201.823 198.864 196.121 180.714C196.121 180.714 200.5 179.39 203.023 178.137" stroke="#1D1D1B" stroke-width="1.292" stroke-miterlimit="10" stroke-linecap="round" stroke-linejoin="round"/>
<path d="M185.851 211.449C185.851 211.449 180.751 221.127 173.766 232.121C173.766 232.121 182.738 232.302 185.932 232.121C185.932 232.121 179.025 245.858 170.455 256.379C170.455 256.379 199.838 251.899 220.958 245.788C220.958 245.788 212.363 235.27 208.69 230.789" stroke="#1D1D1B" stroke-width="1.292" stroke-miterlimit="10" stroke-linecap="round" stroke-linejoin="round"/>
<path d="M203.023 262.731C203.023 262.731 194.806 197.511 189.219 170.434" stroke="#1D1D1B" stroke-width="1.292" stroke-miterlimit="10" stroke-linecap="round" stroke-linejoin="round"/>
<path d="M314.495 181.684C314.495 181.684 319.696 192.773 326.071 199.91C326.071 199.91 323.743 200.833 321.163 201.367C321.163 201.367 326.92 212.832 335.478 220.837C333.407 222.826 328.425 223.868 328.425 223.868C328.425 223.868 334.576 229.861 342.439 236.409C342.439 236.409 335.898 238.498 333.508 239.061C333.508 239.061 341.995 247.641 350.904 253.495C350.904 253.495 328.219 256.613 311.194 256.731C311.194 256.731 314.887 247.135 316.469 243.047C316.469 243.047 311.551 244.883 309.117 244.997C309.117 244.997 313.372 233.926 316.52 226.468C316.52 226.468 312.861 227.158 308.923 226.729C308.923 226.729 313.57 218.115 313.242 203.548C313.242 203.548 309.698 203.531 307.534 203.161C307.534 203.161 312.766 194.849 314.495 181.684Z" fill="#708536"/>
<path d="M314.494 181.684C314.494 181.684 319.696 192.773 326.071 199.91C326.071 199.91 323.742 200.833 321.163 201.367" stroke="#1D1D1B" stroke-width="1.292" stroke-miterlimit="10" stroke-linecap="round" stroke-linejoin="round"/>
<path d="M310.819 240.615C312.347 236.711 314.634 230.937 316.522 226.464C316.522 226.464 312.863 227.154 308.925 226.725C308.925 226.725 313.572 218.111 313.244 203.544C313.244 203.544 309.699 203.526 307.536 203.156" stroke="#1D1D1B" stroke-width="1.292" stroke-miterlimit="10" stroke-linecap="round" stroke-linejoin="round"/>
<path d="M328.428 223.867C328.428 223.867 334.579 229.86 342.442 236.408C342.442 236.408 335.9 238.497 333.51 239.061C333.51 239.061 341.997 247.64 350.907 253.494C350.907 253.494 328.222 256.612 311.196 256.731C311.196 256.731 314.889 247.135 316.471 243.046" stroke="#1D1D1B" stroke-width="1.292" stroke-miterlimit="10" stroke-linecap="round" stroke-linejoin="round"/>
<path d="M328.577 265.259C328.577 265.259 318.386 215.587 315.752 194.492" stroke="#1D1D1B" stroke-width="1.292" stroke-miterlimit="10" stroke-linecap="round" stroke-linejoin="round"/>
<path d="M168.543 275.403L169.176 267.879L173.94 271.641L177.191 267.879L182.917 270.916L184.553 266.957L192.241 273.792" stroke="#1D1D1B" stroke-width="1.292" stroke-miterlimit="10" stroke-linecap="round" stroke-linejoin="round"/>
<path d="M286.598 255.536L291.63 247.538L296.194 251.537L300.641 243.922L305.322 249.729" stroke="#1D1D1B" stroke-width="1.292" stroke-miterlimit="10" stroke-linecap="round" stroke-linejoin="round"/>
<path d="M211.813 261.015L217.467 257.305L220.417 261.015L226.006 257.305L227.299 263.659L233.074 262.737L235.709 265.732" stroke="#1D1D1B" stroke-width="1.292" stroke-miterlimit="10" stroke-linecap="round" stroke-linejoin="round"/>
<path d="M428.683 268.849L432.793 263.656L436.843 266.303L440.893 261.129L444.266 266.773L449.434 264.189L452.945 266.251" stroke="#1D1D1B" stroke-width="1.292" stroke-miterlimit="10" stroke-linecap="round" stroke-linejoin="round"/>
<path d="M254.124 274.549L261.193 268.976L266.865 271.762V267.809L274.339 273.199L278.179 267.809" stroke="#1D1D1B" stroke-width="1.292" stroke-miterlimit="10" stroke-linecap="round" stroke-linejoin="round"/>
<path d="M353.762 240.837L358.486 239.714L361.185 242.563L366.393 239.246L368.609 244.616L375.283 242.563L379.576 247.875" stroke="#1D1D1B" stroke-width="1.292" stroke-miterlimit="10" stroke-linecap="round" stroke-linejoin="round"/>
<path d="M337.217 271.181L343.805 266.871L345.593 270.31L347.801 262.254L349.886 268.573" stroke="#1D1D1B" stroke-width="1.292" stroke-miterlimit="10" stroke-linecap="round" stroke-linejoin="round"/>
<path d="M384.71 266.715L389.055 262.251L392.159 264.483L394.642 260.16L401.78 265.788" stroke="#1D1D1B" stroke-width="1.292" stroke-miterlimit="10" stroke-linecap="round" stroke-linejoin="round"/>
<path d="M167.24 341.878C167.24 341.878 162.819 315.454 142.914 291.576C142.914 291.576 166.652 303.189 169.767 305.079C169.767 305.079 182.782 300.433 182.782 292.413C182.782 292.413 194.695 303.383 198.069 307.271C198.069 307.271 207.674 305.084 210.529 297.307C210.529 297.307 219.096 301.195 221.951 307.029C221.951 307.029 231.556 292.447 234.411 281.024C234.411 281.024 242.978 299.008 242.978 305.327C242.978 305.327 254.4 299.495 256.995 295.363C256.995 295.363 262.965 301.439 263.225 305.814C263.225 305.814 271.012 295.607 277.242 292.691C277.242 292.691 278.539 301.44 282.953 305.085C282.953 305.085 291.041 291.233 288.424 276.894C288.424 276.894 301.643 295.608 302.681 305.085C302.681 305.085 309.468 303.141 310.358 298.037C310.358 298.037 316.717 302.655 318.006 306.3C318.006 306.3 327.083 299.009 328.121 292.205C328.121 292.205 335.13 299.009 335.909 303.141C335.909 303.141 344.994 295.364 353.56 291.719C353.56 291.719 354.339 301.926 362.645 304.599C362.645 304.599 368.875 290.747 368.875 281.268C368.875 281.268 377.441 295.364 381.335 304.112C381.335 304.112 388.344 296.822 394.574 294.148C394.574 294.148 397.689 301.926 404.179 303.626C404.179 303.626 411.707 299.008 412.485 292.447C412.485 292.447 423.648 297.307 426.243 303.626C426.243 303.626 433.252 296.259 434.29 290.259C434.29 290.259 446.759 292.328 446.799 297.918C446.799 297.918 455.817 284.539 483.497 269.223C483.497 269.223 462.096 291.698 464.662 322.338L167.24 341.878Z" fill="#708536"/>
<path d="M426.245 303.626C426.245 303.626 433.254 296.259 434.292 290.259C434.292 290.259 446.761 292.328 446.801 297.918C446.801 297.918 454.872 284.77 483.499 269.223" stroke="#1D1D1B" stroke-width="1.292" stroke-miterlimit="10" stroke-linecap="round" stroke-linejoin="round"/>
<path d="M335.908 303.139C335.908 303.139 344.993 295.362 353.56 291.716C353.56 291.716 354.339 301.923 362.645 304.597C362.645 304.597 368.875 290.744 368.875 281.266C368.875 281.266 377.441 295.362 381.335 304.11C381.335 304.11 388.343 296.819 394.574 294.146C394.574 294.146 397.689 301.923 404.179 303.624" stroke="#1D1D1B" stroke-width="1.292" stroke-miterlimit="10" stroke-linecap="round" stroke-linejoin="round"/>
<path d="M282.954 305.082C282.954 305.082 291.043 291.229 288.426 276.891C288.426 276.891 301.644 295.604 302.682 305.082C302.682 305.082 309.469 303.138 310.359 298.034C310.359 298.034 316.718 302.651 318.007 306.297C318.007 306.297 319.997 309.937 316.867 317.754" stroke="#1D1D1B" stroke-width="1.292" stroke-miterlimit="10" stroke-linecap="round" stroke-linejoin="round"/>
<path d="M210.53 297.306C210.53 297.306 219.097 301.195 221.952 307.028C221.952 307.028 231.557 292.446 234.413 281.023C234.413 281.023 242.979 299.008 242.979 305.326C242.979 305.326 254.401 299.494 256.996 295.362C256.996 295.362 262.966 301.438 263.226 305.813" stroke="#1D1D1B" stroke-width="1.292" stroke-miterlimit="10" stroke-linecap="round" stroke-linejoin="round"/>
<path d="M167.24 341.877C167.24 341.877 162.819 314.866 142.914 291.574C142.914 291.574 166.652 303.188 169.767 305.077C169.767 305.077 182.782 300.431 182.782 292.411" stroke="#1D1D1B" stroke-width="1.292" stroke-miterlimit="10" stroke-linecap="round" stroke-linejoin="round"/>
<path d="M362.646 304.598C362.646 304.598 359.666 310.448 354.519 320.18" stroke="#1D1D1B" stroke-width="1.292" stroke-miterlimit="10" stroke-linecap="round" stroke-linejoin="round"/>
<path d="M302.684 305.086C302.684 305.086 304.583 314.052 302.684 321.805" stroke="#1D1D1B" stroke-width="1.292" stroke-miterlimit="10" stroke-linecap="round" stroke-linejoin="round"/>
<path d="M277.243 292.688C277.243 292.688 261.299 302.507 256.869 320.178" stroke="#1D1D1B" stroke-width="1.292" stroke-miterlimit="10" stroke-linecap="round" stroke-linejoin="round"/>
<path d="M206.404 322.704C206.404 322.704 217.937 313.68 221.95 307.027" stroke="#1D1D1B" stroke-width="1.292" stroke-miterlimit="10" stroke-linecap="round" stroke-linejoin="round"/>
<path d="M412.486 292.449C412.486 292.449 411.866 303.803 385.332 316.55" stroke="#1D1D1B" stroke-width="1.292" stroke-miterlimit="10" stroke-linecap="round" stroke-linejoin="round"/>
<path d="M422.88 299.102C422.88 299.102 427.843 303.72 428.928 311.463" stroke="#1D1D1B" stroke-width="1.292" stroke-miterlimit="10" stroke-linecap="round" stroke-linejoin="round"/>
<path d="M166.814 360.317C166.814 360.317 155.374 342.817 171.209 340.851C171.209 340.851 167.012 324.597 187.618 327.098C187.618 327.098 193.914 315.845 209.75 321.918C209.75 321.918 221.197 312.986 230.928 322.453C230.928 322.453 246.955 317.095 254.014 328.883C254.014 328.883 264.507 317.63 276.527 324.597C276.527 324.597 291.981 314.951 303.048 325.669C303.048 325.669 312.504 313.411 324.782 322.091C324.782 322.091 344.828 308.953 355.353 321.856C355.353 321.856 366.379 311.533 376.903 320.683C376.903 320.683 388.93 313.176 397.7 320.214C397.7 320.214 405.979 310.024 418.128 319.46C418.128 319.46 383.978 370.453 305.686 376.911C227.393 383.369 166.814 360.317 166.814 360.317Z" fill="#BC735E"/>
<path d="M400.078 338.714C382.542 353.892 351.755 373.114 305.685 376.914C227.392 383.371 166.815 360.319 166.815 360.319C166.815 360.319 164.904 344.704 179.809 346.073C179.809 346.073 187.31 331.365 200.801 339.676C200.801 339.676 210.202 329.832 221.89 337.131C221.89 337.131 232.995 329.383 239.425 336.497C239.425 336.497 252.575 333.488 259.297 347.167C259.297 347.167 268.356 336.223 278.585 342.242C278.585 342.242 285.722 331.025 299.396 337.591C299.396 337.591 311.315 327.469 321.251 337.044C321.251 337.044 334.695 331.572 338.493 338.959C338.493 338.959 344.922 326.92 357.781 337.044C357.781 337.044 369.763 331.299 374.147 338.686C374.147 338.686 385.974 326.431 400.078 338.714Z" fill="#924C37"/>
<path d="M357.78 337.042C357.78 337.042 369.762 331.297 374.146 338.684C374.146 338.684 385.975 326.43 400.078 338.713" stroke="#1D1D1B" stroke-width="1.292" stroke-miterlimit="10" stroke-linecap="round" stroke-linejoin="round"/>
<path d="M221.89 337.132C221.89 337.132 232.995 329.384 239.424 336.497C239.424 336.497 252.575 333.488 259.297 347.167C259.297 347.167 268.356 336.223 278.585 342.242C278.585 342.242 285.722 331.025 299.395 337.592" stroke="#1D1D1B" stroke-width="1.292" stroke-miterlimit="10" stroke-linecap="round" stroke-linejoin="round"/>
<path d="M166.813 360.32C166.813 360.32 164.902 344.705 179.807 346.073" stroke="#1D1D1B" stroke-width="1.292" stroke-miterlimit="10" stroke-linecap="round" stroke-linejoin="round"/>
<path d="M376.902 320.683C376.902 320.683 388.93 313.176 397.7 320.214C397.7 320.214 405.979 310.024 418.128 319.46" stroke="#1D1D1B" stroke-width="1.292" stroke-miterlimit="10" stroke-linecap="round" stroke-linejoin="round"/>
<path d="M230.926 322.456C230.926 322.456 246.953 317.097 254.011 328.886C254.011 328.886 264.505 317.633 276.525 324.6C276.525 324.6 291.979 314.954 303.045 325.672" stroke="#1D1D1B" stroke-width="1.292" stroke-miterlimit="10" stroke-linecap="round" stroke-linejoin="round"/>
<path d="M166.814 360.316C166.814 360.316 155.374 342.817 171.209 340.851C171.209 340.851 167.012 324.596 187.618 327.098" stroke="#1D1D1B" stroke-width="1.292" stroke-miterlimit="10" stroke-linecap="round" stroke-linejoin="round"/>
<path d="M199.405 333.424C199.405 333.424 205.029 326.403 213.934 332.4" stroke="#1D1D1B" stroke-width="1.292" stroke-miterlimit="10" stroke-linecap="round" stroke-linejoin="round"/>
<path d="M234.002 352.401C234.002 352.401 238.786 344.648 242.837 354.651C242.837 354.651 250.769 342.045 261.74 354.508C261.74 354.508 273.001 342.933 280.765 352.223" stroke="#1D1D1B" stroke-width="1.292" stroke-miterlimit="10" stroke-linecap="round" stroke-linejoin="round"/>
<path d="M216.956 346.754C216.956 346.754 209.007 340.488 203.413 345.449C203.413 345.449 198.703 338.835 189.282 342.693" stroke="#1D1D1B" stroke-width="1.292" stroke-miterlimit="10" stroke-linecap="round" stroke-linejoin="round"/>
<path d="M306.812 340.317C306.812 340.317 311.669 333.216 321.09 337.938C321.09 337.938 326.242 331.007 335.515 334.491" stroke="#1D1D1B" stroke-width="1.292" stroke-miterlimit="10" stroke-linecap="round" stroke-linejoin="round"/>
<path d="M324.78 322.092C324.78 322.092 343.846 308.798 355.351 321.857" stroke="#1D1D1B" stroke-width="1.292" stroke-miterlimit="10" stroke-linecap="round" stroke-linejoin="round"/>
<path d="M319.451 351.625C319.451 351.625 323.134 341.302 335.513 348.606" stroke="#1D1D1B" stroke-width="1.292" stroke-miterlimit="10" stroke-linecap="round" stroke-linejoin="round"/>
<path d="M264.617 333.509C264.617 333.509 270.213 328.929 276.076 334.792C276.076 334.792 280.624 328.463 290.475 328.883" stroke="#1D1D1B" stroke-width="1.292" stroke-miterlimit="10" stroke-linecap="round" stroke-linejoin="round"/>
<path d="M359.873 327.854C359.873 327.854 365.693 322.797 373.839 328.867" stroke="#1D1D1B" stroke-width="1.292" stroke-miterlimit="10" stroke-linecap="round" stroke-linejoin="round"/>
<path d="M209.749 321.922C209.749 321.922 214.012 318.181 218.635 318.259" stroke="#1D1D1B" stroke-width="1.292" stroke-miterlimit="10" stroke-linecap="round" stroke-linejoin="round"/>
<path d="M201.916 154.024H302.868C302.868 154.024 311.521 148.986 302.868 141.596C294.214 134.205 289.508 149.697 280.249 139.606C270.989 129.515 249.584 124.824 245.636 138.753C241.689 152.682 233.644 144.864 230.759 142.875C227.874 140.885 220.739 141.454 217.096 146.286C213.453 151.117 214.364 148.986 208.899 148.133C203.434 147.28 200.095 152.097 201.916 154.024Z" fill="#FDFDFD"/>
<path d="M318.55 180.614H356.872C356.872 180.614 358.064 173.119 350.741 174.395C343.417 175.67 342.565 172.162 341.714 170.728C340.862 169.293 335.412 165.625 327.237 174.714C327.237 174.714 325.764 177.004 323.117 176.328C320.471 175.652 316.871 176.866 318.55 180.614Z" fill="#FDFDFD"/>
<path d="M390.075 146.845H449.567C449.567 146.845 451.116 144.116 446.573 144.746C446.573 144.746 447.731 137.253 439.09 138.954C430.448 140.654 428.132 141.975 428.043 138.26C427.954 134.546 421.63 128.249 413.255 132.846C404.881 137.442 410.315 141.913 403.813 139.898C397.309 137.884 400.427 143.298 396.864 142.102C393.3 140.905 387.207 145.105 390.075 146.845Z" fill="#FDFDFD"/>
<path d="M309.006 130.44C309.938 130.007 310.9 129.972 311.852 130.171C312.789 130.385 313.643 130.843 314.337 131.406C314.712 131.674 314.996 131.995 315.328 132.297C315.604 132.621 315.91 132.942 316.163 133.282C316.683 133.958 317.119 134.667 317.541 135.386L315.157 135.02C315.89 134.365 316.598 133.825 317.367 133.286C318.132 132.758 318.928 132.263 319.782 131.839C320.632 131.414 321.547 131.052 322.542 130.864C323.527 130.679 324.669 130.716 325.603 131.217C325.854 131.352 325.94 131.652 325.796 131.887C325.668 132.096 325.4 132.184 325.166 132.105L325.151 132.1C324.442 131.863 323.673 131.955 322.935 132.215C322.196 132.482 321.489 132.895 320.827 133.377C320.16 133.854 319.536 134.403 318.942 134.977C318.358 135.548 317.77 136.182 317.298 136.778L317.014 136.992C316.44 137.424 315.601 137.338 315.14 136.801C315.038 136.683 314.962 136.548 314.914 136.412C314.675 135.741 314.426 135.07 314.111 134.44C313.958 134.121 313.768 133.836 313.597 133.526C313.39 133.26 313.211 132.947 312.975 132.71C312.536 132.185 312.002 131.77 311.395 131.506C310.809 131.247 310.047 131.178 309.468 131.321L309.369 131.346C309.093 131.414 308.81 131.259 308.736 131C308.672 130.771 308.791 130.54 309.006 130.44Z" fill="#1D1D1B"/>
<path d="M324.775 137.277C325.773 137.001 326.726 137.122 327.629 137.472C328.512 137.835 329.269 138.424 329.847 139.09C330.167 139.414 330.389 139.776 330.66 140.127C330.872 140.492 331.115 140.857 331.302 141.232C331.69 141.982 331.988 142.75 332.271 143.527L329.991 142.781L329.992 142.78C330.834 142.254 331.631 141.837 332.488 141.429C333.339 141.033 334.213 140.675 335.133 140.394C336.049 140.113 337.016 139.903 338.032 139.879C339.036 139.856 340.155 140.076 340.982 140.722C341.205 140.895 341.235 141.204 341.05 141.413C340.885 141.598 340.604 141.641 340.388 141.525L340.374 141.517C339.72 141.17 338.945 141.137 338.171 141.273C337.395 141.417 336.622 141.709 335.879 142.076C335.136 142.44 334.419 142.878 333.728 143.349C333.047 143.817 332.352 144.346 331.776 144.857L331.458 145.022C330.813 145.355 330.001 145.135 329.646 144.531C329.567 144.399 329.517 144.253 329.494 144.112C329.383 143.413 329.261 142.712 329.066 142.04C328.974 141.701 328.84 141.39 328.729 141.056C328.574 140.762 328.456 140.424 328.267 140.153C327.931 139.564 327.481 139.07 326.931 138.712C326.401 138.362 325.663 138.171 325.067 138.218L324.965 138.225C324.68 138.248 324.429 138.05 324.405 137.783C324.384 137.549 324.544 137.34 324.775 137.277Z" fill="#1D1D1B"/>
<path d="M344.347 131.136C345.344 130.86 346.298 130.982 347.2 131.331C348.084 131.694 348.841 132.283 349.419 132.949C349.739 133.273 349.96 133.635 350.231 133.987C350.443 134.351 350.686 134.716 350.872 135.091C351.26 135.842 351.558 136.609 351.841 137.386L349.561 136.641L349.562 136.64C350.405 136.113 351.202 135.696 352.058 135.289C352.909 134.892 353.783 134.534 354.703 134.253C355.619 133.972 356.586 133.763 357.603 133.738C358.606 133.716 359.725 133.936 360.552 134.581C360.775 134.754 360.805 135.064 360.62 135.272C360.455 135.457 360.175 135.5 359.958 135.385L359.945 135.377C359.29 135.029 358.515 134.996 357.742 135.132C356.965 135.276 356.192 135.569 355.45 135.936C354.706 136.299 353.989 136.737 353.298 137.208C352.617 137.676 351.922 138.206 351.346 138.717L351.028 138.881C350.383 139.214 349.571 138.995 349.216 138.391C349.138 138.259 349.087 138.113 349.064 137.972C348.953 137.272 348.832 136.571 348.637 135.899C348.545 135.561 348.41 135.25 348.3 134.916C348.145 134.621 348.026 134.283 347.838 134.012C347.502 133.425 347.053 132.93 346.504 132.571C345.974 132.222 345.235 132.03 344.639 132.077L344.538 132.085C344.253 132.107 344.003 131.91 343.979 131.642C343.957 131.408 344.117 131.2 344.347 131.136Z" fill="#1D1D1B"/>
<path d="M180.27 183.093C179.273 182.817 178.319 182.939 177.417 183.288C176.534 183.651 175.777 184.24 175.198 184.906C174.878 185.23 174.657 185.592 174.386 185.944C174.174 186.308 173.931 186.673 173.745 187.048C173.357 187.799 173.059 188.566 172.776 189.343L175.056 188.598L175.055 188.597C174.212 188.07 173.416 187.653 172.559 187.246C171.708 186.849 170.834 186.491 169.914 186.21C168.998 185.929 168.031 185.72 167.015 185.695C166.011 185.672 164.892 185.893 164.065 186.538C163.842 186.711 163.812 187.021 163.998 187.229C164.163 187.415 164.443 187.457 164.66 187.342L164.673 187.334C165.328 186.986 166.103 186.953 166.876 187.089C167.653 187.233 168.426 187.526 169.168 187.893C169.912 188.256 170.629 188.694 171.32 189.165C172.001 189.633 172.696 190.163 173.272 190.674L173.59 190.838C174.235 191.171 175.047 190.951 175.402 190.348C175.481 190.216 175.531 190.07 175.554 189.929C175.665 189.229 175.786 188.528 175.981 187.857C176.073 187.518 176.208 187.207 176.319 186.873C176.474 186.578 176.592 186.24 176.781 185.969C177.117 185.381 177.567 184.887 178.116 184.527C178.646 184.178 179.384 183.986 179.98 184.033L180.081 184.041C180.367 184.063 180.617 183.866 180.641 183.598C180.66 183.365 180.501 183.157 180.27 183.093Z" fill="#1D1D1B"/>
<path d="M155.009 193.953C154.011 193.677 153.058 193.798 152.155 194.147C151.272 194.511 150.515 195.1 149.937 195.766C149.617 196.09 149.395 196.452 149.124 196.803C148.912 197.167 148.669 197.532 148.482 197.907C148.094 198.658 147.796 199.426 147.513 200.203L149.793 199.457L149.792 199.456C148.95 198.929 148.153 198.512 147.297 198.105C146.445 197.709 145.571 197.35 144.651 197.069C143.735 196.788 142.768 196.579 141.752 196.554C140.748 196.532 139.629 196.752 138.802 197.397C138.579 197.571 138.549 197.88 138.735 198.088C138.9 198.273 139.181 198.317 139.397 198.201L139.411 198.193C140.065 197.846 140.84 197.812 141.614 197.948C142.391 198.092 143.163 198.385 143.906 198.752C144.649 199.115 145.365 199.554 146.058 200.025C146.738 200.493 147.434 201.022 148.01 201.533L148.328 201.698C148.973 202.03 149.784 201.811 150.14 201.207C150.218 201.075 150.268 200.929 150.291 200.788C150.402 200.088 150.523 199.387 150.719 198.716C150.811 198.377 150.946 198.066 151.056 197.732C151.211 197.437 151.329 197.1 151.519 196.829C151.854 196.241 152.304 195.746 152.853 195.388C153.383 195.038 154.121 194.846 154.717 194.893L154.819 194.901C155.104 194.924 155.354 194.726 155.378 194.459C155.399 194.225 155.24 194.016 155.009 193.953Z" fill="#1D1D1B"/>
<path d="M160.699 176.953C159.702 176.677 158.748 176.798 157.846 177.147C156.963 177.511 156.205 178.1 155.627 178.766C155.307 179.09 155.086 179.452 154.815 179.803C154.603 180.167 154.36 180.532 154.173 180.907C153.785 181.658 153.487 182.426 153.204 183.203L155.484 182.457L155.483 182.456C154.64 181.929 153.844 181.512 152.987 181.105C152.136 180.709 151.262 180.35 150.342 180.069C149.426 179.788 148.459 179.579 147.442 179.554C146.439 179.532 145.32 179.752 144.493 180.397C144.27 180.571 144.24 180.88 144.425 181.088C144.59 181.273 144.87 181.317 145.087 181.201L145.1 181.193C145.755 180.846 146.53 180.812 147.303 180.948C148.08 181.092 148.853 181.385 149.595 181.752C150.339 182.115 151.056 182.554 151.747 183.025C152.428 183.493 153.123 184.022 153.699 184.533L154.017 184.698C154.662 185.03 155.474 184.81 155.829 184.207C155.908 184.075 155.958 183.929 155.981 183.788C156.092 183.088 156.214 182.387 156.408 181.716C156.5 181.377 156.635 181.066 156.745 180.732C156.9 180.437 157.019 180.1 157.207 179.829C157.543 179.241 157.992 178.746 158.542 178.388C159.072 178.038 159.811 177.846 160.407 177.893L160.509 177.901C160.795 177.924 161.044 177.726 161.069 177.459C161.089 177.225 160.931 177.016 160.699 176.953Z" fill="#1D1D1B"/>
<path d="M411.989 162.349C413.019 162.213 413.943 162.465 414.781 162.935C415.598 163.415 416.254 164.102 416.722 164.841C416.987 165.205 417.149 165.594 417.362 165.978C417.515 166.368 417.697 166.762 417.824 167.159C418.089 167.954 418.264 168.755 418.422 169.562L416.282 168.51C417.198 168.105 418.053 167.803 418.964 167.518C419.869 167.243 420.79 167.008 421.744 166.858C422.694 166.706 423.683 166.632 424.692 166.747C425.689 166.863 426.76 167.235 427.478 167.987C427.67 168.188 427.652 168.499 427.436 168.68C427.243 168.84 426.96 168.844 426.763 168.7L426.751 168.692C426.158 168.258 425.397 168.118 424.611 168.146C423.819 168.182 423.009 168.365 422.217 168.626C421.425 168.883 420.647 169.218 419.89 169.588C419.143 169.958 418.371 170.386 417.722 170.811L417.382 170.929C416.692 171.17 415.924 170.841 415.668 170.194C415.611 170.052 415.584 169.901 415.584 169.759C415.584 169.051 415.573 168.341 415.487 167.65C415.449 167.303 415.364 166.976 415.308 166.631C415.201 166.318 415.136 165.967 414.993 165.674C414.754 165.046 414.386 164.494 413.899 164.064C413.43 163.645 412.731 163.355 412.133 163.319L412.031 163.314C411.746 163.297 411.529 163.066 411.547 162.799C411.561 162.566 411.751 162.381 411.989 162.349Z" fill="#1D1D1B"/>
<path d="M432.312 158.97C433.342 158.834 434.267 159.086 435.104 159.556C435.921 160.036 436.577 160.724 437.045 161.462C437.31 161.826 437.472 162.215 437.686 162.599C437.838 162.989 438.02 163.383 438.147 163.78C438.412 164.576 438.587 165.376 438.745 166.183L436.606 165.132H436.607C437.523 164.726 438.376 164.424 439.288 164.139C440.192 163.864 441.113 163.629 442.067 163.479C443.017 163.327 444.006 163.253 445.015 163.369C446.012 163.484 447.083 163.856 447.801 164.608C447.993 164.809 447.975 165.12 447.759 165.301C447.567 165.461 447.283 165.465 447.087 165.321L447.074 165.312C446.481 164.878 445.72 164.738 444.934 164.766C444.142 164.802 443.332 164.985 442.54 165.246C441.748 165.504 440.97 165.838 440.213 166.208C439.466 166.577 438.695 167.006 438.045 167.431L437.706 167.549C437.015 167.79 436.247 167.461 435.991 166.814C435.934 166.672 435.907 166.522 435.907 166.379C435.907 165.671 435.897 164.961 435.81 164.27C435.772 163.923 435.688 163.596 435.631 163.251C435.525 162.938 435.46 162.587 435.316 162.294C435.077 161.666 434.709 161.114 434.223 160.684C433.753 160.265 433.054 159.975 432.457 159.939L432.354 159.934C432.069 159.917 431.852 159.686 431.87 159.42C431.884 159.187 432.074 159.002 432.312 158.97Z" fill="#1D1D1B"/>
<path d="M373.404 339.418C418.106 323.984 452.803 295.86 501.706 349.917C550.609 403.975 688.771 525.797 688.771 525.797C688.771 525.797 685.234 591.543 552.084 577.262C552.084 577.262 475.707 467.384 446.077 418.877C446.077 418.877 393.503 440.384 350.76 441.687C308.016 442.99 226.308 391.837 182.669 371.712C139.029 351.588 177.872 333.957 202.365 340.057L225.551 349.252C225.551 349.252 271.551 366.296 291.955 368.605L373.404 339.418Z" fill="#F3E4CF"/>
<path d="M397.607 388.902C366.883 381.605 333.062 387.76 304.567 377.739C276.071 367.718 294.164 337.364 312.375 339.122C330.586 340.88 396.176 338.848 396.176 338.848L397.607 388.902Z" fill="#F3E4CF"/>
<path d="M202.366 340.059C202.366 340.059 246.498 359.365 292.324 369.183" stroke="#1D1D1B" stroke-width="1.292" stroke-miterlimit="10" stroke-linecap="round" stroke-linejoin="round"/>
<path d="M163.68 356.925C163.68 356.925 170.214 349.766 180.87 351.313C191.528 352.858 200.927 370.155 198.145 379.264L182.672 371.713C182.672 371.713 167.221 365.332 163.68 356.925Z" fill="#B5A894"/>
<path d="M336.167 383.594C336.167 383.594 335.674 369.169 323.965 363.984C312.258 358.799 295.978 355.995 293.621 370.868C293.621 370.868 299.457 381.788 336.167 383.594Z" fill="#B5A894"/>
<path d="M396.178 338.844C396.178 338.844 330.588 340.876 312.377 339.118C294.166 337.36 276.073 367.714 304.569 377.735C333.064 387.756 366.885 381.601 397.609 388.899" stroke="#1D1D1B" stroke-width="1.292" stroke-miterlimit="10" stroke-linecap="round" stroke-linejoin="round"/>
<path d="M499.404 500.34C479.475 470.842 458.601 439.376 446.078 418.875C446.078 418.875 393.503 440.381 350.76 441.684" stroke="#1D1D1B" stroke-width="1.292" stroke-miterlimit="10" stroke-linecap="round" stroke-linejoin="round"/>
<path d="M501.706 349.922C550.609 403.979 688.771 525.802 688.771 525.802" stroke="#1D1D1B" stroke-width="1.292" stroke-miterlimit="10" stroke-linecap="round" stroke-linejoin="round"/>
<path d="M374.094 339.178C400.245 330.054 422.999 316.734 447.237 318.344" stroke="#1D1D1B" stroke-width="1.292" stroke-miterlimit="10" stroke-linecap="round" stroke-linejoin="round"/>
<path d="M182.671 371.709C139.031 351.585 177.874 333.954 202.366 340.053" stroke="#1D1D1B" stroke-width="1.292" stroke-miterlimit="10" stroke-linecap="round" stroke-linejoin="round"/>
<path d="M61.3456 -120.747C61.3456 -120.747 137.723 -10.8693 167.353 37.6368C167.353 37.6368 219.927 16.1305 262.67 14.8276C305.414 13.5247 387.121 64.6778 430.761 84.8019C474.401 104.926 435.558 122.557 411.065 116.457C411.065 116.457 407.586 136.898 375.525 128.037C343.464 119.176 284.729 101.662 240.027 117.096C195.325 132.529 160.628 160.653 111.725 106.596C62.822 52.5405 -75.3398 -69.2829 -75.3398 -69.2829C-75.3398 -69.2829 -71.8026 -135.028 61.3456 -120.747Z" fill="#F3E4CF"/>
<path d="M240.026 117.091C284.728 101.657 343.463 119.172 375.524 128.032C407.585 136.892 411.065 116.453 411.065 116.453C411.065 116.453 358.772 94.3687 321.106 87.3285C283.44 80.2892 240.026 117.091 240.026 117.091Z" fill="#E4CFB1"/>
<path d="M215.824 67.6133C246.549 74.9109 280.369 68.7556 308.865 78.7766C337.36 88.7975 319.267 119.152 301.056 117.394C282.845 115.636 217.256 117.668 217.256 117.668L215.824 67.6133Z" fill="#F3E4CF"/>
<path d="M411.066 116.456C411.066 116.456 366.933 97.1503 321.107 87.332" stroke="#1D1D1B" stroke-width="1.292" stroke-miterlimit="10" stroke-linecap="round" stroke-linejoin="round"/>
<path d="M449.751 99.5893C449.751 99.5893 443.217 106.748 432.56 105.201C421.903 103.656 412.504 86.3586 415.285 77.25L430.759 84.8012C430.759 84.8012 446.209 91.1816 449.751 99.5893Z" fill="#B5A894"/>
<path d="M277.265 72.918C277.265 72.918 277.758 87.3429 289.467 92.5281C301.174 97.7133 317.454 100.518 319.811 85.6446C319.811 85.6446 313.975 74.724 277.265 72.918Z" fill="#B5A894"/>
<path d="M217.253 117.668C217.253 117.668 282.842 115.636 301.053 117.394C319.264 119.152 337.357 88.7975 308.862 78.7766C280.366 68.7556 246.546 74.9109 215.821 67.6133" stroke="#1D1D1B" stroke-width="1.292" stroke-miterlimit="10" stroke-linecap="round" stroke-linejoin="round"/>
<path d="M114.025 -43.8281C133.954 -14.3301 154.828 17.1354 167.351 37.6364C167.351 37.6364 219.926 16.1301 262.669 14.8272" stroke="#1D1D1B" stroke-width="1.292" stroke-miterlimit="10" stroke-linecap="round" stroke-linejoin="round"/>
<path d="M111.725 106.595C62.822 52.5382 -75.3398 -69.2852 -75.3398 -69.2852" stroke="#1D1D1B" stroke-width="1.292" stroke-miterlimit="10" stroke-linecap="round" stroke-linejoin="round"/>
<path d="M239.338 117.336C213.187 126.46 190.433 139.78 166.195 138.17" stroke="#1D1D1B" stroke-width="1.292" stroke-miterlimit="10" stroke-linecap="round" stroke-linejoin="round"/>
<path d="M430.761 84.8047C474.4 104.929 435.558 122.56 411.065 116.46C411.065 116.46 407.585 136.9 375.524 128.039C359.883 123.717 337.895 117.335 314.284 113.723" stroke="#1D1D1B" stroke-width="1.292" stroke-miterlimit="10" stroke-linecap="round" stroke-linejoin="round"/>
</g>
</svg>
