<svg width="806" height="1051" viewBox="0 0 806 1051" fill="none" xmlns="http://www.w3.org/2000/svg">
<g opacity="0.2" clip-path="url(#clip0_1749_2586)">
<path d="M901.602 315.134L711.42 505.315C707.063 502.46 702.553 499.843 697.911 497.476L767.524 237.68C768.577 233.753 768.846 229.657 768.316 225.625C767.785 221.594 766.466 217.706 764.433 214.185C762.4 210.663 759.694 207.577 756.468 205.101C753.242 202.625 749.561 200.809 745.633 199.757C741.706 198.704 737.609 198.435 733.578 198.966C729.547 199.496 725.659 200.815 722.137 202.848C718.616 204.881 715.529 207.587 713.054 210.813C710.578 214.039 708.762 217.72 707.709 221.648L638.054 481.402C632.832 481.117 627.599 481.103 622.376 481.36L552.699 221.627C550.573 213.695 545.383 206.933 538.271 202.827C531.159 198.722 522.707 197.61 514.775 199.736C506.844 201.862 500.081 207.052 495.976 214.164C491.87 221.276 490.758 229.728 492.884 237.66L562.561 497.184C557.857 499.571 553.284 502.209 548.863 505.086L358.911 315.133C353.105 309.328 345.23 306.066 337.019 306.066C328.809 306.066 320.934 309.328 315.128 315.134C309.322 320.939 306.061 328.814 306.061 337.025C306.061 345.235 309.322 353.11 315.128 358.916L505.081 548.868C502.204 553.29 499.566 557.862 497.179 562.566L237.696 493.015C233.769 491.962 229.672 491.693 225.641 492.224C221.609 492.754 217.722 494.073 214.2 496.106C210.679 498.139 207.592 500.845 205.117 504.071C202.641 507.297 200.825 510.978 199.772 514.906C197.646 522.838 198.758 531.289 202.864 538.402C206.969 545.514 213.732 550.704 221.663 552.83L481.397 622.506C481.14 627.729 481.153 632.962 481.438 638.184L221.684 707.84C213.752 709.966 206.99 715.156 202.884 722.268C198.779 729.38 197.667 737.832 199.793 745.764C201.919 753.696 207.109 760.458 214.221 764.563C221.333 768.669 229.785 769.781 237.717 767.655L497.513 698.041C499.879 702.683 502.496 707.193 505.352 711.551L315.212 901.691C309.406 907.497 306.144 915.371 306.144 923.582C306.144 931.793 309.406 939.667 315.212 945.473C321.018 951.279 328.892 954.541 337.103 954.541C345.314 954.541 353.188 951.279 358.994 945.473L549.322 755.145C577.919 773.614 611.982 781.724 645.833 778.122C679.684 774.521 711.279 759.427 735.35 735.356C759.422 711.284 774.516 679.69 778.117 645.838C781.718 611.987 773.609 577.924 755.14 549.327L945.468 358.999C951.274 353.193 954.536 345.319 954.536 337.108C954.536 328.897 951.274 321.023 945.468 315.217C939.662 309.411 931.788 306.149 923.577 306.149C915.366 306.149 907.492 309.411 901.686 315.217L901.602 315.134ZM692.49 694.58C679.707 707.363 663.421 716.068 645.691 719.595C627.96 723.122 609.582 721.311 592.881 714.393C576.179 707.475 561.904 695.76 551.861 680.729C541.817 665.698 536.457 648.027 536.457 629.949C536.457 611.871 541.817 594.2 551.861 579.169C561.904 564.138 576.179 552.423 592.881 545.505C609.582 538.587 627.96 536.776 645.691 540.303C663.421 543.83 679.707 552.535 692.49 565.318C709.631 582.459 719.261 605.708 719.261 629.949C719.261 654.19 709.631 677.439 692.49 694.58Z" fill="#0D3B66"/>
</g>
<defs>
<clipPath id="clip0_1749_2586">
<rect width="891.317" height="594.113" fill="white" transform="translate(0 630.258) rotate(-45)"/>
</clipPath>
</defs>
</svg>
