<svg width="115" height="115" viewBox="0 0 115 115" fill="none" xmlns="http://www.w3.org/2000/svg">
<g clip-path="url(#clip0_1742_3701)">
<path d="M108.606 45.247C107.301 39.6258 105.097 34.3094 102.038 29.4003L104.14 23.1922L91.2855 10.3374L85.0772 12.4394C80.1682 9.38005 74.8518 7.17639 69.2305 5.87153L66.3294 0H48.1496L45.2487 5.8713C39.6275 7.17616 34.3111 9.37961 29.4021 12.4392L23.194 10.3372L10.3389 23.192L12.4411 29.4001C9.38178 34.3091 7.17834 39.6255 5.87326 45.2468L0.00195312 48.1479V66.3274L5.87326 69.2283C7.17812 74.8496 9.38156 80.166 12.4411 85.075L10.3389 91.2831L23.194 104.138L29.4021 102.036C34.3111 105.095 39.6275 107.299 45.2487 108.604L48.1496 114.475H66.3294L69.2303 108.604C74.8515 107.299 80.168 105.096 85.077 102.036L91.2853 104.138L104.14 91.2831L102.038 85.075C105.097 80.166 107.301 74.8496 108.606 69.2283L114.477 66.3274V48.1479L108.606 45.247ZM107.773 62.1621L102.706 64.6657L102.383 66.2848C101.207 72.1905 98.91 77.7326 95.5563 82.7572L94.6401 84.13L96.4544 89.4882L89.4903 96.4525L84.1321 94.6381L82.7593 95.5543C77.7348 98.908 72.1926 101.205 66.2869 102.381L64.6679 102.704L62.1641 107.771H52.3154L49.8116 102.704L48.1925 102.381C42.2868 101.205 36.7447 98.908 31.7201 95.5543L30.3473 94.6381L24.9894 96.4525L18.025 89.4879L19.8394 84.1297L18.9232 82.7569C15.5695 77.7324 13.2724 72.1902 12.0961 66.2845L11.7736 64.6655L6.70614 62.1621V52.3132L11.7734 49.8097L12.0959 48.1906C13.2724 42.2847 15.5693 36.7425 18.923 31.7182L19.8392 30.3454L18.0248 24.9872L24.9891 18.0229L30.3473 19.8372L31.7201 18.921C36.7447 15.5673 42.2868 13.2705 48.1923 12.0939L49.8114 11.7714L52.3152 6.70419H62.1641L64.6676 11.7717L66.2867 12.0941C72.1924 13.2707 77.7346 15.5676 82.7591 18.9212L84.1319 19.8375L89.4901 18.0231L96.4542 24.9874L94.6398 30.3456L95.5561 31.7184C98.9097 36.743 101.207 42.2851 102.383 48.1908L102.706 49.8099L107.773 52.3134V62.1621H107.773Z" fill="#0D3B66"/>
<path d="M53.8883 53.8842H44.5V60.5884H60.5925V38.1055H53.8883V53.8842Z" fill="#0D3B66"/>
<path d="M57.2382 17.9609C35.5785 17.9609 17.957 35.5824 17.957 57.2421C17.957 78.9018 35.5785 96.5233 57.2382 96.5233C78.8979 96.5233 96.5194 78.9018 96.5194 57.2421C96.5194 35.5824 78.8979 17.9609 57.2382 17.9609ZM60.5903 89.6479V83.0774H53.8861V89.6479C38.5941 88.0778 26.4025 75.8862 24.8324 60.5942H31.403V53.89H24.8324C26.4025 38.598 38.5941 26.4064 53.8861 24.8363V31.4069H60.5903V24.8363C75.8823 26.4064 88.0739 38.598 89.644 53.89H83.0735V60.5942H89.644C88.0737 75.8862 75.8823 88.0778 60.5903 89.6479Z" fill="#0D3B66"/>
</g>
<defs>
<clipPath id="clip0_1742_3701">
<rect width="114.475" height="114.475" fill="white"/>
</clipPath>
</defs>
</svg>
