<svg width="102" height="115" viewBox="0 0 102 115" fill="none" xmlns="http://www.w3.org/2000/svg">
<path d="M101.688 56.9014C101.688 49.5768 98.0048 43.0972 92.3936 39.2148C88.1195 32.6391 82.2781 27.1379 75.4515 23.2825C68.1908 19.1818 59.9203 17.0146 51.5347 17.0146C48.7755 17.0146 46.0286 17.2517 43.3263 17.7102C41.5332 7.65641 32.7266 0 22.1652 0C10.3339 0 0.704471 9.60934 0.670503 21.4328C0.646368 22.2259 0.638323 26.4806 2.92758 31.8219C4.12517 34.6164 6.10983 38.0094 9.37567 41.3215C5.08767 48.7155 2.83283 57.0909 2.83283 65.7165C2.83283 78.7253 7.89874 90.9553 17.0973 100.154C26.1828 109.239 38.2267 114.29 51.0567 114.413C51.1066 114.415 51.1564 114.417 51.2064 114.417C51.2263 114.417 51.2462 114.415 51.2661 114.415C51.3557 114.416 51.4449 114.419 51.5347 114.419C64.5435 114.419 76.7735 109.353 85.9721 100.154C95.1707 90.9555 100.237 78.7255 100.237 65.7167C100.237 65.632 100.235 65.5477 100.234 65.463C101.196 62.7217 101.688 59.8545 101.688 56.9014ZM93.8071 63.5546C93.7568 63.6697 93.7117 63.7872 93.6743 63.9086C92.4064 67.1529 90.2215 70.1656 87.1344 72.9152C84.4212 75.3316 81.6607 76.9324 80.0934 77.7429C65.2799 70.1023 65.3813 57.7494 65.4001 57.043C65.4035 56.9849 65.403 56.9639 65.403 56.9016C65.403 54.8018 65.8457 52.8044 66.6379 50.9936C66.77 50.7789 66.8793 50.5491 66.9606 50.3058C69.3895 45.4526 74.4072 42.111 80.1933 42.111C88.349 42.111 94.9841 48.7459 94.9841 56.9016C94.9841 59.2112 94.5892 61.4316 93.8071 63.5546ZM80.6289 35.4122C80.4841 35.4093 80.3391 35.4066 80.1933 35.4066C72.4306 35.4066 65.6158 39.5435 61.8371 45.7284C59.4866 45.3366 57.4255 44.2251 55.8031 42.4507C53.7581 40.214 52.6318 37.134 52.6318 33.7784C52.6318 30.0929 54.5132 26.4974 57.6047 24.1574C66.3257 25.4129 74.3406 29.3521 80.6289 35.4122ZM7.37179 21.6362C7.37514 21.5781 7.37469 21.5571 7.37469 21.4947C7.37469 13.3391 14.0096 6.70419 22.1652 6.70419C30.3209 6.70419 36.956 13.3391 36.956 21.4947C36.956 21.5108 36.9554 21.5269 36.9554 21.5432C36.9466 21.6717 36.9435 21.8011 36.95 21.9316C36.8244 27.7437 34.1879 32.9826 29.1063 37.5086C26.3934 39.9248 23.6326 41.5257 22.0654 42.3363C19.5792 41.054 17.515 39.6387 15.7981 38.1683C15.7943 38.1652 15.7907 38.162 15.7871 38.1589C7.28508 30.8694 7.35614 22.2239 7.37179 21.6362ZM9.83848 70.7388H35.4132C42.0914 70.7388 47.5243 76.1719 47.5243 82.8501C47.5243 85.1193 46.8907 87.333 45.6925 89.2517C45.1421 90.1331 45.0314 91.2199 45.393 92.194C45.7546 93.1681 46.5475 93.9194 47.5397 94.2283C50.8129 95.2466 53.0121 98.2371 53.0121 101.669C53.0121 104.026 51.9587 106.214 50.1561 107.689C29.3211 107.013 12.275 91.0898 9.83848 70.7388ZM58.6628 107.106C59.3494 105.408 59.7165 103.568 59.7165 101.67C59.7165 96.6051 57.141 92.0574 53.0351 89.4475C53.8215 87.3493 54.2287 85.1173 54.2287 82.8504C54.2287 72.4754 45.7881 64.0348 35.4134 64.0348H9.57121C9.82619 57.5762 11.5494 51.3199 14.6145 45.6839C16.3806 46.8942 18.3743 48.0462 20.6302 49.0981C21.0787 49.3073 21.5625 49.4121 22.0468 49.4121C22.4826 49.4121 22.9188 49.3272 23.33 49.1567C23.5374 49.0709 28.4654 47.0024 33.3914 42.6684C39.2553 37.5095 42.7055 31.2748 43.4881 24.4911C45.2813 24.1436 47.1006 23.9109 48.9335 23.7988C47.0087 26.7806 45.9278 30.2455 45.9278 33.7784C45.9278 38.8126 47.6778 43.499 50.8556 46.9745C53.1404 49.4733 56.0335 51.1974 59.2566 52.0272C58.8964 53.5745 58.7035 55.1851 58.6988 56.8392C58.6747 57.6323 58.6666 61.887 60.9559 67.2283C63.1602 72.3722 68.021 79.5447 78.6585 84.5045C79.107 84.7137 79.5909 84.8185 80.0751 84.8185C80.5109 84.8185 80.9471 84.7336 81.3583 84.563C81.5657 84.4772 86.4937 82.4088 91.4197 78.075C91.5379 77.9708 91.653 77.8653 91.7695 77.7605C87.2439 92.8505 74.445 104.396 58.6628 107.106Z" fill="#0D3B66"/>
<path d="M22.1636 30.9837C26.9495 30.9837 30.8431 27.0901 30.8431 22.3042C30.8431 17.5183 26.9495 13.625 22.1636 13.625C17.3779 13.625 13.4844 17.5186 13.4844 22.3042C13.4844 27.0901 17.3779 30.9837 22.1636 30.9837ZM22.1636 20.3292C23.2528 20.3292 24.1389 21.2153 24.1389 22.3042C24.1389 23.3932 23.2528 24.2795 22.1636 24.2795C21.0746 24.2795 20.1886 23.3934 20.1886 22.3042C20.1886 21.215 21.0746 20.3292 22.1636 20.3292Z" fill="#0D3B66"/>
<path d="M80.1929 49.0742C75.4072 49.0742 71.5137 52.9678 71.5137 57.7535C71.5137 62.5394 75.4072 66.4329 80.1929 66.4329C84.9788 66.4329 88.8724 62.5394 88.8724 57.7535C88.8724 52.9678 84.9788 49.0742 80.1929 49.0742ZM80.1929 59.7287C79.1039 59.7287 78.2179 58.8427 78.2179 57.7535C78.2179 56.6643 79.1039 55.7784 80.1929 55.7784C81.2821 55.7784 82.1682 56.6645 82.1682 57.7535C82.1682 58.8424 81.2821 59.7287 80.1929 59.7287Z" fill="#0D3B66"/>
</svg>
