<svg width="115" height="101" viewBox="0 0 115 101" fill="none" xmlns="http://www.w3.org/2000/svg">
<path d="M111.421 13.4092C111.414 13.4092 111.407 13.4084 111.4 13.4084H81.0077V10.0563C81.0077 4.51136 76.4964 0 70.9514 0H44.1347C38.5898 0 34.0784 4.51136 34.0784 10.0563V13.4084H3.68608C1.81973 13.4084 0.333984 14.9378 0.333984 16.7605V90.5065C0.333984 96.0515 4.84534 100.563 10.3903 100.563H104.696C110.241 100.563 114.752 96.0515 114.752 90.5065V16.8312C114.752 16.8268 114.752 16.8224 114.752 16.8181C114.624 14.6165 113.27 13.4215 111.421 13.4092ZM40.7826 10.0563C40.7826 8.20827 42.2867 6.70419 44.1347 6.70419H70.9514C72.7994 6.70419 74.3035 8.20827 74.3035 10.0563V13.4084H40.7826V10.0563ZM106.749 20.1126L96.3392 51.3412C95.8826 52.7126 94.6046 53.6335 93.1599 53.6335H74.3035V50.2814C74.3035 48.4299 72.8029 46.9293 70.9514 46.9293H44.1347C42.2832 46.9293 40.7826 48.4299 40.7826 50.2814V53.6335H21.9262C20.4815 53.6335 19.2035 52.7126 18.7469 51.3412L8.33711 20.1126H106.749ZM67.5993 53.6335V60.3377H47.4868V53.6335H67.5993ZM108.048 90.5065C108.048 92.3546 106.544 93.8586 104.696 93.8586H10.3903C8.54225 93.8586 7.03817 92.3546 7.03817 90.5065V37.4169L12.3867 53.4615C13.7572 57.5748 17.5912 60.3377 21.9262 60.3377H40.7826V63.6898C40.7826 65.5413 42.2832 67.0419 44.1347 67.0419H70.9514C72.8029 67.0419 74.3035 65.5413 74.3035 63.6898V60.3377H93.1599C97.4949 60.3377 101.329 57.5748 102.699 53.4615L108.048 37.4169V90.5065Z" fill="#0D3B66"/>
</svg>
