<svg width="115" height="101" viewBox="0 0 115 101" fill="none" xmlns="http://www.w3.org/2000/svg">
<path d="M3.35237 87.1543H20.1128V97.2105C20.1128 99.0618 21.6136 100.563 23.4649 100.563H111.066C112.917 100.563 114.418 99.0618 114.418 97.2105V10.0563C114.418 8.20502 112.917 6.70417 111.066 6.70417H94.3057V3.35209C94.3057 1.50084 92.8048 0 90.9536 0C89.1023 0 87.6015 1.50084 87.6015 3.35209V6.70417H70.6176V3.35209C70.6176 1.50084 69.1167 0 67.2655 0C65.4142 0 63.9134 1.50084 63.9134 3.35209V6.70417H47.153V3.35209C47.153 1.50084 45.6521 0 43.8009 0C41.9496 0 40.4488 1.50084 40.4488 3.35209V6.70417H23.4649C21.6136 6.70417 20.1128 8.20502 20.1128 10.0563V30.1688C20.1128 54.8737 9.84536 73.8791 1.20636 81.2271C0.122072 82.1306 -0.279955 83.6163 0.200288 84.9435C0.680977 86.2704 1.94091 87.1543 3.35237 87.1543ZM107.714 93.8584H26.817V87.1543H90.9536C91.7377 87.1543 92.4971 86.8794 93.0996 86.3773C97.1292 83.0209 103.371 75.03 107.714 64.7954V93.8584ZM26.817 13.4083H40.4488V16.7604C40.4488 18.6117 41.9496 20.1125 43.8009 20.1125C45.6521 20.1125 47.153 18.6117 47.153 16.7604V13.4083H63.9134V16.7604C63.9134 18.6117 65.4142 20.1125 67.2655 20.1125C69.1167 20.1125 70.6176 18.6117 70.6176 16.7604V13.4083H87.6015V16.7604C87.6015 18.6117 89.1023 20.1125 90.9536 20.1125C92.8048 20.1125 94.3057 18.6117 94.3057 16.7604V13.4083H107.714V26.8167H26.817V13.4083ZM26.7595 33.5186H107.655C106.899 54.7832 98.7378 71.5141 89.6391 80.4501H10.977C21.2865 67.3142 26.2065 50.2102 26.7595 33.5186Z" fill="#0D3B66"/>
</svg>
