<svg width="712" height="327" viewBox="0 0 712 327" fill="none" xmlns="http://www.w3.org/2000/svg">
<path d="M225.857 22.4597C226.169 22.3725 226.303 22.2368 226.432 21.8789C226.644 21.3095 226.982 20.8089 227.414 20.424C227.847 20.039 228.361 19.7823 228.908 19.6778C229.454 19.5733 230.016 19.6244 230.54 19.8264C231.064 20.0284 231.533 20.3746 231.903 20.8327C232.343 21.37 232.623 22.0443 232.707 22.7643C232.747 23.1108 232.595 23.3664 232.31 23.4306C232.041 23.4911 231.823 23.3255 231.74 22.9986C231.726 22.9441 231.716 22.8956 231.706 22.846C231.701 22.8209 231.696 22.7953 231.691 22.7703C231.432 21.5628 230.566 20.7542 229.537 20.7542H229.53C228.325 20.7581 227.485 21.5018 227.227 22.7942C227.166 23.0983 227.022 23.5026 226.475 23.4672C226.324 23.4558 226.172 23.4849 226.032 23.5521C225.892 23.6193 225.769 23.7226 225.673 23.8535C225.381 24.2256 225.324 24.6708 225.508 25.1372C225.683 25.578 226.015 25.8019 226.497 25.8019H228.096C230.701 25.8019 233.307 25.8019 235.912 25.8019C236.073 25.7957 236.235 25.8105 236.393 25.8461C236.506 25.871 236.607 25.9405 236.678 26.0418C236.748 26.143 236.783 26.2692 236.777 26.3969C236.762 26.6879 236.585 26.8873 236.315 26.9135C236.208 26.9244 236.104 26.9244 236.004 26.9238H231.285H231.095H229.856C229.388 26.9238 228.912 26.9238 228.433 26.9238C227.781 26.9238 227.124 26.9238 226.473 26.9167C225.393 26.908 224.538 26.058 224.391 24.85C224.266 23.8153 224.937 22.7196 225.857 22.4597Z" fill="white" fill-opacity="0.6"/>
<path d="M227.346 27.1367H231.366V27.1476H234.941C235.051 27.1476 235.165 27.1476 235.28 27.158C235.539 27.1819 235.706 27.3612 235.726 27.6375C235.747 27.9137 235.623 28.1137 235.388 28.2041C235.202 28.275 235.015 28.2739 234.848 28.2728H227.58C227.552 28.2728 227.525 28.2728 227.497 28.2728C227.401 28.2728 227.311 28.2728 227.224 28.2793C227.096 28.2919 226.976 28.3548 226.886 28.4565C226.796 28.5583 226.742 28.6923 226.733 28.8345C226.72 29.113 226.945 29.3996 227.214 29.4475C227.342 29.4691 227.472 29.4383 227.58 29.3609C227.689 29.2834 227.768 29.1646 227.803 29.0269C227.813 28.9893 227.821 28.9506 227.829 28.9125C227.846 28.8191 227.872 28.7279 227.905 28.64C227.944 28.5303 228.016 28.4389 228.109 28.3813C228.202 28.3236 228.31 28.3032 228.415 28.3235C228.63 28.3616 228.779 28.536 228.812 28.7899C228.842 29.0273 228.814 29.2694 228.731 29.4906C228.619 29.8131 228.421 30.0901 228.164 30.2848C227.907 30.4795 227.602 30.5825 227.291 30.5803C227.15 30.58 227.009 30.5603 226.873 30.5215C226.177 30.3264 225.643 29.4862 225.73 28.7234C225.841 27.747 226.461 27.1373 227.346 27.1367Z" fill="white" fill-opacity="0.6"/>
<path d="M234.22 25.4238H234.16C233.62 25.4238 233.073 25.4238 232.544 25.4238H231.926C231.694 25.4238 231.461 25.4238 231.228 25.4238C230.999 25.4238 230.766 25.4238 230.532 25.4238C230.24 25.4238 229.947 25.4238 229.657 25.4178C229.096 25.4091 228.613 25.1159 228.332 24.6136C228.051 24.1112 228.03 23.4841 228.27 22.9245C228.55 22.275 229.259 21.8631 229.885 21.9867C230.598 22.1344 231.147 22.7648 231.189 23.4966C231.201 23.7091 231.227 24.1504 230.8 24.2333C230.473 24.2959 230.269 24.0992 230.191 23.6481L230.184 23.6126C230.179 23.5733 230.171 23.5345 230.16 23.4966C230.117 23.3611 230.032 23.2471 229.92 23.1754C229.808 23.1037 229.677 23.079 229.55 23.1059C229.422 23.1353 229.307 23.2145 229.227 23.3292C229.147 23.4439 229.107 23.5865 229.113 23.7314C229.114 23.8695 229.161 24.0024 229.244 24.1051C229.327 24.2078 229.441 24.2733 229.564 24.2894C229.678 24.3033 229.793 24.3084 229.908 24.3046H229.976C231.337 24.3046 232.698 24.3046 234.06 24.3046H234.141C234.358 24.3046 234.856 24.3084 234.86 24.8827C234.864 24.9537 234.855 25.0248 234.833 25.0916C234.812 25.1584 234.778 25.2196 234.734 25.2712C234.592 25.4282 234.385 25.4254 234.22 25.4238Z" fill="white" fill-opacity="0.6"/>
<path d="M79.499 46.6213C80.1256 46.4462 80.3955 46.1738 80.6546 45.4551C81.0789 44.3118 81.7574 43.3068 82.6266 42.5339C83.4958 41.761 84.5274 41.2456 85.6248 41.0357C86.7222 40.8259 87.8496 40.9285 88.9015 41.3341C89.9535 41.7396 90.8956 42.4348 91.6399 43.3546C92.5224 44.4334 93.0853 45.7872 93.2527 47.2328C93.3335 47.9286 93.028 48.4417 92.4556 48.5708C91.9167 48.6922 91.4783 48.3597 91.3108 47.7033C91.2832 47.5938 91.2635 47.4965 91.2438 47.3969C91.2339 47.3466 91.2241 47.2952 91.2133 47.2449C90.6931 44.8205 88.9551 43.197 86.8881 43.197H86.8743C84.4546 43.2047 82.7689 44.698 82.2497 47.293C82.1275 47.9035 81.8389 48.7152 80.7413 48.6441C80.4364 48.6212 80.131 48.6797 79.8506 48.8146C79.5702 48.9496 79.3229 49.1571 79.1295 49.4198C78.5433 50.167 78.43 51.0608 78.7994 51.9973C79.1492 52.8823 79.8162 53.3319 80.7847 53.3319H83.9945C89.2261 53.3319 94.4573 53.3319 99.6881 53.3319C100.012 53.3194 100.337 53.3492 100.655 53.4206C100.882 53.4706 101.085 53.6102 101.226 53.8135C101.367 54.0168 101.438 54.2701 101.424 54.5266C101.395 55.1108 101.039 55.5112 100.497 55.5637C100.283 55.5856 100.074 55.5856 99.8734 55.5845H90.3975H90.0172H87.5295C86.5886 55.5845 85.6339 55.5845 84.6724 55.5845C83.362 55.5845 82.0428 55.5845 80.7364 55.5703C78.5689 55.5528 76.8507 53.8461 76.5561 51.4207C76.3049 49.3432 77.6517 47.1431 79.499 46.6213Z" fill="white" fill-opacity="0.6"/>
<path d="M82.4855 56.0078H90.5574V56.0297H97.7358C97.9565 56.0297 98.185 56.0297 98.4156 56.0505C98.9368 56.0986 99.2717 56.4585 99.3121 57.0132C99.3525 57.5679 99.1052 57.9694 98.6323 58.151C98.2599 58.2932 97.8845 58.291 97.5486 58.2888H82.9555C82.9003 58.2888 82.8441 58.2888 82.788 58.2888C82.5968 58.2888 82.4156 58.2888 82.2402 58.302C81.9834 58.3273 81.7432 58.4534 81.5626 58.6578C81.382 58.8621 81.2729 59.1312 81.255 59.4168C81.2294 59.9758 81.6806 60.5513 82.2215 60.6475C82.4774 60.6909 82.7387 60.629 82.9565 60.4735C83.1742 60.318 83.3332 60.0795 83.4037 59.8029C83.4234 59.7275 83.4392 59.6498 83.456 59.5732C83.4903 59.3858 83.5411 59.2026 83.6077 59.0262C83.6866 58.8058 83.8315 58.6224 84.0179 58.5066C84.2043 58.3909 84.4209 58.3499 84.6313 58.3906C85.0638 58.4672 85.3624 58.8172 85.4294 59.327C85.4902 59.8037 85.4341 60.2898 85.2668 60.7339C85.0419 61.3816 84.6448 61.9378 84.1282 62.3287C83.6117 62.7195 83.0002 62.9265 82.3752 62.922C82.092 62.9214 81.8101 62.8817 81.5358 62.8038C80.1387 62.4122 79.0658 60.7252 79.2402 59.1936C79.4648 57.2331 80.7082 56.0089 82.4855 56.0078Z" fill="white" fill-opacity="0.6"/>
<path d="M96.2896 52.57H96.1694C95.0857 52.57 93.9881 52.57 92.9251 52.57H91.6847C91.2177 52.57 90.7503 52.57 90.2827 52.57C89.8226 52.57 89.3546 52.57 88.8847 52.57C88.2994 52.57 87.7113 52.57 87.128 52.558C86.0019 52.5405 85.0324 51.9519 84.4679 50.9432C83.9034 49.9345 83.862 48.6753 84.3448 47.5518C84.9054 46.2477 86.329 45.4206 87.5861 45.669C89.0187 45.9655 90.1201 47.2312 90.2049 48.7005C90.2295 49.1272 90.2807 50.0133 89.4236 50.1796C88.7674 50.3054 88.3566 49.9105 88.1999 49.0046L88.1871 48.9335C88.1767 48.8545 88.1606 48.7766 88.1389 48.7005C88.053 48.4284 87.8821 48.1996 87.6572 48.0556C87.4323 47.9117 87.1683 47.8621 86.9132 47.9161C86.6563 47.9752 86.4269 48.1341 86.2661 48.3644C86.1054 48.5946 86.0239 48.881 86.0364 49.172C86.0388 49.4493 86.1322 49.716 86.299 49.9223C86.4659 50.1285 86.6948 50.2601 86.9428 50.2923C87.1718 50.3202 87.4022 50.3304 87.6324 50.3229H87.7684C90.5014 50.3229 93.2348 50.3229 95.9684 50.3229H96.132C96.5684 50.3229 97.5674 50.3306 97.5763 51.4837C97.5843 51.6261 97.5659 51.7688 97.5222 51.903C97.4784 52.0372 97.4103 52.1599 97.3221 52.2637C97.0364 52.5788 96.6216 52.5733 96.2896 52.57Z" fill="white" fill-opacity="0.6"/>
<path d="M349.316 36.1054C345.122 33.2114 343.567 33.2808 340.781 36.4866C340.461 35.2463 340.039 34.0425 339.519 32.8909C338.981 31.7433 338.235 30.7355 337.33 29.9326C336.425 29.1297 335.38 28.5494 334.263 28.2294C332.245 27.6087 330.186 27.1741 328.106 26.9297C329.507 31.6308 332.162 35.7307 335.71 38.6701C333.147 38.8557 330.576 38.8557 328.014 38.6701C325.62 38.4448 325.62 38.4275 326.297 41.0268C326.89 43.3403 326.89 43.3229 328.929 43.5135C331.238 43.7302 333.485 43.6782 335.979 43.7042L332.554 48.7469C335.91 49.6133 342.151 47.3779 343.706 42.4998C344.469 40.3464 345.778 38.4933 347.469 37.1711C348.06 36.764 348.678 36.4077 349.316 36.1054Z" fill="#66101F"/>
<path d="M332.209 66.1054C327.853 63.2114 326.239 63.2808 323.346 66.4866C323.013 65.2463 322.574 64.0425 322.035 62.8909C321.476 61.7433 320.702 60.7355 319.762 59.9326C318.821 59.1296 317.736 58.5494 316.576 58.2294C314.481 57.6087 312.343 57.1741 310.183 56.9297C311.638 61.6308 314.395 65.7307 318.079 68.6701C315.418 68.8557 312.748 68.8557 310.087 68.6701C307.601 68.4448 307.601 68.4275 308.305 71.0268C308.92 73.3402 308.92 73.3229 311.038 73.5135C313.435 73.7302 315.769 73.6782 318.359 73.7042L314.802 78.7469C318.287 79.6133 324.768 77.3779 326.383 72.4998C327.175 70.3464 328.534 68.4933 330.291 67.1711C330.905 66.764 331.546 66.4077 332.209 66.1054Z" fill="#66101F"/>
<path opacity="0.5" d="M-58.5328 287.031C-45.3741 280.27 -31.6324 274.554 -17.4524 269.943C-0.655884 264.319 15.9382 258.431 31.227 249.504C46.1111 240.785 61.7035 233.486 79.4207 231.195C80.6653 231.034 80.9081 230.352 80.9486 229.235C81.2825 220.658 81.6165 212.09 82.1021 203.523C83.3871 180.973 83.3264 158.394 84.1258 135.844C84.1258 134.632 83.802 134.386 82.6384 134.424C80.6147 134.49 79.2893 135.664 77.8929 136.743C76.2681 138.133 74.1978 138.982 72.004 139.157C60.206 139.788 48.4012 140.445 36.5898 141.126C35.3088 141.137 34.0322 140.984 32.7954 140.672C32.4771 140.653 32.1734 140.54 31.928 140.35C31.6825 140.159 31.508 139.901 31.4294 139.612C31.2473 138.864 31.8443 138.495 32.4413 138.229C33.6568 137.651 34.9551 137.24 36.2963 137.008C50.2698 134.623 64.0916 131.546 78.0043 128.867C80.5136 128.384 82.173 126.472 84.7127 126.15C86.3823 125.932 88.7601 127.04 89.5291 125.648C90.2981 124.256 89.5999 122.297 89.5291 120.583C89.4583 118.87 89.4076 116.976 89.3064 115.178C89.2704 114.064 89.5349 112.961 90.0754 111.968C93.6876 104.726 97.1582 97.4365 100.932 90.2511C103.199 85.8963 104.98 81.2765 108.339 77.4613C109.199 76.4673 110.454 75.691 111.668 76.3915C112.882 77.0921 111.83 78.2849 111.496 79.118C105.02 94.9183 100.578 111.372 93.9608 127.125C92.3925 130.864 93.546 132.966 97.6743 134.074C101.246 135.02 104.555 136.26 106.781 139.28C114.754 150.009 122.748 160.739 130.761 171.468C131.54 172.509 132.552 173.778 131.136 174.895C129.719 176.012 128.201 175.595 126.866 174.592C126.296 174.159 125.771 173.677 125.297 173.153C116.299 163.427 107.307 153.702 98.3218 143.976C95.5292 140.946 92.3217 138.22 90.6624 134.348C90.5409 136.099 90.7736 137.709 90.7939 139.318C90.9861 168.59 91.8764 197.843 92.4431 227.114C92.4431 229.008 92.9692 229.339 94.8917 229.197C102.835 228.591 110.798 228.25 118.741 227.645C126.38 227.048 133.989 226.262 141.365 224.104C151.281 221.207 160.327 216.313 170.193 213.321C170.495 213.253 170.761 213.087 170.946 212.854C171.131 212.62 171.223 212.333 171.204 212.043C171.356 209.818 171.629 207.603 171.72 205.416C172.152 195.318 172.56 185.201 172.945 175.065C173.724 154.569 174.371 134.064 174.493 113.53C174.493 112.082 174.877 110.17 173.481 109.488C172.085 108.806 170.445 110.094 169.434 111.107C165.305 115.092 160.003 115.632 154.549 115.84C141.922 116.37 129.254 116.863 116.646 117.402C115.058 117.478 113.307 117.251 112.993 115.812C112.619 114.136 114.562 113.72 115.908 113.379C119.328 112.508 122.768 111.713 126.238 111.04C137.905 108.768 149.318 105.417 161.157 103.902C165.204 103.391 169.009 102.861 172.287 100.229C173.572 99.1879 175.464 99.0269 177.215 98.9417C181.859 98.7429 181.96 98.724 180.706 94.3503C179.228 89.1813 178.884 84.2396 181.717 79.2032C186.777 70.2475 191.552 61.1214 196.48 52.0805C198.838 47.773 201.276 43.494 203.684 39.2149C204.534 37.7002 206.042 36.621 207.671 37.2269C209.482 37.8896 208.531 39.5557 208.086 40.8243C203.027 55.0815 197.967 69.3387 192.908 83.6243C190.541 90.3931 185.441 96.5655 186.979 104.451C187.293 106.07 187.495 107.225 189.245 107.737C190.46 108.096 191.643 108.551 192.878 108.825C197.638 109.881 201.793 112.588 204.504 116.399C213.651 128.668 222.808 140.928 231.975 153.178C232.998 154.404 233.492 155.944 233.361 157.495C233.129 159.388 232.066 159.852 230.407 158.735C229.136 157.899 227.957 156.947 226.886 155.895C213.53 142.338 200.325 128.649 187.758 114.439C186.372 112.858 185.077 111.201 183.711 109.583L182.921 109.762C182.921 142.717 184.469 175.643 185.046 208.805C198.006 205.217 211.323 202.876 224.791 201.819C226.542 201.309 228.371 201.069 230.204 201.109C243.035 200.995 255.622 202.765 268.098 205.35C271.953 206.155 272.368 205.861 272.56 202.131C272.56 201.705 272.56 201.279 272.56 200.844C272.378 195.523 273.369 190.231 273.187 184.901C273.1 183.244 273.533 181.599 274.432 180.168C274.695 171.597 274.961 163.023 275.231 154.446C275.939 133.098 276.638 111.75 276.789 90.3836C276.841 89.6139 276.79 88.8411 276.638 88.0832C276.111 86.0667 274.907 85.5934 273.046 86.7105C271.301 87.6463 269.667 88.7505 268.169 90.005C265.001 92.9586 261.167 93.5835 256.917 93.7917C246.03 94.3976 235.122 94.5775 224.235 95.1076C217.587 95.42 210.899 96.3857 204.2 95.439C202.49 95.2023 200.021 95.2023 199.93 93.432C199.839 91.6617 202.42 91.5386 203.978 91.2167C212.7 89.4559 221.442 87.7518 230.194 86.1614C240.647 84.268 250.846 81.1913 261.46 80.1783C266.195 79.7333 270.567 78.976 274.27 75.8519C275.428 75.0219 276.859 74.5936 278.317 74.6401C279.501 74.6401 280.695 74.4887 281.879 74.4603C285.471 74.3845 285.572 74.2804 284.702 71.1658C284.307 69.7647 283.862 68.3257 283.508 66.9719C282.496 62.7118 281.586 58.5937 283.781 54.2484C290.793 40.4078 297.947 26.6523 305.495 13.0484C307.511 9.22289 309.913 5.58677 312.669 2.18979C313.398 1.33777 314.217 0.589885 315.452 1.09163C316.686 1.59338 316.565 2.84301 316.322 3.7897C315.937 5.26654 315.249 6.62978 314.723 8.11609C306.76 29.89 299.546 51.9006 290.55 73.3242C289.953 74.7632 289.468 76.1643 290.834 77.6412C291.152 78.0213 291.339 78.4831 291.37 78.9651C291.4 79.4471 291.273 79.9264 291.006 80.3392C289.073 82.7438 291.168 83.1793 292.786 83.7568C293.882 84.1701 295.017 84.487 296.176 84.7035C302.531 85.9058 307.144 89.2476 310.767 94.2461C318.335 104.717 326.167 115.026 333.837 125.43C336.994 129.719 340.009 134.092 343.065 138.447C343.955 139.716 344.633 141.287 343.216 142.395C341.8 143.503 340.667 142.262 339.584 141.514C337.465 140.009 335.522 138.298 333.786 136.412C324.356 126.585 314.855 116.825 305.455 106.941C299.1 100.229 292.24 93.8864 287.242 86.1141C285.926 86.8903 285.957 88.1684 285.987 89.4843C286.402 108.958 286.624 128.431 287.282 147.905C287.596 157.163 287.282 166.441 288.294 175.671C288.607 176.045 288.834 176.475 288.963 176.934C289.092 177.393 289.119 177.872 289.043 178.341C288.881 187.173 290.055 195.978 289.62 204.848C289.62 205.7 289.619 206.562 289.7 207.423C289.822 209.733 290.935 211.04 293.424 211.835C311.202 217.515 327.826 225.382 343.904 234.47C351.665 238.853 359.173 243.7 367.733 246.72C377.896 250.178 388.285 253.024 398.837 255.241C417.957 259.441 436.441 265.859 453.861 274.345C464.62 279.608 475.099 285.289 485.298 291.385L485.389 291.063C486.745 292.01 488.314 293.118 490.064 294.273C491.814 295.428 493.798 296.583 495.649 297.766C497.349 298.779 499.15 299.811 501.093 300.862C505.93 303.465 520.54 311.342 536.426 314.324C549.408 316.766 550.673 313.576 578.296 311.881C590.974 311.095 585.642 312.08 631.923 311.881C647.425 311.805 653.526 311.673 663.29 313.102C680.663 315.63 690.61 320.288 693.382 321.67C700.162 324.934 706.428 329.06 712 333.93H472.539L472.61 333.693C297.191 333.693 121.766 333.693 -53.6659 333.693C-54.7587 333.693 -55.8616 333.693 -56.9645 333.693C-58.0685 333.753 -59.1549 333.414 -60 332.746V287.428C-59.4232 287.646 -59.0186 287.277 -58.5328 287.031Z" fill="#171A17"/>
</svg>
