<svg width="720" height="674" viewBox="0 0 720 674" fill="none" xmlns="http://www.w3.org/2000/svg">
<path d="M0.136372 479.935C1.89572 432.951 1.07887 385.841 1.11029 338.794C1.11029 272.709 29.1028 220.721 81.3177 182.234C99.9479 168.513 111.038 152.716 119.364 131.096C150.435 50.3455 211.101 6.28828 296.744 0.434966C377.736 -5.07219 453.451 42.1635 486.659 116.683C495.11 135.565 505.006 143.589 526.621 144.03C577.669 145.204 626.259 166.219 662.118 202.631C697.976 239.043 718.291 287.997 718.767 339.141C719.395 384.11 717.573 429.206 719.395 474.207C719.822 480.148 719.129 486.115 717.353 491.799C716.957 501.984 712.602 511.61 705.217 518.622C697.832 525.635 688.003 529.477 677.829 529.329C667.654 529.181 657.94 525.055 650.762 517.831C643.583 510.607 639.509 500.858 639.408 490.666V484.624C638.951 481.309 638.783 477.961 638.905 474.617C640.162 431.598 639.094 388.548 639.219 345.592C639.219 326.364 637.272 307.829 628.443 290.174C601.519 236.676 547.576 212.098 487.256 226.228C437.554 237.872 400.702 285.643 400.231 342.036C399.445 432.133 400.042 522.23 399.822 612.327C399.822 618.023 399.822 622.775 399.477 626.929V635.016C399.31 645.193 395.183 654.902 387.975 662.077C380.767 669.251 371.047 673.322 360.887 673.425C350.726 673.528 340.927 669.653 333.576 662.626C326.225 655.599 321.903 645.974 321.532 635.803C320.405 628.116 319.974 620.343 320.243 612.579C320.076 486.449 320.076 360.309 320.243 234.159C320.243 224.151 320.023 214.144 319.238 204.168C318.641 196.49 314.651 190.322 306.231 190.605C297.812 190.888 294.356 197.308 293.665 204.955C293.036 213.924 292.816 222.924 292.816 231.924C292.816 312.014 291.528 392.135 293.382 472.193C293.721 478.272 292.998 484.364 291.246 490.194C290.297 499.431 285.962 507.986 279.079 514.206C272.196 520.426 263.255 523.868 253.985 523.866H250.843C241.21 523.826 231.963 520.069 225.024 513.376C218.084 506.683 213.987 497.569 213.583 487.928C212.334 482.674 211.796 477.276 211.981 471.879C213.646 385.81 212.389 299.709 212.578 213.609C212.578 158.884 237.051 123.071 282.072 110.452C325.05 98.4308 362.751 116.746 390.869 163.636C395.456 171.283 398.157 181.321 410.598 174.272C420.652 168.608 421.06 160.898 416.662 151.394C404.504 125.085 386.973 104.19 360.111 91.8537C275.034 52.7057 186.847 108.029 185.308 203.287C183.8 292.388 183.852 381.478 185.465 470.557C185.72 476.673 185.063 482.793 183.517 488.715V493.687C183.526 502.509 180.304 511.028 174.461 517.629C168.618 524.23 160.561 528.455 151.816 529.502C143.07 530.55 134.246 528.347 127.014 523.312C119.782 518.277 114.645 510.759 112.578 502.184C106.011 497.747 105.289 488.872 105.226 469.896C104.943 405.887 105.226 341.91 105.226 268.901C81.7889 299.237 78.2074 326.679 77.7362 354.592C77.2021 383.985 77.2021 413.377 77.2963 442.707C80.138 448.224 81.6244 454.341 81.6319 460.55V502.593C81.6319 512.951 77.5242 522.884 70.2124 530.208C62.9007 537.532 52.9838 541.646 42.6435 541.646C32.3031 541.646 22.3863 537.532 15.0745 530.208C7.76277 522.884 3.65505 512.951 3.65505 502.593V498.156C0.78838 492.537 -0.431545 486.219 0.136372 479.935Z" fill="#0D3B66" fill-opacity="0.1"/>
<path d="M428.004 340.214C428.522 315.974 438.533 292.906 455.882 275.971C473.232 259.037 496.533 249.589 520.775 249.661C568.528 249.158 610.026 289.31 611.126 338.862C612.163 384.737 610.151 430.705 611.849 476.548C612.363 482.856 611.282 489.192 608.705 494.973C607.052 502.913 602.767 510.063 596.544 515.263C590.321 520.463 582.525 523.409 574.418 523.623C566.312 523.838 558.37 521.309 551.881 516.446C545.391 511.582 540.734 504.67 538.663 496.828C535.739 492.238 534.262 485.635 534.765 475.95C536.682 440.138 535.771 404.136 534.985 368.198C534.67 354.426 540.706 332.134 520.146 332.102C501.284 332.102 508.043 353.735 507.571 366.374C506.848 388.384 507.037 410.393 507.163 432.403C507.326 433.823 507.41 435.25 507.414 436.679V478.592C507.417 486.635 504.933 494.483 500.304 501.061C495.676 507.638 489.127 512.625 481.556 515.337C473.985 518.049 465.76 518.355 458.009 516.213C450.257 514.07 443.357 509.584 438.252 503.368C430.77 499.595 427.375 492.615 427.626 480.918C428.161 456.991 427.784 433.032 427.626 409.073C427.909 386.12 427.375 363.136 428.004 340.214Z" fill="#0D3B66" fill-opacity="0.1"/>
</svg>
