<svg width="39" height="30" viewBox="0 0 39 30" fill="none" xmlns="http://www.w3.org/2000/svg">
<path d="M19.6211 0.788086C21.0776 0.282449 22.6323 0.130746 24.1562 0.34375L24.4609 0.390625C25.98 0.65227 27.4137 1.27125 28.6445 2.19434L28.8877 2.38379C30.1713 3.41165 31.1732 4.74818 31.7998 6.26855L31.8008 6.26758C32.0029 6.77205 32.2202 7.14985 32.5303 7.43164C32.8425 7.71528 33.2256 7.88227 33.7207 8.00684V8.00586C36.3135 8.66562 38.2325 11.393 38.0195 14.0234L37.9922 14.2773C37.5756 17.3664 35.2152 19.5582 32.1992 19.7129L31.9053 19.7217C29.9278 19.7411 27.9304 19.7412 25.9453 19.7412H2.91895C2.69041 19.7423 2.46139 19.7425 2.23047 19.7305L1.99805 19.7139H1.99707C1.63765 19.6825 1.35509 19.5493 1.15918 19.3516C0.988247 19.179 0.872472 18.9459 0.833008 18.6602L0.820312 18.5342V18.5332L0.819336 18.4248C0.826019 18.2088 0.890625 17.9986 1.00684 17.8164L1.06836 17.7275C1.22345 17.5268 1.4381 17.3817 1.67969 17.3105L1.78516 17.2842H1.78613C2.13282 17.2141 2.48475 17.1745 2.83789 17.166L3.19141 17.168H31.834C32.6021 17.168 33.2696 17.0079 33.8193 16.6748C34.3018 16.3824 34.6811 15.9645 34.958 15.4326L35.0703 15.1982C35.6297 13.9213 35.5045 12.678 34.7002 11.625L34.5303 11.417C34.2127 11.0307 33.8075 10.7252 33.3486 10.5264C32.945 10.3515 32.5098 10.2632 32.0713 10.2666L31.8857 10.2734C31.1189 10.3182 30.6704 10.0875 30.3877 9.78125C30.1671 9.54211 30.0307 9.23953 29.9385 8.93262L29.8594 8.62598C29.4557 6.80896 28.5936 5.36099 27.3477 4.36719C26.1798 3.43584 24.6902 2.91538 22.96 2.84961L22.6113 2.84277H22.5889C19.4311 2.84294 16.7767 5.0083 15.876 8.24023L15.7949 8.55664L15.7471 8.76855C15.7174 8.90356 15.689 9.03028 15.6494 9.17188C15.5349 9.5759 15.3343 9.85857 15.0928 10.0234C14.8839 10.1659 14.628 10.2323 14.334 10.1992L14.2061 10.1787C13.8299 10.1023 13.5577 9.91704 13.3896 9.66309C13.2415 9.43913 13.1622 9.1437 13.1816 8.78711L13.1963 8.62988C13.4278 6.82883 14.1727 5.13511 15.3379 3.74902L15.5762 3.47559L15.5771 3.47461C16.6075 2.32784 17.8951 1.444 19.332 0.893555L19.6211 0.788086Z" fill="#66101F" stroke="#F1EFEE" stroke-width="0.5"/>
<path d="M29.2598 20.8164C30.5529 20.8171 31.636 21.2174 32.4346 21.9238C33.1833 22.5863 33.6965 23.5315 33.8926 24.7061L33.9277 24.9434C34.0505 25.9144 33.7351 26.9508 33.126 27.8135C32.5551 28.6219 31.739 29.2601 30.8223 29.543L30.6377 29.5947H30.6367C30.3402 29.6706 30.0374 29.7188 29.7324 29.7383L29.4268 29.748H29.4258C28.6417 29.7531 27.8724 29.5493 27.1963 29.1602L26.9131 28.9824C26.2652 28.541 25.7481 27.9358 25.4131 27.2314L25.2803 26.9238L25.2783 26.917L25.1963 26.7031C25.0243 26.1987 24.9738 25.6597 25.0488 25.1299C25.1305 24.5714 25.4648 24.1982 25.9502 24.083L26.0488 24.0635H26.0527C26.3149 24.0178 26.5851 24.0635 26.8174 24.1934C27.0204 24.307 27.1835 24.4789 27.2871 24.6855L27.3281 24.7764L27.3301 24.7803C27.4009 24.9492 27.4587 25.1234 27.5039 25.3008L27.5449 25.4795L27.5469 25.4893C27.5709 25.5882 27.597 25.7036 27.6289 25.8135V25.8125C27.737 26.1935 27.9635 26.5286 28.2734 26.7705L28.4111 26.8682C28.7444 27.0826 29.1366 27.1839 29.5293 27.1602L29.6982 27.1426H29.6992C30.1736 27.0665 30.6004 26.8035 30.9023 26.457C31.1659 26.1547 31.3474 25.7741 31.373 25.376L31.374 25.2041L31.373 25.1992L31.3545 25.0322C31.2927 24.6462 31.1127 24.2869 30.8369 24.0059C30.5611 23.7248 30.2052 23.5377 29.8203 23.4688L29.6543 23.4473L29.6484 23.4463L29.2295 23.4307C29.0884 23.4284 28.9455 23.4277 28.8018 23.4277H6.44238C5.92869 23.4307 5.4009 23.4321 4.88281 23.2539H4.88379C4.56715 23.1444 4.34297 22.9747 4.20312 22.7656C4.08115 22.5832 4.0128 22.3552 4.01562 22.0791L4.02148 21.958C4.04781 21.6326 4.16759 21.3802 4.35156 21.2021C4.51336 21.0457 4.73807 20.9335 5.02441 20.8887L5.15039 20.874C5.48788 20.8466 5.82435 20.8467 6.16016 20.8467H17.2832V20.8164H29.2598Z" fill="#66101F" stroke="#F1EFEE" stroke-width="0.5"/>
<path d="M21.5801 6.70703C23.3145 6.3989 25.2907 7.39279 26.1416 8.98242L26.2197 9.13867C26.8734 10.5088 26.8589 12.0243 26.1895 13.2783L26.0469 13.5254C25.29 14.7432 24.0233 15.4893 22.5283 15.5967L22.2266 15.6094H22.2246C21.344 15.6257 20.4551 15.626 19.5684 15.626H8.34961C7.82524 15.6306 7.31322 15.6255 6.9668 15.2842C6.88548 15.1975 6.8181 15.0988 6.7666 14.9922L6.7207 14.8809C6.66621 14.7302 6.64239 14.5701 6.65234 14.4102L6.40332 14.3945L6.65332 14.4102V14.3965C6.65632 14.0448 6.74239 13.8003 6.86328 13.626C6.98486 13.4507 7.15466 13.3278 7.35352 13.2422C7.76196 13.0664 8.25465 13.0605 8.59082 13.0605H21.458L21.7285 13.0645C21.9087 13.0635 22.0888 13.0554 22.2686 13.042L22.5371 13.0176H22.5391C22.975 12.9666 23.3775 12.7581 23.6709 12.4316C23.9624 12.1072 24.1256 11.6879 24.1318 11.252L24.1328 11.2529C24.1546 10.7965 24.0124 10.3475 23.7324 9.98633C23.4875 9.67045 23.1514 9.43999 22.7715 9.3252L22.6055 9.2832L22.6016 9.28223L22.4346 9.25781C22.0985 9.22447 21.7596 9.28193 21.4531 9.42383L21.3037 9.50098C20.9601 9.69905 20.6882 9.99977 20.5254 10.3584L20.4629 10.5146L20.46 10.5225C20.4415 10.5807 20.4258 10.6397 20.4121 10.6992L20.3799 10.8662L20.3604 10.9639V10.9658C20.247 11.5559 20.0491 11.9365 19.7998 12.1523C19.5598 12.3599 19.2366 12.4454 18.7949 12.3691H18.7959C18.5102 12.3192 18.3151 12.2182 18.1797 12.0986C18.0439 11.9786 17.9545 11.8274 17.8965 11.6582C17.8069 11.3966 17.7969 11.1073 17.8057 10.8535L17.8184 10.6133C17.9385 8.74009 19.5068 7.09481 21.5811 6.70801L21.5801 6.70703Z" fill="#66101F" stroke="#F1EFEE" stroke-width="0.5"/>
</svg>
