<svg width="31" height="30" viewBox="0 0 31 30" fill="none" xmlns="http://www.w3.org/2000/svg">
<path d="M8.78223 10.4434C10.2814 5.68671 15.2934 3.07757 20.2305 4.25293L20.708 4.37793C22.6099 4.92576 24.3352 5.76786 25.8125 7.0332L26.1045 7.29199L26.1055 7.29297C27.9184 8.93799 29.2246 11.0657 29.8711 13.4268L29.9219 13.6113H29.9443C29.9848 13.7815 30.0324 13.9903 30.0791 14.2295V14.2305L30.1396 14.5645C30.14 14.5675 30.1392 14.5712 30.1396 14.5742L30.1406 14.583L30.1436 14.5928C30.164 14.6787 30.1725 14.7672 30.1689 14.8555L30.168 14.8652L30.1689 14.875C30.1781 15.1259 30.1229 15.3742 30.0127 15.5996C29.8898 15.8014 29.6532 15.9537 29.3428 16.0322C29.0694 16.1013 28.7649 16.1074 28.4941 16.0537L28.3809 16.0264C28.1146 15.9539 27.8589 15.8121 27.6572 15.6377C27.4528 15.4609 27.3224 15.2668 27.2764 15.1025H27.2754L27.2197 14.877L27.2139 14.8535L27.2031 14.8311L27.1641 14.7266C26.1768 10.7917 23.68 8.30956 19.792 7.23633H19.793C18.3468 6.81558 16.8085 6.84853 15.3857 7.32812L15.1025 7.43066C12.4517 8.44789 10.8983 11.208 11.2305 14.1104L11.2461 14.248V14.2656L11.248 14.2822L11.2891 14.5439L11.3477 14.833V14.8477L11.3613 14.8867L11.4492 15.1025V15.1035C11.4757 15.1595 11.5021 15.2072 11.5244 15.2471C11.5481 15.2893 11.5642 15.3171 11.5781 15.3447C11.6017 15.3916 11.6084 15.419 11.6084 15.4541V15.458C11.6099 15.5446 11.5696 15.6367 11.502 15.7266C11.4373 15.8125 11.3653 15.8741 11.334 15.9004C11.0997 16.0948 10.7032 16.1893 10.2627 16.1445C9.88124 16.1057 9.50378 15.9658 9.22266 15.7422L9.1084 15.6406C8.88101 15.3893 8.70184 15.0987 8.58008 14.7832L8.53125 14.6455C8.52718 14.633 8.52438 14.62 8.52051 14.6074H8.52148L8.4668 14.3115C8.25569 13.1711 8.34718 12.0463 8.64355 10.9238L8.78223 10.4434Z" fill="#66101F" stroke="#F1EFEE" stroke-width="0.5"/>
<path d="M2.23438 13.5205L2.23828 13.5215C2.37443 13.5326 2.5075 13.5661 2.63184 13.6211L2.75293 13.6836C2.8711 13.7526 2.977 13.8407 3.06543 13.9443L3.14746 14.0527C3.17668 14.1015 3.19095 14.1394 3.2207 14.2314C3.23712 14.2822 3.25739 14.3449 3.28516 14.4258L3.39746 14.7314C3.43952 14.8398 3.48106 14.9396 3.51953 15.0303H3.44043L3.66992 15.4092C3.68812 15.4393 3.70327 15.4712 3.71582 15.5039L3.74414 15.6045L3.74609 15.6123C4.20508 17.6349 5.25296 19.2989 6.75098 20.6582L7.05664 20.9268C8.84302 22.4419 10.8927 23.264 13.2236 23.2969L13.6943 23.292C17.5726 23.1719 20.5013 19.3839 19.6348 15.5898L19.6328 15.582L19.6309 15.5752L19.5918 15.4033C19.5826 15.3458 19.577 15.2878 19.5752 15.2295L19.5742 15.2021L19.5674 15.1758L19.5342 15.0264L19.5088 14.876C19.4815 14.6755 19.5055 14.4712 19.5801 14.2832C19.6736 14.0858 19.8256 13.9227 20.0137 13.8145L20.0977 13.7715L20.0996 13.7705C20.4664 13.5968 20.8458 13.6907 21.0762 13.7803L21.251 13.8584C21.8436 14.1535 22.1051 14.7633 22.3184 15.2793V15.2803L22.3379 15.3281L22.3457 15.3496L22.3584 15.3691C22.3733 15.393 22.3865 15.4179 22.3984 15.4434L22.4297 15.5225L22.4307 15.5234C22.7007 16.3371 22.7198 17.1767 22.6025 18.0156L22.5439 18.375C22.2002 20.2516 21.4984 21.8153 20.4346 23.0498C19.4377 24.2065 18.1135 25.0858 16.4424 25.6611L16.1035 25.7715C14.2821 26.3414 12.4214 26.3211 10.5811 25.8643L10.2129 25.7666L9.73926 25.627C7.40063 24.9018 5.51341 23.7607 4.06543 22.2158C2.6173 20.6707 1.5981 18.7111 1.01074 16.335L0.899414 15.8545L0.862305 15.6836L0.858398 15.6641L0.851562 15.6465L0.798828 15.4775C0.734797 15.2238 0.666919 14.7308 0.926758 14.2695L1.00586 14.1445L1.00977 14.1387L1.0127 14.1357C1.01415 14.1337 1.01604 14.1304 1.01855 14.127C1.02357 14.1201 1.0304 14.1106 1.03906 14.0996C1.05659 14.0773 1.08128 14.0476 1.1123 14.0137C1.17481 13.9452 1.26215 13.8602 1.37109 13.7803C1.56249 13.6399 1.81052 13.521 2.10547 13.5156L2.23438 13.5205Z" fill="#66101F" stroke="#F1EFEE" stroke-width="0.5"/>
<path d="M16.3076 8.02148C17.1452 7.84668 17.985 7.89664 18.8359 8.03809L19.2012 8.10449C23.097 8.85659 25.9335 11.8263 26.3721 15.665L26.4072 16.0391V16.04C26.6898 19.8573 25.5299 23.1828 22.9092 25.9453L22.6504 26.2109L22.6494 26.2119C21.4783 27.4004 20.0737 28.3311 18.5254 28.9463L18.2139 29.0654L18.2051 29.0693C17.91 29.1914 17.6085 29.298 17.3027 29.3896L16.9961 29.4766H16.9951C16.623 29.5747 16.2454 29.6498 15.8643 29.7012L15.4863 29.7441C14.8245 29.7935 14.2752 29.5716 13.9023 29.249C13.5699 28.9613 13.3941 28.6104 13.376 28.3125L13.3779 28.1885C13.4031 27.935 13.5685 27.648 13.8701 27.4082C14.1688 27.1709 14.5845 26.9941 15.0674 26.957V26.958L15.0781 26.9561C15.3854 26.9193 15.6905 26.8665 15.9922 26.7979L16.293 26.7236L16.2998 26.7227C17.8775 26.2599 19.2435 25.4304 20.4492 24.3291L20.6885 24.1055C22.268 22.592 23.1015 20.7333 23.4443 18.6494L23.5068 18.2295C23.69 16.8419 23.5859 15.4769 22.9434 14.21L22.8076 13.958C21.9415 12.4369 20.6089 11.4814 18.9238 11.0449H18.9229C18.0341 10.8044 17.1041 10.77 16.2031 10.9424L15.8252 11.0273C15.8121 11.0304 15.7998 11.0338 15.791 11.0361C15.7812 11.0387 15.7756 11.0398 15.7705 11.041H15.7402L15.7031 11.0527C15.6655 11.0644 15.6274 11.0746 15.5889 11.083L15.4727 11.1025L15.4619 11.1045C15.2341 11.1449 14.9999 11.1186 14.7861 11.0303C14.5354 10.9049 14.4063 10.6516 14.3369 10.4541L14.2852 10.2812C14.1893 9.87989 14.2462 9.45727 14.4453 9.0957C14.7808 8.49114 15.42 8.28169 15.9463 8.11621L15.9453 8.11523L16.0322 8.0918V8.09277L16.041 8.08984C16.0843 8.07624 16.1279 8.06394 16.1719 8.05273L16.3057 8.02246L16.3076 8.02148Z" fill="#66101F" stroke="#F1EFEE" stroke-width="0.5"/>
<path d="M15.3574 0.257812C15.6083 0.230708 15.9872 0.264333 16.3496 0.402344C16.665 0.522464 16.9506 0.714801 17.1357 1L17.208 1.12793C17.4549 1.62306 17.4089 2.29776 17.0752 2.66504C16.9264 2.81048 16.7507 2.92465 16.5586 3.00098L16.3604 3.06445C16.2629 3.08844 16.202 3.09343 16.1045 3.09961C16.0525 3.10291 15.9937 3.10675 15.9209 3.11426L15.6514 3.15137H15.6484C15.557 3.16786 15.4731 3.18551 15.3926 3.2041L15.3516 3.21289L15.3154 3.23535C15.2906 3.25099 15.2643 3.26425 15.2373 3.27539L15.1533 3.30176L15.1475 3.30371C14.8213 3.38528 14.4993 3.4823 14.1826 3.59473L13.8672 3.71289H13.8662C12.4697 4.26696 11.2141 5.12225 10.1875 6.21582L9.98828 6.43359C8.65804 7.87821 7.78605 9.68493 7.48242 11.625C7.31999 12.5192 7.31109 13.4336 7.45508 14.3291L7.52637 14.7109L7.52734 14.7158C7.83036 16.0381 8.56429 17.2195 9.61035 18.0752L9.82422 18.2412C10.9116 19.0529 12.2363 19.4776 13.5879 19.4521L13.8584 19.4414L13.8643 19.4404C13.9863 19.4299 14.0995 19.4166 14.1992 19.4033L14.4541 19.3652L15.377 19.1816H15.3789C15.5249 19.1514 15.6304 19.1288 15.7061 19.1133C15.7433 19.1056 15.7704 19.1001 15.7891 19.0967C15.7938 19.0958 15.7979 19.0952 15.8008 19.0947L15.8164 19.0928C16.184 19.0459 16.4931 19.0137 16.7598 19.1553C16.8749 19.2221 16.9757 19.3104 17.0566 19.415L17.1309 19.5264C17.1985 19.6425 17.2434 19.7701 17.2617 19.9023L17.2715 20.0352C17.2709 20.3712 17.0732 20.5879 16.6191 21.042C16.2079 21.4387 15.7254 21.7546 15.1973 21.9727L15.1836 21.9775L15.1719 21.9854C15.0933 22.029 15.0103 22.065 14.9248 22.0928L14.918 22.0947L14.9111 22.0977L14.7637 22.1494L14.7568 22.1523C14.7073 22.1705 14.6591 22.1849 14.6143 22.2002L14.4482 22.2373C13.9033 22.3584 13.3449 22.3525 12.7734 22.2959L12.1982 22.2256C9.29355 21.8139 7.17749 20.3007 5.71484 17.8525L5.43066 17.3506C4.37188 15.3459 4.2243 13.223 4.63672 11.0342L4.72656 10.5947C5.4551 7.28836 7.26696 4.6886 9.875 2.65918L10.4072 2.26074C11.5012 1.47495 12.7268 0.894373 14.0244 0.544922L14.585 0.40918L14.5898 0.408203C14.891 0.337247 15.2038 0.275967 15.3584 0.258789L15.3574 0.257812Z" fill="#66101F" stroke="#F1EFEE" stroke-width="0.5"/>
</svg>
