<svg width="33" height="30" viewBox="0 0 33 30" fill="none" xmlns="http://www.w3.org/2000/svg">
<path d="M24.4287 21.6992L24.4209 21.668C24.3737 21.4892 24.3468 21.3055 24.3408 21.1211L24.3418 20.9355V20.9297C24.3953 17.9546 24.4097 14.9795 24.3857 12.0049L24.3496 9.03027C24.3122 6.83196 23.2709 5.07779 21.7314 4.10352C20.2885 3.19038 18.4238 2.97278 16.5752 3.69336L16.2051 3.85059C15.0211 4.39529 14.2262 5.29014 13.6709 6.39746L13.5635 6.62109C13.4561 6.85227 13.3871 7.1038 13.4395 7.35156C13.4944 7.61156 13.6706 7.81162 13.9365 7.95996V7.96094C14.0977 8.05198 14.2555 8.10473 14.4102 8.09961C14.5729 8.09414 14.7018 8.02656 14.7998 7.93652C14.8916 7.85211 14.9582 7.7458 15.0098 7.65625C15.0361 7.61051 15.0619 7.56294 15.085 7.52051L15.1533 7.39941C15.761 6.38829 16.4613 5.70419 17.2217 5.33398C17.8834 5.0119 18.6062 4.91906 19.3818 5.07031L19.7168 5.15039C20.6694 5.41701 21.3921 5.92402 21.8789 6.64258C22.3674 7.36387 22.6318 8.31818 22.6318 9.49902V9.5C22.6383 12.845 22.5962 16.2021 22.6348 19.5557L22.6562 20.9932L22.6572 20.999C22.666 21.2154 22.6439 21.4321 22.5928 21.6426L22.5869 21.666L22.5859 21.6904C22.5714 22.0094 22.4501 22.313 22.2432 22.5527L22.1494 22.6514C21.8857 22.9035 21.5347 23.0437 21.1699 23.0439H21.0342L20.9033 23.0381C20.5994 23.0102 20.3113 22.8847 20.083 22.6787C19.8222 22.4434 19.6579 22.1199 19.6221 21.7705L19.6191 21.7471L19.6133 21.7246L19.5684 21.5488C19.5441 21.4308 19.5302 21.3109 19.5264 21.1904L19.5283 21.0098V21.002C19.6104 17.4413 19.5537 13.8692 19.5537 10.3115C19.5537 10.1094 19.5511 9.90642 19.5449 9.70312L19.5146 9.09375C19.5009 8.89613 19.448 8.68572 19.3193 8.51758C19.1998 8.36159 19.0286 8.26091 18.8145 8.23242L18.7207 8.22461C18.4633 8.21611 18.2505 8.30826 18.1025 8.47949C17.9972 8.60144 17.9353 8.75034 17.9043 8.90332L17.8828 9.05664C17.8473 9.50953 17.8389 9.96354 17.8389 10.4111L17.8438 18.8271C17.8438 21.6328 17.8422 24.4391 17.8389 27.2451V27.2539C17.8501 27.5843 17.8318 27.915 17.7842 28.2422L17.7812 28.2588V28.2764C17.7776 28.6219 17.6545 28.9541 17.4346 29.2168L17.334 29.3242C17.0518 29.6006 16.6714 29.7541 16.2764 29.75L16.1299 29.7412C15.8378 29.7092 15.5612 29.5919 15.3359 29.4033L15.2285 29.3027C14.9867 29.0558 14.8389 28.7338 14.8086 28.3926L14.8027 28.2451V27.875L14.8018 27.8643C14.7948 27.7784 14.7918 27.6842 14.79 27.5801L14.7881 27.2363V21.2236C14.7886 20.2211 14.7878 19.2184 14.7852 18.2158L14.7695 15.209C14.7411 12.5962 13.0358 10.361 10.6973 9.81543H10.6963C7.98888 9.17781 5.53739 10.2359 4.24805 12.5625L4.12695 12.792C3.70728 13.6249 3.62012 14.4997 3.62012 15.3691V15.3701C3.62444 17.0367 3.58878 18.7211 3.61816 20.4004L3.63477 21.1201V21.1211C3.63926 21.2558 3.63197 21.391 3.61328 21.5244L3.61133 21.541V21.833C3.61627 22.1788 3.50067 22.514 3.28711 22.7822L3.19043 22.8926C2.91522 23.1758 2.53839 23.338 2.14355 23.3438L1.99609 23.3389C1.70323 23.3141 1.42428 23.2026 1.19434 23.0195L1.08398 22.9229C0.800773 22.6476 0.638544 22.2708 0.632812 21.876L0.631836 21.8389L0.621094 21.8037L0.576172 21.6348C0.551804 21.5211 0.537775 21.4053 0.535156 21.2891L0.540039 21.1143V21.1064C0.598738 19.6054 0.57035 18.0854 0.5625 16.583L0.56543 15.0879V15.0869C0.586091 13.0155 1.36072 11.0275 2.73633 9.49121L3.01953 9.18945C4.57193 7.61656 6.6754 6.70916 8.88477 6.6582L8.88379 6.65723C9.393 6.6467 9.8004 6.54898 10.1338 6.31445C10.4649 6.08148 10.693 5.73561 10.8877 5.29395C12.2813 2.17083 15.4065 0.156489 18.7773 0.25293L19.1035 0.269531H19.1045C20.9763 0.396727 22.5596 0.940157 23.8418 1.87988C25.0439 2.76096 25.9938 3.99936 26.666 5.59863L26.7969 5.92285C27.183 6.92229 27.7044 7.66584 28.5771 8.30762V8.30859C30.8423 9.97721 32.0498 12.2214 32.0498 15.0723L32.043 18.2129C32.0439 19.2618 32.0545 20.3119 32.0938 21.3604V21.3682L32.0947 21.375C32.1162 21.6027 32.0742 21.8317 31.9736 22.0371L31.9482 22.0898V22.3496C31.9482 22.7446 31.791 23.124 31.5117 23.4033C31.2325 23.6825 30.8538 23.8398 30.459 23.8398C30.0641 23.8398 29.6855 23.6824 29.4062 23.4033C29.127 23.124 28.9697 22.7446 28.9697 22.3496V20.4785C28.9694 20.2424 29.0253 20.0095 29.1338 19.7998L29.1621 19.7461V17.7217L29.1426 15.7559C29.121 14.488 28.9563 13.2048 27.8652 11.7959L27.417 11.2178V11.9492C27.417 13.5762 27.4203 15.1007 27.4219 16.5742L27.417 20.8926C27.4151 21.3194 27.4059 21.6059 27.3662 21.8076C27.3286 21.9984 27.2713 22.0752 27.1992 22.124L27.1191 22.1787L27.0967 22.2725C27.0287 22.5543 26.8718 22.8061 26.6514 22.9912L26.5537 23.0664C26.3158 23.2318 26.0316 23.3155 25.7441 23.3076L25.6201 23.2988C25.2913 23.2594 24.9882 23.1005 24.7686 22.8525C24.5763 22.6354 24.4603 22.3629 24.4346 22.0762L24.4287 21.9531V21.6992Z" fill="#0D3B66" stroke="#F1EFEE" stroke-width="0.5"/>
<path d="M9.15137 11.3477H9.1543C10.1048 11.3458 11.0203 11.6939 11.7285 12.3213L11.8682 12.4502C12.5481 13.1148 12.9576 14.0051 13.0234 14.9492L13.0322 15.1387V15.1406C13.0483 15.6491 13.0506 16.1559 13.0488 16.665L13.043 18.2041C13.043 18.9988 13.031 19.8024 13.0342 20.6055L13.043 21.4082V21.4092C13.0486 21.6437 13.0161 21.8074 12.9609 21.9229C12.9085 22.0324 12.8293 22.1131 12.709 22.1738L12.6621 22.1973L12.6279 22.2383C12.4575 22.4448 12.235 22.6011 11.9844 22.6914L11.875 22.7266C11.6165 22.7978 11.3442 22.7978 11.0869 22.7275L10.9775 22.6924C10.7253 22.6021 10.5031 22.4455 10.333 22.2402L10.2627 22.1494C10.0862 21.8994 9.99117 21.601 9.99023 21.2949V19.4238C9.99025 19.3705 9.99409 19.3179 10 19.2588L10.001 19.2471V19.2354C10.0056 18.5022 10.0125 17.7651 10.001 17.0273L9.98242 16.29V16.2891L9.9873 16.0859C9.9917 16.0115 9.99743 15.9301 10.0039 15.8408C10.0161 15.6723 10.0284 15.4788 10.0098 15.2988C9.99133 15.1204 9.93989 14.9199 9.79785 14.7637C9.66704 14.6199 9.48716 14.5433 9.27051 14.5264L9.1748 14.5225C8.8992 14.5228 8.6735 14.5996 8.51074 14.7607C8.35321 14.9168 8.28726 15.1205 8.25879 15.3096C8.23032 15.4988 8.23505 15.7021 8.24414 15.8828C8.24895 15.9783 8.25469 16.0661 8.25879 16.1475L8.26367 16.375C8.23328 17.7717 8.19764 19.182 8.24707 20.5889L8.27441 21.1914C8.29536 21.5954 8.23054 21.8286 8.13867 21.9707L8.11719 22.0039L8.10742 22.043C8.0393 22.3006 7.89603 22.531 7.69824 22.707L7.61035 22.7793C7.36656 22.962 7.06822 23.0568 6.76367 23.0488L6.65039 23.041C6.38708 23.0119 6.13729 22.9062 5.93262 22.7354C5.72805 22.5646 5.57868 22.3377 5.50293 22.084L5.47461 21.9736L5.46973 21.9482L5.45996 21.9248L5.39844 21.7568C5.36492 21.6425 5.34613 21.5243 5.3418 21.4053L5.34668 21.2266L5.34766 21.2139C5.38577 20.1872 5.38214 19.16 5.375 18.1377C5.36963 17.3698 5.36189 16.605 5.36816 15.8418L5.37988 15.0791C5.42398 13.0676 7.05722 11.4328 8.96582 11.3506L9.15137 11.3477Z" fill="#0D3B66" stroke="#F1EFEE" stroke-width="0.5"/>
</svg>
