<svg width="356" height="289" viewBox="0 0 356 289" fill="none" xmlns="http://www.w3.org/2000/svg">
<g opacity="0.2">
<path d="M319.47 255.489H16.6099C12.1575 255.625 7.93411 257.449 4.83388 260.574C1.73365 263.699 0 267.881 0 272.233C0 276.586 1.73365 280.767 4.83388 283.893C7.93411 287.018 12.1575 288.842 16.6099 288.978H319.47C321.766 289.048 324.053 288.667 326.195 287.857C328.337 287.047 330.291 285.825 331.94 284.263C333.589 282.702 334.9 280.832 335.796 278.765C336.692 276.699 337.153 274.478 337.153 272.233C337.153 269.989 336.692 267.768 335.796 265.701C334.9 263.635 333.589 261.765 331.94 260.203C330.291 258.642 328.337 257.419 326.195 256.61C324.053 255.8 321.766 255.418 319.47 255.489Z" fill="#8F0707"/>
<path d="M328.178 187.855H75.7223C70.7373 187.955 65.824 186.662 61.5409 184.121C58.8216 182.448 56.4976 180.209 54.7278 177.559C49.681 169.958 49.8324 159.528 54.9128 150.889L85.2943 105.034H187.659C192.041 105.034 196.242 103.302 199.34 100.219C202.438 97.136 204.179 92.9544 204.179 88.5942C204.179 84.2339 202.438 80.0523 199.34 76.9692C196.242 73.886 192.041 72.154 187.659 72.154H107.063L120.42 52.0641C120.756 51.5451 121.076 51.0261 121.362 50.3899C124.269 44.7452 128.91 40.1715 134.611 37.3348C140.312 34.4982 146.774 33.5469 153.055 34.6194C154.006 34.7806 154.968 34.859 155.932 34.8538H330.449C335.004 34.8538 339.373 33.0529 342.594 29.8473C345.815 26.6417 347.624 22.294 347.624 17.7607C347.624 13.2273 345.815 8.87957 342.594 5.67399C339.373 2.46841 335.004 0.66753 330.449 0.66753H157.177C144.083 -1.22975 130.72 0.940557 118.912 6.88217C107.104 12.8238 97.4257 22.2472 91.199 33.866L26.0118 132.39L25.6248 132.993C13.6304 152.865 13.8491 177.693 25.9781 196.276C30.4688 203.032 36.3737 208.743 43.2885 213.017C53.0417 218.971 64.2809 222.075 75.7223 221.974H328.178C332.642 221.835 336.877 219.972 339.986 216.78C343.094 213.588 344.833 209.318 344.833 204.873C344.833 200.427 343.094 196.157 339.986 192.965C336.877 189.773 332.642 187.91 328.178 187.771V187.855Z" fill="#8F0707"/>
<path d="M339.379 73.293H246.971C242.564 73.293 238.336 74.9477 235.219 77.8931C232.103 80.8385 230.352 84.8334 230.352 88.9989C230.352 93.1643 232.103 97.1592 235.219 100.105C238.336 103.05 242.564 104.705 246.971 104.705H339.379C343.787 104.705 348.014 103.05 351.131 100.105C354.248 97.1592 355.999 93.1643 355.999 88.9989C355.999 84.8334 354.248 80.8385 351.131 77.8931C348.014 74.9477 343.787 73.293 339.379 73.293Z" fill="#8F0707"/>
</g>
</svg>
