<svg width="525" height="525" viewBox="0 0 525 525" fill="none" xmlns="http://www.w3.org/2000/svg">
<g opacity="0.5">
<path d="M224.347 165.352C276.238 125.202 350.364 135.898 393.284 187.39L394.291 188.614C410.966 209.092 423.322 231.618 429.32 257.154L429.601 258.373L429.602 258.376C436.629 288.804 434.834 320.606 424.428 350.05L424.24 350.579L424.528 350.78C423.641 353.116 422.382 356.295 420.746 360.014L420.746 360.015C420.045 361.586 419.489 362.793 418.998 363.847C418.949 363.912 418.906 363.982 418.871 364.056L418.858 364.082L418.847 364.109C418.362 365.348 417.709 366.515 416.906 367.576L416.89 367.599L416.874 367.623C414.939 370.64 412.282 373.126 409.145 374.859C405.637 376.464 401.346 376.174 397.176 374.608C393.003 373.041 389.046 370.227 386.289 366.95L386.29 366.95C383.811 363.997 382.039 360.365 381.124 356.794C380.264 353.437 380.178 350.194 380.919 347.649L381.078 347.15L382.129 344.36L382.155 344.292L382.167 344.222L382.251 343.773C382.314 343.475 382.391 343.18 382.479 342.89L382.622 342.456C400.352 295.556 392.548 252.908 360.611 214.582L360.61 214.581C348.425 199.54 331.726 188.829 312.992 184.022L312.098 183.798C278.593 175.578 243.825 192.338 226.922 223.803L226.612 224.381L226.727 224.461L225.927 225.613L225.904 225.657C225.416 226.619 224.979 227.508 224.492 228.566C224.017 229.597 223.504 230.669 223.095 231.789L223.052 231.904L223.05 232C223.046 232.006 223.042 232.014 223.036 232.023L222.939 232.161L222.907 232.279C222.725 232.921 222.569 233.57 222.439 234.224L222.318 234.879L222.317 234.882C222.203 235.572 222.137 236.189 222.084 236.745C222.029 237.309 221.989 237.788 221.924 238.244C221.798 239.126 221.59 239.85 221.056 240.62L221.048 240.632C220.022 242.166 218.37 243.065 216.777 243.59C215.192 244.113 213.751 244.24 213.234 244.288C208.558 244.687 203.183 242.425 198.667 238.557C194.165 234.701 190.628 229.341 189.558 223.721C188.904 218.827 189.234 213.854 190.526 209.095L190.797 208.145C191.159 206.945 191.587 205.766 192.079 204.614L192.268 204.746L192.632 203.94C199.683 188.312 210.765 175.877 224.347 165.353L224.347 165.352Z" fill="#BFECFF" stroke="#0D3B66" stroke-width="1.47078"/>
<path d="M125.309 146.188C128.974 146.093 133.425 146.845 137.329 149.955L137.706 150.263L137.712 150.268C139.761 151.954 141.406 154.078 142.524 156.484C143.641 158.888 144.203 161.511 144.172 164.161C144.112 165.238 143.921 165.948 143.538 167.21C143.198 168.332 142.72 169.851 142.092 172.361L141.814 173.498C141.096 176.478 140.594 179.041 140.248 180.973L139.911 180.739L139.828 182.041C139.754 183.203 139.475 184.343 139.003 185.408L138.999 185.419L138.994 185.43C128.959 210.281 128.244 235.707 134.853 261.291L135.174 262.51C142.992 291.851 159.091 315.406 184.502 332.319L185.719 333.119C225.349 358.859 281.036 341.286 298.724 297.307L298.733 297.284L298.74 297.263L298.948 296.668C299.454 295.289 300.113 293.971 300.916 292.739L300.959 292.671L300.988 292.597L301.361 291.646C301.746 290.699 302.168 289.768 302.624 288.853L302.624 288.853C303.98 286.186 306.009 283.919 308.51 282.277C311.634 280.463 315.281 279.773 318.846 280.315L319.191 280.372L319.197 280.372C326.667 281.613 330.667 288.064 331.953 290.356L332.174 290.757L332.174 290.758C336.686 298.978 334.701 308.073 333.23 314.809L333.23 314.809L333.083 315.429L333.068 315.496L333.064 315.563C333.026 316.356 332.905 317.144 332.701 317.911L332.609 318.238L332.608 318.241C329.089 330.185 322.045 340.083 313.554 348.693L312.729 349.521L312.728 349.522C295.479 366.678 276.665 378.04 256.348 383.285C236.349 388.447 214.848 387.695 191.883 380.649L190.788 380.308L190.788 380.307C166.242 372.615 146.063 357.748 129.656 338.2L128.878 337.266L128.877 337.266C107.342 311.262 94.5435 283.937 90.3373 255.35C86.1968 227.209 90.3757 197.797 102.809 167.161L103.408 165.702C103.707 164.986 103.997 164.306 104.254 163.679L104.276 163.626L104.289 163.571L104.36 163.29C104.881 161.316 108.005 151.137 118.173 147.47L118.183 147.466L118.194 147.463C118.628 147.292 121.519 146.286 125.309 146.188Z" fill="#BFECFF" stroke="#0D3B66" stroke-width="1.47078"/>
<path d="M321.815 193.991C332.827 198.663 341.863 206.082 350.213 214.433L351.875 216.115C388.267 253.408 396.002 307.198 370.348 351.567L369.735 352.613L369.735 352.614C344.545 395.307 307.379 421.912 258.717 431.402L256.391 431.841L256.388 431.841C234.054 436.04 211.065 435.229 189.082 429.465L189.068 429.461L189.053 429.458C184.053 428.368 179.127 426.963 174.304 425.251L173.341 424.905C167.156 422.655 161.168 419.896 155.438 416.658C147.685 412.088 143.22 405.317 141.529 398.711C139.832 392.077 140.947 385.7 144.209 381.849L144.209 381.848C146.824 378.779 151.287 376.821 156.573 376.48C161.848 376.139 167.878 377.416 173.534 380.733L173.547 380.741L173.561 380.748C178.047 383.129 182.693 385.193 187.466 386.926L187.476 386.93L187.485 386.933C207.975 393.76 228.994 394.699 250.416 391.284L250.416 391.286C278.292 386.871 300.587 372.868 319.345 352.56L320.236 351.588C332.44 338.175 341.107 322.957 342.945 304.744L343.028 303.876C344.927 282.66 338.263 263.874 324.382 247.739L324.381 247.738C316.135 237.929 305.473 230.439 293.449 226.009C293.326 225.959 293.205 225.915 293.096 225.875C292.984 225.834 292.887 225.797 292.794 225.761C292.7 225.723 292.62 225.69 292.553 225.656L292.381 225.557L292.29 225.494L292.183 225.46C291.107 225.121 290.062 224.69 289.059 224.172L289.045 224.164L289.03 224.158C285.949 222.739 283.342 220.463 281.519 217.603C278.975 213.043 280.286 207.877 281.178 205.203L281.522 204.217C283.623 198.798 287.676 194.361 292.884 191.78C301.11 187.733 309.55 189.938 315.93 191.9L317.178 192.288L318.319 192.687L318.332 192.692L318.343 192.696C319.226 192.971 320.097 193.282 320.955 193.629L321.807 193.989L321.815 193.991Z" fill="#BFECFF" stroke="#0D3B66" stroke-width="1.47078"/>
<path d="M367.865 107.136C370.98 108.836 374.948 112.143 377.916 116.481C380.788 120.68 382.686 125.788 382.041 131.305L381.97 131.84C380.854 139.519 374.912 147.19 367.58 148.787C363.963 149.394 360.255 149.092 356.79 147.912L356.102 147.665C354.705 147.131 353.895 146.644 352.818 145.994C351.862 145.416 350.721 144.725 348.84 143.806L347.987 143.398L347.98 143.395C346.941 142.92 345.987 142.506 345.066 142.138L344.951 142.093L344.827 142.086C343.815 142.04 342.818 141.822 341.88 141.44L341.863 141.433C337.012 139.597 332.055 138.054 327.02 136.812L326.012 136.567L326.009 136.566C306.764 132.075 286.732 132.176 267.534 136.86C243.889 142.139 222.342 154.315 205.622 171.848C196.883 180.565 189.866 190.847 184.936 202.155L184.466 203.253L184.46 203.265C177.896 219.616 177.36 237.769 182.946 254.479C188.532 271.19 199.878 285.37 214.956 294.486L214.963 294.49L214.97 294.495C217.575 295.989 219.902 297.133 221.436 297.862C222.207 298.228 222.79 298.49 224.234 299.116L232.209 302.55L232.212 302.551C233.92 303.279 235.197 303.817 236.087 304.198C236.531 304.388 236.87 304.535 237.112 304.645C237.385 304.768 237.467 304.815 237.459 304.81L237.498 304.836L237.54 304.858C241.555 306.949 245.747 309.145 247.885 313.343C249.02 315.754 249.506 318.42 249.295 321.077C249.097 323.573 248.291 325.98 246.949 328.088L246.675 328.506C243.583 332.955 238.842 333.852 231.127 335.243C223.739 336.439 216.19 336.231 208.878 334.631L208.837 334.622L208.794 334.618C207.514 334.49 206.249 334.237 205.018 333.865L204.998 333.859L204.977 333.855C204.305 333.693 203.625 333.505 202.966 333.312L202.956 333.309L202.945 333.306C201.695 332.98 200.568 332.652 199.593 332.356L199.689 332.218L198.841 331.871C189.755 328.155 182.214 321.849 174.976 315.154L174.977 315.155C145.52 287.836 134.709 253.803 139.302 214.273L139.301 214.273C142.995 183.859 158.277 159.519 180.17 138.96L181.218 137.983L181.218 137.983C215.023 106.68 255.89 92.8049 301.209 92.0237L301.209 92.0224C320.889 91.708 340.422 95.46 358.586 103.042L358.592 103.044L358.599 103.048C362.233 104.481 366.011 106.134 367.865 107.138L367.865 107.136Z" fill="#BFECFF" stroke="#0D3B66" stroke-width="1.47078"/>
<path d="M309.296 293.389C313.879 294.112 316.845 297.602 317.773 301.958L317.856 302.382L317.856 302.383C318.734 307.153 317.408 310.576 314.846 313.436C312.259 316.325 308.416 318.636 304.24 321.143L304.469 321.824C306.693 321.58 308.914 321.217 310.965 320.965C313.039 320.709 314.99 320.557 316.788 320.715C318.581 320.872 320.209 321.336 321.646 322.301C323.082 323.266 324.353 324.75 325.403 326.987L325.403 326.988C326.385 329.097 326.268 332.045 325.274 334.975C324.283 337.896 322.442 340.73 320.077 342.594C316.482 345.413 313.169 345.727 309.964 344.862C306.72 343.987 303.587 341.907 300.37 339.886L299.659 339.439L299.813 340.265C300.87 345.929 300.909 350.459 299.946 353.91C299.018 357.237 297.161 359.567 294.355 360.964L294.08 361.096C291.375 362.36 288.947 362.392 286.731 361.659C284.64 360.967 282.717 359.588 280.921 357.871L280.562 357.524C279.414 356.357 278.613 355.242 278.148 354.055C277.685 352.871 277.546 351.593 277.759 350.082C278.187 347.033 280.035 343.076 283.486 337.151L282.957 336.666C279.578 339.036 276.721 341.236 273.707 343.137L273.102 343.514L273.101 343.514C269.617 345.656 266.518 346.513 263.89 346.199C261.278 345.887 259.069 344.41 257.364 341.745C254.092 336.63 255.754 329.611 261.256 325.409L261.8 325.012L261.802 325.011C264.011 323.445 266.471 322.72 269.143 322.176C271.794 321.636 274.699 321.269 277.659 320.413L278.508 320.168L277.735 319.738C274.184 317.767 271.255 315.563 269.538 312.889C267.888 310.32 267.339 307.289 268.493 303.535L268.611 303.169C270.417 297.744 274.463 294.019 280.634 293.745L280.634 293.744C283.455 293.635 285.679 294.475 287.588 296.467C289.518 298.48 291.145 301.69 292.696 306.359L292.943 307.103L293.358 306.437C294.36 304.825 295.281 303.077 296.224 301.433C297.174 299.777 298.158 298.206 299.312 296.887C300.463 295.57 301.777 294.513 303.384 293.876C304.888 293.278 306.671 293.041 308.854 293.325L309.296 293.389Z" fill="#0D3B66" stroke="#171A17" stroke-width="0.735388"/>
<path d="M296.44 318.513C298.18 319.779 299.151 321.528 299.347 323.447C299.544 325.37 298.964 327.488 297.554 329.478C294.738 333.449 289.893 334.629 286.297 332.176C285.46 331.585 284.749 330.833 284.206 329.964C283.662 329.094 283.297 328.124 283.133 327.112C282.97 326.099 283.01 325.063 283.252 324.066C283.464 323.193 283.826 322.365 284.321 321.619L284.542 321.304L284.549 321.295C287.33 317.289 292.994 316.006 296.44 318.513Z" fill="#5BC0EB" fill-opacity="0.8" stroke="#171A17" stroke-width="0.735388"/>
<path d="M205.455 224.033C208.688 225.532 211.754 227.366 214.602 229.506L215.168 229.939C219.441 233.243 222.913 237.467 225.327 242.294L225.558 242.763L225.559 242.767C227.594 246.873 228.913 251.295 229.463 255.84L229.563 256.751L229.564 256.758C229.64 257.401 229.677 257.879 229.659 258.254C229.641 258.624 229.57 258.869 229.447 259.064C229.322 259.26 229.121 259.441 228.779 259.64C228.52 259.791 228.195 259.944 227.786 260.12L227.347 260.303L227.344 260.304C220.58 263.17 213.523 265.291 206.298 266.627C205.829 266.711 205.336 266.886 204.925 267.001L204.628 267.084L204.658 267.39C204.69 267.729 204.786 268.005 204.958 268.213C205.133 268.425 205.356 268.53 205.567 268.581C205.771 268.631 205.98 268.636 206.145 268.637C206.329 268.637 206.448 268.635 206.546 268.651L206.546 268.65C213.311 269.916 219.907 271.95 226.209 274.708L227.466 275.269L227.47 275.27C228.441 275.7 228.969 276.093 229.224 276.543C229.471 276.98 229.506 277.551 229.276 278.457L229.271 278.474L229.269 278.491C229.16 279.182 229.106 279.88 229.105 280.579C226.968 292.127 221.223 301.294 211.288 307.694C209.739 308.672 208.131 309.553 206.473 310.331L205.761 310.659L205.755 310.661C205.079 310.978 204.592 311.202 204.202 311.333C203.816 311.463 203.569 311.486 203.365 311.443C203.162 311.399 202.947 311.276 202.649 311.001C202.347 310.723 201.995 310.323 201.509 309.765L201.509 309.765C196.779 304.284 192.656 298.307 189.213 291.939C188.943 291.367 188.481 290.907 187.909 290.637L187.351 290.373L187.385 290.989C187.456 292.256 187.484 293.566 187.591 294.85L187.591 294.849C188.138 301.496 188.093 308.179 187.459 314.818L187.457 314.844L187.458 314.871C187.488 315.474 187.28 316.065 186.877 316.515C186.475 316.965 185.91 317.239 185.307 317.276L185.284 317.277L185.261 317.281C170.148 320.181 157.423 316.052 147.041 304.88L146.549 304.342L146.547 304.341C146.011 303.753 145.779 303.28 145.745 302.813C145.71 302.339 145.874 301.801 146.285 301.071L146.285 301.071C149.617 295.447 153.508 290.174 157.901 285.333C158.89 284.433 159.711 283.364 160.323 282.175L160.551 281.734L160.062 281.645C159.382 281.521 158.796 281.663 158.279 281.87C158.023 281.972 157.779 282.093 157.551 282.205C157.435 282.263 157.323 282.318 157.213 282.37L156.889 282.513L156.883 282.515C151.228 284.914 145.383 286.836 139.41 288.264L138.216 288.542C137.442 288.713 136.887 288.835 136.451 288.884C136.019 288.932 135.755 288.9 135.549 288.806C135.343 288.711 135.145 288.529 134.895 288.164C134.769 287.98 134.637 287.759 134.489 287.495L133.986 286.567C127.056 273.47 127.209 260.475 134.24 247.593L134.58 246.98L134.581 246.979L134.809 246.576C135.022 246.203 135.201 245.916 135.37 245.694C135.592 245.403 135.776 245.254 135.971 245.174C136.169 245.094 136.422 245.068 136.816 245.112C137.014 245.134 137.238 245.172 137.498 245.225L138.392 245.428L138.392 245.427C145.219 247.031 151.863 249.332 158.22 252.292C158.586 252.562 159.002 252.758 159.444 252.866C159.902 252.977 160.378 252.993 160.841 252.912L161.481 252.801L161.056 252.31C155.257 245.597 149.961 238.885 145.953 231.304C151.422 224.407 159.015 219.505 167.558 217.366L167.558 217.368C173.565 215.933 179.826 215.936 185.832 217.377L185.853 217.382L185.874 217.385C186.53 217.463 187.133 217.786 187.564 218.288C187.994 218.79 188.221 219.435 188.198 220.096L188.197 220.122L188.2 220.147C188.875 226.634 188.834 233.175 188.076 239.652C187.693 240.966 187.724 242.366 188.165 243.662L188.4 244.352L195.595 233.99C197.654 231.025 199.62 227.761 202.3 225.152L202.846 224.639C203.348 224.183 203.72 223.926 204.092 223.827C204.445 223.733 204.853 223.767 205.455 224.031L205.455 224.033Z" fill="#5BC0EB" stroke="#171A17" stroke-width="0.735388"/>
<path d="M186.979 258.586C188.653 259.827 190.127 262.08 190.678 264.628C191.21 267.087 190.878 269.793 189.067 272.121L188.887 272.344C187.071 274.535 185.044 275.811 182.887 276.124C180.867 276.417 178.679 275.873 176.372 274.351L175.91 274.034L175.897 274.025L175.884 274.018C173.565 272.64 172.216 270.552 171.843 268.209C171.492 266.009 171.998 263.559 173.412 261.241L173.708 260.779C175.032 258.8 177.381 257.53 179.909 257.121C182.28 256.738 184.752 257.122 186.614 258.333L186.979 258.586Z" fill="#0D3B66" stroke="#171A17" stroke-width="0.735388"/>
<path d="M208.508 248.856C208.652 248.918 208.776 249.017 208.867 249.142L208.947 249.275L208.957 249.296L208.971 249.316C209.085 249.49 209.133 249.7 209.106 249.907C209.086 250.062 209.025 250.209 208.93 250.331L208.823 250.444L208.817 250.451C208.512 250.737 208.185 250.997 207.839 251.23L207.486 251.455L207.476 251.461C204.758 253.211 202.024 254.956 199.299 256.711L196.578 258.471C196.174 258.73 195.817 258.955 195.467 259.066C195.148 259.168 194.857 259.166 194.554 259C194.248 258.716 194.11 258.46 194.075 258.243C194.041 258.03 194.096 257.802 194.276 257.555C194.578 257.197 194.935 256.89 195.332 256.645L195.507 256.543L195.527 256.531L206.424 249.52L206.432 249.516C206.825 249.251 207.252 249.04 207.702 248.889L207.895 248.827L207.903 248.825C208.102 248.763 208.317 248.773 208.508 248.856Z" fill="#0B0503" stroke="#171A17" stroke-width="0.735388"/>
<path d="M173.272 236.403L173.281 236.411C173.478 236.569 173.64 236.767 173.756 236.991C173.871 237.216 173.938 237.463 173.952 237.715L173.953 237.746L173.96 237.775C174.391 239.702 174.817 241.627 175.238 243.553L176.488 249.326L176.489 249.328C176.59 249.793 176.612 250.208 176.511 250.532C176.418 250.829 176.211 251.084 175.755 251.239C175.525 251.317 175.353 251.32 175.224 251.29C175.096 251.26 174.981 251.192 174.876 251.083C174.71 250.91 174.578 250.644 174.479 250.326L174.392 249.991L174.392 249.988L173.73 247.009C173.071 244.029 172.424 241.049 171.789 238.069L171.783 238.044L171.775 238.021L171.74 237.906C171.67 237.635 171.686 237.347 171.789 237.083C171.907 236.783 172.129 236.534 172.415 236.384L172.435 236.374L172.453 236.362C172.575 236.277 172.722 236.235 172.87 236.243C172.981 236.249 173.088 236.282 173.182 236.339L173.272 236.403Z" fill="#0A0402" stroke="#171A17" stroke-width="0.735388"/>
<path d="M156.587 264.646C156.835 264.769 157.039 264.965 157.173 265.206L157.186 265.229L157.201 265.25C157.286 265.362 157.329 265.5 157.322 265.641C157.315 265.781 157.258 265.914 157.163 266.017L157.145 266.037L157.13 266.06C156.958 266.31 156.721 266.51 156.445 266.635C156.168 266.761 155.862 266.808 155.56 266.772L155.531 266.768L155.502 266.77C152.629 266.892 149.754 267.002 146.876 267.098L143.998 267.191L143.996 267.191C143.506 267.208 143.102 267.186 142.816 267.044C142.683 266.978 142.578 266.888 142.501 266.756C142.421 266.621 142.357 266.423 142.342 266.128C142.328 265.833 142.373 265.633 142.439 265.496C142.503 265.363 142.597 265.268 142.722 265.194C142.926 265.075 143.204 265.017 143.537 264.989L143.889 264.969L143.894 264.969C147.845 264.79 151.795 264.656 155.748 264.521L155.767 264.52L155.787 264.518C156.061 264.479 156.34 264.523 156.587 264.646Z" fill="#171A17" stroke="#171A17" stroke-width="0.735388"/>
<path d="M196.022 279.385L196.044 279.402C197.453 280.441 198.856 281.49 200.255 282.543L204.446 285.704L204.452 285.708C204.724 285.905 204.986 286.116 205.236 286.34L205.482 286.568L205.491 286.576L205.5 286.584C205.703 286.755 205.837 286.994 205.877 287.256C205.916 287.515 205.861 287.779 205.723 288L205.722 288.001C205.65 288.107 205.558 288.197 205.451 288.267C205.343 288.336 205.223 288.383 205.097 288.405C204.971 288.427 204.842 288.424 204.717 288.396C204.592 288.367 204.475 288.313 204.371 288.238L204.355 288.227L204.337 288.216C203.844 287.935 203.414 287.599 202.924 287.243L202.944 287.213L203.137 286.914L196.254 282.135C195.894 281.885 195.544 281.642 195.212 281.381L194.886 281.112L194.871 281.099L194.855 281.088C194.449 280.806 194.207 280.505 194.125 280.217C194.049 279.951 194.091 279.63 194.399 279.242C194.553 279.048 194.691 278.949 194.807 278.901C194.919 278.854 195.032 278.847 195.154 278.87C195.419 278.921 195.711 279.116 196.022 279.385Z" fill="#171A17" stroke="#171A17" stroke-width="0.735388"/>
<path d="M171.46 285.316L171.461 285.315C171.667 285.496 171.817 285.733 171.892 285.997C171.967 286.262 171.964 286.544 171.883 286.808L171.879 286.818L171.877 286.83C171.335 289.128 170.816 291.424 170.275 293.715L169.725 296.006C169.63 296.391 169.492 296.721 169.296 296.931C169.123 297.118 168.886 297.232 168.493 297.16C168.102 297.089 167.872 296.876 167.745 296.588C167.628 296.321 167.596 295.973 167.653 295.595L167.684 295.432L167.684 295.429L168.168 293.11C168.575 291.183 169.002 289.272 169.501 287.389L169.81 286.262L169.813 286.25L169.879 286.023C170.046 285.527 170.307 285.249 170.553 285.134C170.817 285.01 171.138 285.039 171.46 285.316Z" fill="#0A0403" stroke="#171A17" stroke-width="0.735388"/>
<path d="M278.306 177.008C280.153 176.1 282.076 175.258 283.931 174.32C285.202 173.681 286.034 173.833 287.089 175.028C291.748 180.403 295.851 186.235 299.334 192.436C299.682 193.055 299.811 193.887 300.764 194.196C299.901 187.421 299.73 180.576 300.253 173.767C300.771 167.764 299.95 168.824 305.352 168.001C319.178 165.873 330.676 170.39 339.984 180.71C341.49 182.377 341.442 182.428 340.286 184.339C336.506 190.689 332.006 196.582 326.875 201.901C326.663 202.158 326.472 202.433 326.305 202.721C327.246 202.925 327.905 202.397 328.596 202.086C334.909 199.255 341.496 197.078 348.253 195.589C350.586 195.068 350.619 195.09 351.777 197.172C358.938 210.092 358.883 222.979 351.613 235.831C350.32 238.096 350.245 238.081 347.841 237.531C340.424 235.808 333.232 233.231 326.409 229.851C326.345 230.731 326.939 231.155 327.395 231.655C332.154 236.924 336.381 242.65 340.014 248.751C340.853 250.136 340.824 251.089 339.724 252.199C338.625 253.309 337.39 254.666 336.259 255.876C332.02 259.369 327.155 262.023 321.923 263.696C315.622 265.541 308.949 265.712 302.562 264.194C300.216 263.648 300.167 263.614 299.954 261.239C299.372 254.634 299.468 247.986 300.238 241.4C300.336 240.47 300.44 239.532 300.606 238.102C299.785 238.823 299.127 239.71 298.677 240.705C295.614 246.535 291.529 251.63 287.299 256.6C285.45 258.772 285.269 258.841 282.789 257.593C269.429 251.078 261.942 240.538 260.476 225.724C260.406 225.433 260.395 225.131 260.442 224.835C260.49 224.539 260.595 224.256 260.753 224.001C260.911 223.746 261.117 223.525 261.361 223.351C261.604 223.176 261.88 223.052 262.172 222.984C268.38 220.402 274.815 218.403 281.393 217.012C282.27 216.817 283.265 216.961 284.019 216.244C283.515 215.444 282.662 215.569 281.961 215.423C275.275 213.977 268.748 211.874 262.476 209.144C260.383 208.25 260.337 208.194 260.584 205.981C261.064 200.442 262.769 195.08 265.576 190.281C268.382 185.482 272.219 181.367 276.811 178.232C277.304 177.82 277.808 177.392 278.306 177.008Z" fill="#3D72A4"/>
<path d="M318.171 222.322C314.309 227.645 307.178 228.602 301.656 224.723C300.416 223.829 299.366 222.698 298.566 221.395C297.766 220.093 297.232 218.644 296.995 217.134C296.758 215.624 296.823 214.082 297.186 212.597C297.549 211.112 298.202 209.713 299.109 208.483C299.988 207.162 301.125 206.032 302.452 205.162C303.779 204.291 305.268 203.698 306.83 203.417C308.391 203.137 309.994 203.175 311.54 203.529C313.087 203.883 314.546 204.546 315.83 205.478C317.114 206.411 318.197 207.593 319.013 208.954C319.828 210.315 320.36 211.827 320.577 213.399C320.794 214.971 320.691 216.57 320.274 218.101C319.857 219.632 319.135 221.063 318.151 222.308L318.171 222.322Z" fill="#5BC0EB" fill-opacity="0.8"/>
<path d="M349.235 209.863C349.339 209.935 349.428 210.026 349.496 210.133C349.564 210.239 349.61 210.358 349.632 210.483L349.634 210.496C349.667 210.646 349.666 210.802 349.631 210.951C349.597 211.1 349.531 211.24 349.437 211.36C349.342 211.481 349.222 211.58 349.085 211.649C348.949 211.718 348.799 211.756 348.646 211.761L348.616 211.762L348.588 211.767C348.147 211.851 347.7 211.906 347.252 211.931L347.272 212.298L347.251 211.93L347.242 211.931C341.767 212.391 336.289 212.854 330.81 213.321L330.781 213.323L330.752 213.33C330.071 213.5 329.36 213.503 328.676 213.346C328.356 213.029 328.224 212.764 328.205 212.543C328.186 212.323 328.272 212.066 328.567 211.754C329.041 211.374 329.639 211.181 330.247 211.213L330.273 211.214L330.298 211.212L347.425 209.751C347.764 209.724 348.108 209.714 348.448 209.713L348.482 209.713L348.515 209.708C348.64 209.685 348.767 209.686 348.891 209.713C349.014 209.739 349.131 209.791 349.235 209.863Z" fill="white" stroke="white" stroke-width="0.735388"/>
<path d="M287.985 226.903L287.657 227.069L287.664 227.081C287.763 227.259 287.796 227.466 287.758 227.666C287.719 227.866 287.612 228.047 287.454 228.176L287.448 228.181L287.442 228.187C287.134 228.465 286.803 228.715 286.454 228.937L286.098 229.149L286.09 229.154C281.483 231.883 276.87 234.596 272.252 237.297C271.793 237.525 271.45 237.743 271.059 237.86C270.72 237.962 270.38 237.97 269.979 237.773C269.714 237.428 269.564 237.119 269.55 236.855C269.538 236.644 269.61 236.405 269.917 236.147L270.064 236.036L270.069 236.032C270.808 235.498 271.612 235.105 272.442 234.612L284.473 227.531L284.475 227.53C285.146 227.131 285.856 226.803 286.595 226.549C286.802 226.509 287.016 226.536 287.207 226.627C287.401 226.721 287.56 226.876 287.657 227.068L287.985 226.903Z" fill="white" stroke="white" stroke-width="0.735388"/>
<path d="M280.697 184.351C282.835 186.136 284.953 187.951 287.07 189.753L287.07 189.753L292.903 194.767L292.903 194.768C293.373 195.174 293.831 195.553 294.069 195.96C294.181 196.151 294.228 196.324 294.214 196.489C294.2 196.653 294.123 196.855 293.902 197.1C293.683 197.342 293.496 197.429 293.343 197.451C293.185 197.474 293.009 197.438 292.801 197.336C292.591 197.232 292.372 197.073 292.14 196.885C291.928 196.713 291.677 196.493 291.455 196.324L291.456 196.324L290.911 195.871L290.603 195.614L290.55 195.691L279.73 186.389L279.716 186.377L279.699 186.365C279.5 186.227 279.355 186.122 279.244 185.979L279.23 185.962L279.216 185.947L279.112 185.835C278.883 185.575 278.748 185.321 278.71 185.089C278.669 184.841 278.728 184.572 278.988 184.275C279.235 183.994 279.49 183.919 279.752 183.943C280.037 183.969 280.36 184.118 280.697 184.351Z" fill="white" stroke="white" stroke-width="0.735388"/>
<path d="M317.251 176.816C317.45 176.863 317.626 176.98 317.749 177.144C317.871 177.308 317.932 177.511 317.92 177.716L317.919 177.728L317.919 177.741C317.923 178.185 317.877 178.629 317.781 179.063L318.139 179.143L317.781 179.063L317.78 179.07L314.879 193.472L314.876 193.485C314.801 193.94 314.671 194.438 314.601 194.684C314.372 195.008 314.208 195.183 314.061 195.282C313.957 195.352 313.851 195.391 313.709 195.409L313.555 195.42L313.552 195.42C313.344 195.425 313.141 195.355 312.979 195.224C312.821 195.095 312.713 194.914 312.675 194.714C312.622 194.151 312.649 193.584 312.754 193.028L312.804 192.789L312.806 192.777L314.169 185.919C314.626 183.632 315.088 181.343 315.552 179.054L315.553 179.054L315.556 179.04L315.632 178.625C315.717 178.215 315.827 177.81 315.961 177.412C316.054 177.17 316.236 176.972 316.47 176.86C316.705 176.747 316.975 176.729 317.223 176.809L317.236 176.813L317.251 176.816Z" fill="white" stroke="white" stroke-width="0.735388"/>
<path d="M274.282 193.65L280.306 197.833L280.133 198.083L280.41 198.297C282.445 199.861 284.479 201.423 286.488 202.998L286.496 203.005L286.505 203.011C286.898 203.285 287.166 203.577 287.264 203.863C287.348 204.111 287.327 204.421 286.973 204.823C286.71 205.115 286.464 205.192 286.226 205.175C285.961 205.157 285.652 205.02 285.293 204.772C281.129 201.564 276.966 198.387 272.822 195.178L272.802 195.163L272.781 195.151C272.651 195.076 272.541 194.972 272.458 194.847C272.375 194.723 272.323 194.581 272.304 194.432C272.285 194.284 272.301 194.133 272.351 193.992C272.388 193.886 272.442 193.787 272.513 193.7L272.588 193.618L272.601 193.606L272.613 193.591C272.894 193.257 273.138 193.194 273.362 193.218C273.626 193.247 273.927 193.404 274.282 193.65Z" fill="white" stroke="white" stroke-width="0.735388"/>
<path d="M290.112 233.441C290.315 233.447 290.5 233.513 290.664 233.679L290.733 233.755C290.904 233.966 290.994 234.231 290.987 234.502C290.981 234.768 290.882 235.022 290.708 235.223C290.363 235.527 290.024 235.83 289.682 236.133L288.629 237.059L288.626 237.061C285.461 239.838 282.31 242.62 279.125 245.364C278.708 245.717 278.333 246.014 277.976 246.106C277.814 246.147 277.667 246.142 277.522 246.08C277.408 246.032 277.277 245.942 277.134 245.78L276.986 245.593L276.984 245.591L276.879 245.429C276.79 245.276 276.753 245.15 276.742 245.048C276.728 244.915 276.756 244.79 276.825 244.659C276.98 244.365 277.295 244.099 277.692 243.747L277.692 243.746C281.306 240.603 284.9 237.428 288.508 234.27L288.517 234.262L288.527 234.254C288.696 234.084 288.882 233.932 289.081 233.799L289.285 233.673C289.582 233.518 289.867 233.435 290.112 233.441Z" fill="white" stroke="white" stroke-width="0.735388"/>
<path d="M344.944 222.721C345.093 222.816 345.215 222.948 345.301 223.102C345.387 223.256 345.434 223.43 345.437 223.606C345.44 223.775 345.401 223.941 345.327 224.092C345.168 224.304 344.949 224.464 344.697 224.548C344.436 224.634 344.153 224.637 343.891 224.554L343.875 224.548L343.857 224.545C338.974 223.505 334.107 222.399 329.22 221.314L329.201 221.31L329.179 221.308C329.028 221.292 328.882 221.242 328.753 221.162C328.622 221.083 328.511 220.976 328.427 220.848C328.344 220.721 328.289 220.577 328.267 220.426C328.246 220.275 328.259 220.122 328.304 219.977L328.309 219.961L328.311 219.945L328.349 219.804C328.446 219.496 328.613 219.345 328.8 219.267C329.01 219.179 329.294 219.163 329.637 219.221L329.788 219.25C334.66 220.322 339.528 221.422 344.392 222.549L344.42 222.555L344.448 222.557C344.624 222.57 344.795 222.627 344.944 222.721Z" fill="white" stroke="white" stroke-width="0.735388"/>
<path d="M313.053 238.081C313.18 238.168 313.28 238.288 313.345 238.426L313.398 238.569L313.4 238.578L313.403 238.587C313.5 238.889 313.56 239.201 313.58 239.517L313.579 239.518C313.836 244.064 314.084 248.609 314.323 253.153C314.318 253.518 314.279 253.882 314.208 254.241C313.986 254.605 313.628 254.796 313.288 254.818C312.939 254.841 312.64 254.691 312.496 254.4C312.245 253.807 312.114 253.17 312.109 252.526L312.109 252.516L312.109 252.505L311.918 249.445C311.795 247.406 311.678 245.367 311.57 243.328L311.413 240.269L311.414 240.262L311.399 239.853C311.399 239.58 311.417 239.307 311.453 239.036L311.522 238.632L311.522 238.63L311.566 238.48C311.622 238.336 311.718 238.208 311.842 238.112C312.007 237.983 312.213 237.919 312.422 237.93L312.448 237.931L312.475 237.929C312.68 237.909 312.885 237.963 313.053 238.081Z" fill="white" stroke="white" stroke-width="0.735388"/>
<path d="M319.571 236.498C319.825 236.641 320.047 236.833 320.223 237.067C320.41 237.317 320.54 237.606 320.603 237.913L320.607 237.931L320.612 237.948C321.177 239.797 321.742 241.645 322.31 243.491L324.016 249.025C324.161 249.498 324.228 249.921 324.162 250.254C324.104 250.552 323.936 250.803 323.512 250.964C323.091 251.122 322.798 251.038 322.568 250.846C322.311 250.631 322.101 250.253 321.959 249.788L321.959 249.788C320.801 245.974 319.698 242.186 318.507 238.344L318.498 238.318L318.487 238.294L318.439 238.182C318.342 237.919 318.331 237.63 318.411 237.359C318.501 237.053 318.701 236.791 318.971 236.622C319.154 236.519 319.363 236.477 319.571 236.498Z" fill="white" stroke="white" stroke-width="0.735388"/>
<path d="M326.303 182.82C326.443 182.886 326.566 182.982 326.665 183.101C326.764 183.22 326.836 183.36 326.875 183.509C326.914 183.659 326.919 183.815 326.891 183.967C326.863 184.12 326.802 184.264 326.712 184.39L326.701 184.404L326.692 184.419C325.646 186.23 324.494 187.973 323.376 189.759L323.19 190.056L323.308 190.138L320.516 194.158C320.326 194.432 320.11 194.633 319.892 194.731C319.715 194.809 319.52 194.829 319.291 194.739L319.19 194.694L319.183 194.69C319.043 194.623 318.92 194.526 318.822 194.406C318.725 194.286 318.656 194.146 318.619 193.996C318.583 193.846 318.581 193.689 318.612 193.538C318.643 193.386 318.707 193.244 318.8 193.121L318.812 193.106L318.821 193.09C320.819 189.801 322.898 186.568 324.971 183.323C325.165 183.044 325.373 182.846 325.584 182.753C325.75 182.68 325.942 182.66 326.181 182.761L326.286 182.811L326.295 182.816L326.303 182.82Z" fill="white" stroke="white" stroke-width="0.735388"/>
</g>
</svg>
