<svg width="720" height="719" viewBox="0 0 720 719" fill="none" xmlns="http://www.w3.org/2000/svg">
<path d="M358.751 0.720703C361.853 0.780774 364.935 1.24005 367.92 2.08789C379.497 4.05522 395.866 12.3394 395.951 43.3936C395.992 71.4283 396.014 99.4335 396.017 127.409L395.961 138.995C395.893 153.051 395.823 167.52 395.754 181.87C406.166 157.16 416.579 131.978 426.754 107.59C434.173 89.6286 441.631 71.6776 449.128 53.7363C462.783 21.1016 484.826 23.7667 496.743 28.2646C501.067 29.7154 505.047 32.0376 508.437 35.0889C511.826 38.1402 514.553 41.8558 516.448 46.0039C520.694 55.8169 519.991 67.4291 514.22 81.2812C497.556 121.812 479.852 164.749 461.704 208.184C495.656 174.324 528.782 141.107 560.4 109.353C565.277 104.318 580.317 89.334 602.241 98.2617C607.559 100.286 612.287 103.607 615.995 107.924C619.703 112.24 622.273 117.416 623.472 122.979C626.087 135.43 621.642 148.671 611.27 159.267C589.993 180.837 568.037 202.756 546.822 223.65L529.594 241.006L527.318 243.26C522.472 248.118 517.538 253.034 512.545 257.892C540.39 246.469 568.324 234.841 595.491 223.562L627.018 210.805L631.645 208.856L631.909 208.857C635.711 207.2 639.541 205.542 643.694 204.121C665.081 196.402 684.572 203.907 692.156 222.676C699.826 242.151 691.148 260.9 670.167 269.915C646.947 279.743 623.286 289.509 600.332 298.985L599.448 299.334C589.489 303.422 579.549 307.55 569.629 311.717L555.956 317.532L541.046 323.725L604.741 323.708L670.408 323.584L673.055 323.597C677.592 323.451 682.133 323.659 686.638 324.221C708.296 327.207 720.723 341.971 718.918 362.605C717.205 382.476 703.117 394.878 682.15 394.776L604.986 394.786L559.347 394.831L539.174 394.733C576.153 410.086 615.48 426.332 660.912 445.019C689.967 456.921 700.501 474.028 692.34 495.515C690.917 499.789 688.625 503.723 685.608 507.068C682.597 510.421 678.918 513.108 674.808 514.956C661.163 520.977 645.631 515.874 633.657 510.905L581.212 489.127C558.223 479.488 535.165 469.937 512.038 460.474L567.817 516.47L605.13 554.025L607.853 556.686C609.667 558.429 611.452 560.203 613.179 562.005C627.807 577.485 628.626 596.632 615.407 612.007C612.509 615.508 608.918 618.371 604.859 620.416C600.801 622.461 596.362 623.645 591.824 623.892C586.368 623.921 580.966 622.813 575.961 620.639C570.953 618.47 566.444 615.295 562.714 611.312L555.601 604.514C526.128 575.376 493.816 543.461 461.947 511.312C470.407 531.526 478.779 551.652 487.181 571.836L511.949 631.24L511.947 631.534C516.685 643.055 530.492 676.676 498.606 690.52C494.595 692.464 490.226 693.559 485.771 693.734C481.318 693.91 476.875 693.163 472.724 691.541C461.952 687.196 453.796 677.158 446.413 659.214L439.553 642.565C425.398 608.15 410.836 572.762 396.154 537.785C396.239 562.87 396.234 588.13 396.203 612.92C396.177 618.331 396.151 623.682 396.125 629.034L396.094 666.176L396.062 672.498C395.985 688.554 391.543 701.236 383.358 709.225C380.409 712.163 376.899 714.48 373.037 716.037C369.175 717.594 365.04 718.361 360.877 718.291C357.774 718.218 354.693 717.749 351.709 716.895C340.132 714.927 323.763 706.643 323.678 675.589C323.636 647.593 323.614 619.588 323.612 591.573L323.668 579.987C323.736 565.961 323.806 551.463 323.875 537.112C313.463 561.852 303.049 587.004 292.874 611.393C285.357 629.451 277.889 647.403 270.471 665.246C256.815 697.91 234.773 695.216 222.855 690.718C218.532 689.267 214.552 686.944 211.163 683.893C207.774 680.841 205.046 677.127 203.15 672.979C198.904 663.166 199.607 651.553 205.38 637.554C222.043 597.052 239.748 554.116 257.866 510.681C223.914 544.482 190.73 577.669 159.199 609.424C154.323 614.458 139.282 629.442 117.358 620.515C112.038 618.502 107.307 615.188 103.599 610.876C99.8899 606.563 97.3211 601.39 96.1279 595.828C93.512 583.376 97.9581 570.134 108.331 559.539C129.608 537.939 151.563 516.049 172.778 495.155L190.006 477.8L192.281 475.517C197.127 470.688 202.033 465.771 207.056 460.885C179.211 472.307 151.277 483.906 124.109 495.214L92.7285 508.179L88.1025 510.097L87.8379 510.096C84.0364 511.754 80.2051 513.411 76.0518 514.861C54.6653 522.551 35.2048 515.076 27.6201 496.278C19.9211 476.833 28.6275 458.054 49.6084 449.068C72.8285 439.241 96.4898 429.445 119.443 419.998L120.327 419.62L150.147 407.266L163.791 401.45L178.729 395.288L115.15 395.481L49.5137 395.576L46.8672 395.563C42.3203 395.723 37.768 395.515 33.2549 394.939C11.5386 391.718 -0.888904 377.13 0.887695 356.318C2.63032 336.477 16.6879 324.047 37.6543 324.148L114.818 324.168L160.487 324.123L180.66 324.221C143.682 308.839 104.355 292.593 58.9229 273.906C29.8676 262.003 19.3341 244.926 27.4951 223.41C28.9189 219.14 31.2082 215.209 34.2197 211.864C37.2313 208.519 40.9006 205.831 44.998 203.968C58.6719 197.947 74.2039 203.05 86.1484 208.048L138.623 229.798C161.592 239.436 184.65 248.987 207.797 258.45L151.988 202.308L114.705 164.84L111.982 162.21C110.168 160.437 108.382 158.693 106.656 156.861C92.0275 141.382 91.2086 122.263 104.398 106.858C107.301 103.363 110.894 100.504 114.951 98.459C119.009 96.4142 123.445 95.2282 127.981 94.9746C133.435 94.9771 138.831 96.0831 143.845 98.2266C148.844 100.396 153.343 103.571 157.062 107.554L164.116 114.469C193.618 143.606 225.93 175.552 257.77 207.7C249.31 187.457 240.908 167.331 232.536 147.176C224.164 127.021 216.199 107.663 207.797 87.7432L207.799 87.4785C203.09 75.9577 189.284 42.3077 221.169 28.4932C225.178 26.5439 229.547 25.4446 234.001 25.2637C238.455 25.0828 242.899 25.8247 247.053 27.4424C257.824 31.8173 265.951 41.855 273.362 59.917L280.222 76.5938C294.347 111.009 308.939 146.398 323.621 181.375C323.536 156.261 323.54 131 323.571 106.21C323.597 100.829 323.624 95.4475 323.649 90.0957L323.828 52.9844L323.859 46.5156C323.937 30.4598 328.41 17.7769 336.564 9.78809C339.515 6.8436 343.026 4.52082 346.89 2.95703C350.657 1.43622 354.688 0.676304 358.751 0.720703ZM360 259.998C304.772 259.998 260 304.77 260 359.998C260 415.226 304.772 459.998 360 459.998C415.228 459.998 460 415.226 460 359.998C460 304.77 415.228 259.998 360 259.998Z" fill="#003049" fill-opacity="0.41"/>
</svg>
