<svg width="222" height="76" viewBox="0 0 222 76" fill="none" xmlns="http://www.w3.org/2000/svg">
<path d="M188.076 54.46L187.878 54.3651L187.763 54.3094L187.661 54.2668C187.509 54.2046 187.357 54.1489 187.212 54.1031L186.955 54.0212L186.708 53.959L186.527 53.9197L186.382 53.8935C186.312 53.8935 186.24 53.8673 186.151 53.8575H186.078H185.927H185.805C185.02 53.8152 184.243 54.0329 183.597 54.4764L183.547 54.5091L183.392 54.6336L183.277 54.7318L183.241 54.7646C183.198 54.7982 183.158 54.8354 183.122 54.8759C183.098 54.8949 183.076 54.9157 183.056 54.9381L182.964 55.0331V55.0494L182.855 55.1804C182.735 55.3163 182.624 55.4608 182.525 55.6127L182.479 55.6978L182.407 55.8288C182.384 55.8681 182.364 55.9107 182.344 55.9532L182.318 56.0056C182.295 56.0646 182.268 56.1235 182.255 56.1628C182.224 56.2304 182.198 56.3005 182.179 56.3724C182.114 56.5622 182.066 56.7572 182.034 56.9552H181.988V57.6396C181.988 58.3764 181.968 59.0412 181.942 59.6699C181.866 61.6346 180.848 63.5994 179.147 65.0697C178.289 65.8299 177.281 66.4055 176.188 66.7605C175.095 67.1156 173.94 67.2422 172.795 67.1326C170.648 66.8711 168.673 65.8357 167.243 64.2229C165.813 62.6101 165.029 60.532 165.04 58.383C165.04 53.5322 165.04 48.6837 165.04 43.8373C165.04 36.6496 165.04 29.2196 165.063 21.8977C165.063 19.3992 164.074 17.4442 162.004 15.915C158.085 13.0203 153.434 11.4387 148.141 11.216C144.976 11.0889 141.808 11.3263 138.698 11.9233C130.089 13.5606 123.206 18.4463 118.285 26.4035C115.8 30.4116 112.854 33.6992 109.528 36.1682C105.761 38.9647 101.855 41.7088 98.0775 44.3547L96.8546 45.1897C96.782 45.2167 96.7047 45.2289 96.6272 45.2257C96.5639 45.2258 96.5007 45.2181 96.4393 45.2028C95.1209 44.0698 93.8223 42.9106 92.4841 41.7318L92.227 41.5025C91.0107 40.4219 89.7516 39.3086 88.4992 38.228C87.8399 37.668 87.774 37.2096 88.1695 36.2632C89.2902 33.5453 90.5855 30.3297 91.6666 27.0715C92.6555 24.1244 92.8005 21.5047 92.138 18.9866C90.9679 14.5855 87.3752 11.5074 82.9849 11.1276C76.6466 10.6004 72.7671 14.3694 71.2147 18.073C69.7051 21.7077 70.338 25.3163 71.0598 28.0539C72.0189 31.6985 74.0098 35.1597 77.1476 38.6307C77.5596 39.0892 77.5497 39.2856 77.3651 39.6131C76.4323 41.2504 75.493 42.9433 74.5865 44.5675C72.7902 47.7832 70.9312 51.1167 69.0261 54.3356C67.1962 57.4019 64.7678 60.0739 61.8836 62.1946C60.1301 63.5044 58.6766 63.9366 57.1736 63.6059C55.666 63.2674 54.3172 62.4341 53.3448 61.2406C52.3724 60.047 51.8332 58.5627 51.8142 57.0273L51.7977 53.2943C51.7582 43.4706 51.7186 33.2899 51.8208 23.2894C51.857 19.3206 50.2288 16.4913 46.8471 14.6477C40.2088 11.0261 32.7763 10.1026 24.7636 11.8971C17.2255 13.5802 10.7686 18.014 5.56742 25.0674C0.554144 31.8687 -1.08398 40.0715 0.695885 49.4467C3.00311 61.5626 10.6104 69.8505 23.3331 74.0911C28.2211 75.7284 33.241 75.5909 37.5061 75.2536C39.4499 75.1013 41.3786 74.7969 43.2742 74.3432C46.3559 73.613 48.7851 72.051 50.5024 69.7097C50.7397 69.8309 50.9638 69.9488 51.1912 70.0765C54.1903 71.8173 57.7478 72.3472 61.1288 71.5566C63.6437 70.9835 65.9971 69.6737 68.535 67.4339C72.3321 64.0905 75.549 60.0792 78.3737 55.1673C79.7646 52.754 81.1193 50.2555 82.4278 47.8421L83.911 45.1111C86.2183 47.2003 88.5255 49.2895 90.8327 51.3525C90.3977 52.0074 89.9626 52.6623 89.5143 53.2943C88.3277 55.0527 87.2071 56.7129 86.1622 58.4681C84.6679 60.8604 84.0834 63.7047 84.5142 66.4875C85.3448 71.9659 90.7174 75.545 95.2231 75.7153C95.3846 75.7153 95.5527 75.7153 95.7043 75.7153C98.4824 75.7627 101.174 74.7569 103.232 72.9024C105.424 70.8755 106.644 68.02 106.759 64.6439C106.834 62.1679 106.314 59.7097 105.243 57.4726C104.531 55.9696 103.74 54.4731 102.975 53.0258C102.715 52.5346 102.455 52.0434 102.198 51.5457L104.943 49.6071L113.368 43.6572C113.622 51.6013 116.094 58.2029 120.919 63.8417C126.404 70.25 133.045 73.9732 140.652 74.8999C147.574 75.7448 155.524 76.2097 162.406 71.1931L163.207 71.6777L164.816 72.6601C171.045 76.4979 176.388 75.7906 179.773 74.5233C184.154 72.8861 187.75 69.3037 188.936 65.4135C189.407 63.8613 189.747 61.3268 189.925 59.6437L190.05 58.2913V58.2258C190.06 58.0775 190.06 57.9287 190.05 57.7804C190.064 57.0995 189.886 56.4283 189.537 55.8419C189.189 55.2555 188.683 54.777 188.076 54.46ZM156.862 38.4539C156.862 40.2484 156.862 42.0417 156.862 43.834V63.4815C156.862 65.145 156.777 65.2563 155.03 65.8162C152.206 66.7631 149.245 67.2421 146.266 67.2341C134.146 67.0508 124.937 59.8107 122.228 48.3431C120.58 41.3585 122.05 34.7831 126.585 28.8005C130.431 23.7216 135.814 20.5813 142.59 19.4614C143.624 19.2901 144.67 19.2036 145.718 19.2027C148.771 19.2027 151.918 19.9264 155.277 21.3868C156.391 21.878 156.925 22.6967 156.899 23.9705C156.843 28.8005 156.859 33.7123 156.862 38.4539ZM81.8807 30.0022C81.7653 30.2937 81.6533 30.5851 81.5511 30.8798C79.5537 27.9556 78.6539 25.4669 78.6407 22.8342C78.6407 20.8203 79.6493 19.6316 81.6796 19.3042C81.7575 19.2976 81.8358 19.2976 81.9136 19.3042C82.4485 19.3252 82.9582 19.5354 83.3507 19.8969C83.5765 20.082 83.758 20.3147 83.8823 20.578C84.0065 20.8413 84.0704 21.1288 84.0693 21.4196C83.9956 22.9875 83.7424 24.5421 83.3145 26.0531C82.9222 27.3531 82.4179 28.6302 81.8807 30.0022ZM98.1961 65.6951C97.8467 67.1654 96.6964 67.4732 95.79 67.4732C95.2697 67.4949 94.7527 67.3813 94.2902 67.1435C93.8277 66.9058 93.4358 66.5521 93.1532 66.1175C92.9106 65.6974 92.7829 65.2216 92.7829 64.7373C92.7829 64.253 92.9106 63.7771 93.1532 63.357C93.8618 61.9883 94.6331 60.6162 95.378 59.2867C95.6252 58.8479 95.8757 58.4059 96.1196 57.9769H96.1954C97.5995 60.4721 98.8784 62.8593 98.1961 65.7049V65.6951ZM43.4225 44.1189V64.0938C43.4225 65.5837 43.3434 65.6951 42.025 66.0586C32.4137 68.6258 24.345 67.2833 17.3508 61.9555C12.6407 58.3535 9.72374 53.5202 8.68549 47.5474C7.30445 39.5869 9.42051 32.5859 14.9743 26.7342C17.2252 24.4023 19.9253 22.5441 22.914 21.2705C25.9027 19.9968 29.1188 19.3337 32.3708 19.3206C35.4437 19.3396 38.485 19.9385 41.3328 21.0856C43.0698 21.7634 43.4225 22.2611 43.4225 24.0327V44.1189Z" fill="white"/>
<path d="M174.66 8.25525H216.82C217.374 8.2708 217.925 8.17557 218.441 7.97517C218.957 7.77477 219.428 7.47328 219.825 7.08854C220.222 6.70379 220.537 6.2436 220.753 5.73517C220.969 5.22674 221.08 4.68039 221.08 4.12844C221.08 3.57649 220.969 3.03015 220.753 2.52172C220.537 2.01329 220.222 1.55309 219.825 1.16834C219.428 0.783597 218.957 0.482115 218.441 0.28172C217.925 0.0813242 217.374 -0.0139143 216.82 0.00163965H174.66C173.582 0.0319273 172.558 0.480001 171.806 1.25062C171.054 2.02124 170.634 3.05365 170.634 4.12844C170.634 5.20322 171.054 6.23565 171.806 7.00627C172.558 7.77689 173.582 8.22496 174.66 8.25525Z" fill="#5BC0EB"/>
<path d="M220.534 70.2949C220.493 70.1616 220.442 70.0312 220.383 69.9047V69.4784H220.139C219.034 67.8847 216.579 67.5535 216.092 67.5109V67.4912H215.858C215.435 67.4739 215.011 67.5036 214.595 67.5797C214.026 67.6708 213.452 67.7202 212.877 67.7273C212.416 67.7273 211.959 67.7273 211.511 67.6847H211.478C211.363 67.6847 211.245 67.6584 211.133 67.642C208.467 67.2453 205.66 66.6386 203.206 64.8744C200.958 63.2611 199.819 61.0411 199.727 58.0932C199.691 56.9192 199.698 55.7715 199.701 54.6632C199.701 54.3025 199.701 53.9451 199.701 53.5909C199.701 51.8759 200.251 50.9053 201.675 50.1281C201.87 50.0199 202.547 49.633 202.738 49.5182C203.396 49.1083 204.055 48.7476 204.673 48.3967C206.036 47.6713 207.339 46.8414 208.573 45.9144C213.199 42.3074 215.75 37.5723 216.161 31.8141C216.51 26.856 214.624 21.8455 210.991 18.0679C207.977 14.9298 204.581 12.8213 200.899 11.7523C197.141 10.68 193.067 10.7194 188.789 11.8704C187.042 12.3509 185.36 13.0424 183.781 13.9297L183.123 14.2871L183.188 14.3527L182.55 14.7626L181.323 15.5397L181.27 15.5758C179.582 16.9235 179.042 19.2386 180.016 20.9503L180.059 21.0224C180.288 21.4 180.583 21.7332 180.931 22.0062C181.717 22.5999 182.675 22.9229 183.661 22.9264C184.647 22.93 185.607 22.6139 186.397 22.0259L187.009 21.6652C187.338 21.475 187.637 21.311 187.914 21.1635C188.19 21.0159 188.447 20.8814 188.7 20.7568C189.029 20.6027 189.358 20.465 189.687 20.3371C190.843 19.8763 192.065 19.6018 193.307 19.5239C197.01 19.2671 200.68 20.3693 203.623 22.6227C208.151 26.0723 209.116 30.6992 206.414 36.0016C205.124 38.5298 202.728 40.0021 200.408 41.4253C199.856 41.7532 199.28 42.0975 198.72 42.409L198.431 42.5763C193.959 35.1457 188.444 36.2967 185.518 37.6575C181.056 39.7529 179.23 43.8584 180.75 48.3705C182.228 52.7678 185.584 54.5091 191.58 53.968C191.58 54.2467 191.58 54.5287 191.58 54.8075C191.58 55.9093 191.58 57.0471 191.58 58.1719V58.4506C191.578 59.5413 191.656 60.6307 191.813 61.7101C192.33 65.0933 194.105 68.1591 196.785 70.2981C201.662 74.2495 207.049 76.1481 212.775 75.9383L212.897 75.9973L213.035 75.9317C214.044 75.9105 215.051 75.8372 216.052 75.712H216.121L216.661 75.5776L217.977 75.2497L218.046 75.2103C219.837 74.1643 220.853 72.3706 220.616 70.7572L220.784 70.5867L220.534 70.2949ZM191.846 46.6326C191.323 47.0805 190.66 47.3343 189.97 47.3507C189.552 47.368 189.137 47.2681 188.772 47.0623C188.407 46.8566 188.108 46.5532 187.907 46.1866C187.812 45.7886 187.846 45.371 188.003 44.993C188.145 44.7909 188.338 44.6287 188.561 44.5219C188.785 44.4151 189.032 44.3673 189.279 44.3831C189.473 44.3845 189.667 44.4076 189.855 44.4519C190.945 44.7011 191.392 45.3406 191.846 46.6326Z" fill="#5BC0EB"/>
</svg>
