<svg width="395" height="705" viewBox="0 0 395 705" fill="none" xmlns="http://www.w3.org/2000/svg">
<path d="M108.013 98.9546C104.262 103.098 101.609 108.115 100.296 113.548C97.4338 125.718 101.464 138.837 111.379 149.508C131.726 171.233 152.736 193.306 173.046 214.447L189.52 231.926C194.876 237.548 200.306 243.271 205.841 248.962C178.794 237.047 151.664 224.945 125.26 213.162L94.7661 199.565C93.1754 198.853 91.7888 198.229 90.2884 197.551C86.5091 195.794 82.7056 194.017 78.6421 192.462C57.8368 184.365 38.5281 191.224 30.6198 209.498C22.5795 228.415 30.6427 247.179 51.0185 256.427C73.8729 266.799 97.158 277.13 119.716 287.14C129.392 291.416 139.048 295.716 148.685 300.039L161.958 305.989L176.452 312.427L113.904 310.814L49.4524 309.063L46.8366 308.973C42.3848 308.718 37.9197 308.81 33.4821 309.247C12.0623 311.881 -0.508531 326.051 0.735342 346.378C1.946 365.926 15.4492 378.395 36.0324 378.952L111.798 380.89L156.622 382.077L176.433 382.514C139.748 396.671 100.689 411.649 55.6393 428.87C26.8149 439.905 16.0545 456.353 23.5225 477.674C24.8098 481.91 26.9607 485.832 29.8384 489.195C32.716 492.558 36.2584 495.288 40.2428 497.214C53.5025 503.469 68.8826 498.845 80.8339 494.254L132.881 474.193C155.682 465.294 178.564 456.489 201.528 447.778L145.339 501.39L107.783 537.343L105.035 539.874C103.224 541.552 101.412 543.231 99.6718 544.967C84.973 559.803 83.6527 578.579 96.2308 594.007C98.9979 597.525 102.465 600.432 106.412 602.541C110.359 604.651 114.701 605.918 119.163 606.262C124.517 606.418 129.846 605.467 134.814 603.466C139.783 601.465 144.285 598.459 148.038 594.636C179.57 565.014 214.705 532.059 249.424 498.841C231.993 537.743 214.852 576.291 197.332 615.397C192.523 626.325 177.628 659.435 208.84 673.938C212.731 675.953 216.997 677.14 221.369 677.427C225.742 677.714 230.126 677.094 234.247 675.606C244.93 671.596 253.166 661.939 260.854 644.513L268.011 628.312C282.744 594.87 297.947 560.469 313.235 526.494C312.349 556.506 311.638 586.74 310.908 616.129L310.029 652.595L309.953 654.906L309.881 658.803C309.634 674.583 313.609 687.144 321.441 695.195C324.259 698.164 327.647 700.533 331.402 702.161C335.157 703.788 339.203 704.64 343.295 704.666C351.297 704.746 377.538 701.876 378.609 660.741C380.002 608.006 381.38 555.274 382.746 502.542C366.664 498.092 351.229 490.29 337.498 479.024C284.865 435.838 277.205 358.161 320.39 305.528C338.656 283.266 363.091 269.051 389.191 263.324L394.763 46.6767L394.843 43.3C395.44 6.84056 373.81 0.954342 360.835 0.669053C350.667 0.432984 326.854 3.91129 325.83 40.891C325.096 68.4035 324.376 95.915 323.671 123.425L323.359 134.799C323.003 148.591 322.646 162.817 322.429 176.921C312.819 152.377 303.161 127.359 293.847 103.177C287.019 85.3351 280.143 67.5185 273.219 49.7292C260.616 17.3098 238.902 19.386 227.1 23.5052C222.812 24.8251 218.842 27.0148 215.438 29.9377C212.033 32.8608 209.267 36.4548 207.313 40.4949C202.888 50.0368 203.296 61.4494 208.621 75.3542C223.969 115.566 240.272 158.183 256.992 201.302C224.498 167.192 192.807 133.742 162.565 101.758C157.895 96.6982 143.503 81.6008 121.766 89.8291C116.491 91.6738 111.763 94.8114 108.013 98.9546Z" fill="#003049" fill-opacity="0.41" style="mix-blend-mode:color-dodge"/>
</svg>
