<svg width="34" height="32" viewBox="0 0 34 32" fill="none" xmlns="http://www.w3.org/2000/svg">
<path d="M33.5145 14.268C33.483 13.6421 33.3684 13.5276 32.7504 13.5078C32.5214 13.5078 32.2904 13.5078 32.0653 13.5078C29.1234 13.5078 26.448 14.1219 24.1102 15.3342C21.7725 16.5465 19.7052 18.3847 17.9578 20.8074L17.9026 20.8844C17.4109 21.5636 17.1641 21.9052 16.7613 21.9052C16.3585 21.9052 16.1256 21.5754 15.6537 20.918L15.5984 20.839C13.851 18.4104 11.7837 16.5643 9.45586 15.35C7.12798 14.1357 4.44075 13.5137 1.50277 13.5137C1.27768 13.5137 1.05062 13.5137 0.821583 13.5236C0.170015 13.5453 0.0574708 13.648 0.0318029 14.2522C-0.108798 16.5284 0.217809 18.8093 0.991532 20.9547C1.76525 23.1 2.96973 25.0643 4.53086 26.7268C6.09199 28.3893 7.97676 29.7147 10.0692 30.6217C12.1617 31.5287 14.4176 31.9979 16.6981 32.0006H16.8581C19.1241 31.9967 21.3656 31.5308 23.4456 30.6316C25.5256 29.7323 27.4004 28.4184 28.9555 26.7702C30.5259 25.1057 31.7405 23.1387 32.5254 20.9892C33.3102 18.8396 33.6488 16.5527 33.5205 14.268H33.5145ZM14.4868 27.8068C14.3964 27.9186 14.2801 28.0065 14.1479 28.0629C14.0157 28.1194 13.8718 28.1426 13.7286 28.1306C13.6294 28.1307 13.5305 28.1234 13.4324 28.1089L13.3791 28.0971C9.87444 27.1 7.16352 25.0327 5.31938 21.9506C4.73044 20.9761 4.2824 19.9231 3.9886 18.8231C3.88001 18.4143 3.803 17.9543 4.04191 17.6384C4.11835 17.5476 4.2154 17.4763 4.32497 17.4306C4.43454 17.385 4.55344 17.3662 4.67176 17.3758C4.91398 17.3856 5.15345 17.4308 5.38257 17.51C10.0146 18.9415 13.0967 22.0513 14.544 26.7308C14.6388 27.0289 14.7375 27.4751 14.4927 27.8068H14.4868ZM29.6249 18.6078C28.9476 22.6101 24.0471 27.4929 20.0883 28.1129C19.9871 28.1294 19.8848 28.1379 19.7822 28.1385C19.6614 28.1456 19.5405 28.1269 19.4275 28.0837C19.3145 28.0405 19.2119 27.9737 19.1267 27.8878C19.0352 27.7698 18.969 27.6342 18.9323 27.4895C18.8956 27.3448 18.8892 27.194 18.9135 27.0467C19.0596 25.2854 20.4042 22.9793 22.509 20.8765C24.6137 18.7737 26.9021 17.4587 28.6297 17.3659H28.7304C28.8677 17.356 29.0054 17.3769 29.1336 17.4271C29.2617 17.4773 29.3769 17.5556 29.4709 17.6561C29.7098 17.9385 29.6762 18.3354 29.6308 18.6078H29.6249Z" fill="#66101F"/>
<path d="M19.1551 15.2568C19.1572 15.5685 19.0974 15.8775 18.979 16.1659C18.8607 16.4544 18.6863 16.7164 18.4658 16.9368C18.2454 17.1573 17.9834 17.3317 17.695 17.45C17.4065 17.5684 17.0975 17.6282 16.7858 17.6261H16.6989C16.094 17.5958 15.5221 17.3411 15.095 16.9117C14.6678 16.4824 14.416 15.9092 14.3888 15.3041C14.3754 14.9828 14.4275 14.6621 14.5421 14.3615C14.6566 14.061 14.8311 13.7869 15.055 13.556C15.2789 13.325 15.5475 13.1421 15.8444 13.0184C16.1412 12.8946 16.4602 12.8326 16.7818 12.8361H16.8489C17.1602 12.8406 17.4675 12.9072 17.7527 13.0319C18.0379 13.1566 18.2955 13.3369 18.5102 13.5623C18.7249 13.7877 18.8926 14.0536 19.0033 14.3446C19.114 14.6355 19.1656 14.9456 19.1551 15.2568Z" fill="#66101F"/>
<path d="M32.405 10.4805C32.405 10.4983 32.405 10.518 32.405 10.5398C32.405 10.5615 32.405 10.5654 32.405 10.5812C32.4006 10.6021 32.3973 10.6232 32.3951 10.6444C32.3297 11.0823 32.1215 11.4863 31.8028 11.7935C31.6595 11.9346 31.4888 12.0448 31.3013 12.1173C31.2543 12.1362 31.2061 12.152 31.1571 12.1647H31.1433C31.0077 12.2027 30.8675 12.2219 30.7267 12.222C30.6607 12.2212 30.5947 12.2166 30.5293 12.2082H30.4542C30.336 12.2165 30.2185 12.2336 30.1028 12.2595C29.9971 12.2877 29.8883 12.3029 29.779 12.3049H29.702C29.4433 12.2871 29.238 12.1489 28.9477 11.5151C26.5152 6.2848 22.3155 3.52056 16.8029 3.52056H16.7614C11.2171 3.53438 7.01749 6.31836 4.61261 11.5665C4.33421 12.1746 4.10715 12.2871 3.76162 12.2871C3.67167 12.2871 3.58187 12.2799 3.49309 12.2654C3.38055 12.2496 3.26208 12.2358 3.14559 12.224H3.10412H2.99356C2.79489 12.2253 2.59783 12.1884 2.41307 12.1154C2.21808 12.0378 2.04078 11.9216 1.89181 11.7738C1.64697 11.5304 1.47887 11.2205 1.40833 10.8826C1.33779 10.5446 1.36791 10.1934 1.49495 9.87238C1.50679 9.84277 1.51864 9.81315 1.52851 9.78551C1.75825 9.21116 2.03564 8.65703 2.35778 8.12894C2.56663 7.78247 2.79608 7.44885 3.04489 7.12986V7.11604C3.89689 5.91349 4.90252 4.82754 6.03618 3.88583C9.01525 1.36427 12.7953 -0.0133475 16.6982 9.74904e-05C19.174 0.00304198 21.6197 0.541905 23.8675 1.57966C26.1416 2.63493 28.1502 4.18675 29.7454 6.12092C29.7751 6.15687 29.8113 6.187 29.852 6.20977C30.0218 6.38944 30.1916 6.57504 30.3515 6.76656L30.3654 6.78236C30.7172 7.20479 31.0379 7.65219 31.325 8.12104C31.7761 8.86255 32.1386 9.65447 32.405 10.4805Z" fill="#66101F"/>
<path d="M24.5109 12.0785C24.4988 12.088 24.4875 12.0986 24.4773 12.1101C24.441 12.1485 24.4014 12.1835 24.3588 12.2147C24.1788 12.3476 23.9696 12.4356 23.7487 12.4714L23.7132 12.4813C23.6101 12.4989 23.5058 12.5075 23.4012 12.507C23.0942 12.501 22.7916 12.4323 22.5121 12.305C22.2326 12.1776 21.9822 11.9944 21.7763 11.7665C21.6527 11.4829 21.4855 11.2204 21.2807 10.9886C21.2392 10.9471 21.1898 10.8958 21.1306 10.8445C19.9636 9.70688 18.3988 9.06936 16.769 9.06746C15.6788 9.06033 14.607 9.34933 13.6682 9.90362C12.7293 10.4579 11.9585 11.2567 11.438 12.2147L11.3512 12.3668L11.3314 12.4003C11.3207 12.4173 11.3114 12.4351 11.3038 12.4537C11.0239 12.5806 10.7206 12.6478 10.4133 12.6511H10.3165C9.87983 12.6388 9.45877 12.4857 9.11607 12.2147C9.03064 12.1482 8.95195 12.0735 8.88111 11.9916C8.60348 11.6725 8.42506 11.2793 8.36776 10.8603C8.34006 10.6823 8.36835 10.5002 8.44871 10.339L8.46056 10.3212C8.8632 9.54344 9.39763 8.84133 10.0401 8.24609C10.2287 8.07238 10.4264 7.90892 10.6325 7.75642C10.6493 7.74526 10.6651 7.73271 10.6798 7.71891C12.216 6.4513 14.145 5.72075 16.4196 5.547C16.5321 5.547 16.6466 5.53516 16.7572 5.53516C16.8678 5.53516 16.9546 5.53516 17.0455 5.53516C19.7663 5.70693 22.0013 6.69416 23.6875 8.46328C23.6954 8.472 23.7026 8.48123 23.7092 8.49092C24.1255 8.93004 24.5021 9.40511 24.8347 9.91055C24.8603 9.97374 24.884 10.0409 24.9077 10.108C25.1091 10.8603 24.9551 11.6264 24.5109 12.0785Z" fill="#66101F"/>
</svg>
