<svg width="98" height="34" viewBox="0 0 98 34" fill="none" xmlns="http://www.w3.org/2000/svg">
<path d="M83.3702 24.3213L83.2825 24.2791L83.2314 24.2543L83.1861 24.2354C83.1189 24.2077 83.0517 24.183 82.9874 24.1626L82.8734 24.1261L82.7639 24.0985L82.6835 24.081L82.6192 24.0693C82.5885 24.0693 82.5564 24.0577 82.5169 24.0533H82.4848H82.4176H82.3635C82.0156 24.0345 81.6714 24.1313 81.3846 24.3286L81.3627 24.3432L81.294 24.3985L81.2429 24.4422L81.2268 24.4568C81.2079 24.4718 81.1903 24.4883 81.1742 24.5063C81.1638 24.5148 81.154 24.524 81.145 24.534L81.1041 24.5763V24.5835L81.0559 24.6418C81.0025 24.7023 80.9537 24.7665 80.9098 24.8341L80.8893 24.872L80.8572 24.9302C80.8469 24.9477 80.8382 24.9666 80.8294 24.9856L80.8177 25.0089C80.8075 25.0351 80.7958 25.0613 80.7899 25.0788C80.7761 25.1089 80.7649 25.1401 80.7563 25.172C80.7275 25.2565 80.7061 25.3432 80.6921 25.4313H80.6716V25.7357C80.6716 26.0635 80.6628 26.3592 80.6512 26.6389C80.6175 27.5129 80.1661 28.3869 79.4122 29.0409C79.0317 29.3791 78.5851 29.6351 78.1006 29.7931C77.6161 29.951 77.1041 30.0073 76.5967 29.9586C75.6449 29.8423 74.7691 29.3817 74.1354 28.6642C73.5017 27.9468 73.1542 27.0224 73.1588 26.0664C73.1588 23.9086 73.1588 21.7518 73.1588 19.596C73.1588 16.3986 73.1588 13.0935 73.169 9.83639C73.169 8.72497 72.7307 7.85535 71.8132 7.17509C70.0759 5.88741 68.0144 5.18385 65.6679 5.0848C64.2651 5.02827 62.8604 5.13385 61.4819 5.39943C57.6656 6.12776 54.6149 8.30108 52.4335 11.8407C51.3319 13.6237 50.0257 15.0862 48.5515 16.1845C46.8815 17.4285 45.1501 18.6491 43.4757 19.8261L42.9337 20.1976C42.9015 20.2096 42.8672 20.215 42.8329 20.2136C42.8048 20.2136 42.7768 20.2102 42.7496 20.2034C42.1651 19.6994 41.5895 19.1837 40.9963 18.6593L40.8823 18.5574C40.3432 18.0767 39.7851 17.5814 39.2299 17.1007C38.9377 16.8516 38.9084 16.6477 39.0838 16.2267C39.5805 15.0177 40.1547 13.5873 40.634 12.1379C41.0723 10.8269 41.1366 9.66159 40.8429 8.54143C40.3242 6.58369 38.7316 5.21444 36.7855 5.04546C33.9759 4.81094 32.2562 6.48755 31.568 8.13503C30.8989 9.75191 31.1794 11.3571 31.4994 12.5749C31.9245 14.1961 32.807 15.7358 34.1979 17.2799C34.3806 17.4838 34.3762 17.5712 34.2944 17.7169C33.8809 18.4452 33.4645 19.1983 33.0627 19.9208C32.2664 21.3512 31.4424 22.8341 30.5979 24.266C29.7867 25.63 28.7102 26.8186 27.4317 27.7619C26.6545 28.3446 26.0101 28.5369 25.3439 28.3898C24.6756 28.2392 24.0777 27.8685 23.6467 27.3376C23.2156 26.8066 22.9766 26.1464 22.9682 25.4634L22.9609 23.8028C22.9433 19.4328 22.9258 14.9041 22.9711 10.4555C22.9872 8.69001 22.2654 7.43146 20.7664 6.61136C17.8238 5.00031 14.5291 4.58953 10.9772 5.38778C7.63573 6.1365 4.77349 8.1088 2.46793 11.2464C0.245641 14.2719 -0.480505 17.9208 0.308472 22.0912C1.33122 27.4808 4.70336 31.1676 10.3431 33.054C12.5099 33.7823 14.7351 33.7211 16.6257 33.5711C17.4873 33.5034 18.3423 33.3679 19.1825 33.1661C20.5486 32.8413 21.6255 32.1465 22.3867 31.105C22.4919 31.1589 22.5912 31.2113 22.692 31.2681C24.0214 32.0425 25.5984 32.2782 27.0972 31.9265C28.2119 31.6716 29.2552 31.0889 30.3802 30.0926C32.0633 28.6053 33.4893 26.821 34.7415 24.636C35.358 23.5624 35.9585 22.451 36.5386 21.3774L37.1961 20.1626C38.2188 21.0919 39.2416 22.0213 40.2643 22.939C40.0714 23.2303 39.8786 23.5216 39.6799 23.8028C39.1539 24.585 38.6571 25.3235 38.194 26.1043C37.5315 27.1685 37.2724 28.4337 37.4634 29.6716C37.8316 32.1086 40.2132 33.7007 42.2104 33.7765C42.282 33.7765 42.3566 33.7765 42.4238 33.7765C43.6552 33.7976 44.8485 33.3501 45.7608 32.5252C46.7324 31.6235 47.273 30.3533 47.3242 28.8515C47.3572 27.7501 47.1268 26.6566 46.6521 25.6615C46.3365 24.9929 45.9858 24.3272 45.6469 23.6833C45.5315 23.4648 45.416 23.2463 45.3021 23.0249L46.5191 22.1626L50.2536 19.5158C50.3661 23.0497 51.4619 25.9863 53.6009 28.4946C56.0322 31.3453 58.9762 33.0015 62.3484 33.4138C65.4166 33.7896 68.9407 33.9964 71.9914 31.7648L72.3465 31.9804L73.0594 32.4174C75.8209 34.1246 78.1892 33.81 79.6898 33.2462C81.6315 32.5179 83.2256 30.9243 83.7515 29.1938C83.9605 28.5034 84.111 27.3759 84.1899 26.6272L84.2454 26.0256V25.9965C84.2498 25.9305 84.2498 25.8643 84.2454 25.7984C84.2513 25.4955 84.1726 25.1969 84.018 24.936C83.8635 24.6752 83.6392 24.4624 83.3702 24.3213ZM69.5339 17.2012C69.5339 17.9995 69.5339 18.7972 69.5339 19.5945V28.3344C69.5339 29.0744 69.4959 29.1239 68.7215 29.373C67.47 29.7942 66.1575 30.0073 64.8366 30.0037C59.4642 29.9222 55.382 26.7015 54.181 21.6003C53.4504 18.4933 54.1021 15.5683 56.1125 12.907C57.8176 10.6477 60.2035 9.25082 63.2075 8.75264C63.6657 8.67646 64.1294 8.63797 64.594 8.63757C65.947 8.63757 67.3423 8.95949 68.8311 9.60916C69.325 9.82765 69.5616 10.1918 69.55 10.7585C69.5251 12.907 69.5324 15.092 69.5339 17.2012ZM36.296 13.4416C36.2449 13.5712 36.1952 13.7009 36.1499 13.832C35.2645 12.5312 34.8657 11.4241 34.8598 10.253C34.8598 9.35715 35.3069 8.82839 36.2069 8.68272C36.2414 8.67978 36.2761 8.67978 36.3106 8.68272C36.5477 8.69207 36.7737 8.78558 36.9477 8.94638C37.0477 9.02874 37.1282 9.13222 37.1833 9.24936C37.2384 9.36649 37.2667 9.49436 37.2662 9.62372C37.2335 10.3212 37.1213 11.0127 36.9316 11.6849C36.7577 12.2632 36.5342 12.8313 36.296 13.4416ZM43.5283 29.3191C43.3735 29.9731 42.8635 30.1101 42.4618 30.1101C42.2311 30.1198 42.0019 30.0692 41.7969 29.9634C41.5919 29.8577 41.4182 29.7003 41.2929 29.507C41.1854 29.3201 41.1288 29.1085 41.1288 28.893C41.1288 28.6776 41.1854 28.4659 41.2929 28.2791C41.607 27.6702 41.9489 27.0598 42.2791 26.4684C42.3887 26.2732 42.4997 26.0766 42.6079 25.8858H42.6415C43.2639 26.9957 43.8308 28.0576 43.5283 29.3235V29.3191ZM19.2483 19.7212V28.6068C19.2483 29.2696 19.2132 29.3191 18.6288 29.4808C14.3683 30.6228 10.7916 30.0256 7.69124 27.6556C5.60338 26.0533 4.31034 23.9033 3.8501 21.2463C3.23791 17.7052 4.17592 14.5909 6.63782 11.9879C7.63557 10.9505 8.8325 10.124 10.1573 9.55741C11.4821 8.99084 12.9078 8.69585 14.3493 8.69001C15.7115 8.69847 17.0596 8.96491 18.322 9.47514C19.092 9.77667 19.2483 9.99808 19.2483 10.7861V19.7212Z" fill="#8F0707"/>
<path d="M77.4234 3.7699H96.1121C96.3575 3.77682 96.6018 3.73445 96.8306 3.64531C97.0594 3.55616 97.2679 3.42205 97.444 3.2509C97.62 3.07975 97.76 2.87504 97.8555 2.64887C97.9511 2.4227 98.0003 2.17966 98.0003 1.93414C98.0003 1.68861 97.9511 1.44558 97.8555 1.21941C97.76 0.993242 97.62 0.788528 97.444 0.617379C97.2679 0.446229 97.0594 0.312119 96.8306 0.222976C96.6018 0.133832 96.3575 0.0914666 96.1121 0.0983856H77.4234C76.9455 0.111859 76.4917 0.311178 76.1584 0.653979C75.8251 0.99678 75.6387 1.45603 75.6387 1.93414C75.6387 2.41224 75.8251 2.8715 76.1584 3.2143C76.4917 3.5571 76.9455 3.75642 77.4234 3.7699Z" fill="#5BC0EB"/>
<path d="M97.7589 31.3674C97.7404 31.3081 97.718 31.2501 97.6918 31.1939V31.0042H97.5838C97.0937 30.2953 96.0055 30.148 95.7896 30.129V30.1203H95.6861C95.4985 30.1125 95.3106 30.1258 95.126 30.1596C94.8741 30.2002 94.6196 30.2221 94.3645 30.2253C94.1603 30.2253 93.9576 30.2253 93.7592 30.2063H93.7446C93.6935 30.2063 93.641 30.1947 93.5914 30.1874C92.4099 30.0109 91.1656 29.741 90.0775 28.9562C89.0812 28.2386 88.5765 27.251 88.5356 25.9397C88.5196 25.4175 88.5225 24.9069 88.524 24.4139C88.524 24.2534 88.524 24.0944 88.524 23.9369C88.524 23.174 88.7676 22.7422 89.3992 22.3965C89.4852 22.3484 89.7857 22.1763 89.8703 22.1252C90.1621 21.9429 90.4538 21.7824 90.728 21.6263C91.332 21.3036 91.9099 20.9344 92.4566 20.5221C94.5075 18.9176 95.638 16.8112 95.8203 14.2498C95.9749 12.0442 95.1391 9.81538 93.5287 8.13497C92.1925 6.73901 90.6872 5.80108 89.0549 5.32555C87.3891 4.84856 85.5832 4.86606 83.6869 5.37806C82.9123 5.59181 82.1668 5.89945 81.4668 6.29412L81.1751 6.45311L81.2043 6.48228L80.9213 6.66462L80.3772 7.01033L80.3539 7.02637C79.6056 7.62589 79.3663 8.65572 79.7981 9.41715L79.8171 9.44925C79.9185 9.61718 80.0495 9.76542 80.2036 9.88685C80.5518 10.1509 80.9765 10.2946 81.4136 10.2962C81.8506 10.2978 82.2763 10.1572 82.6265 9.89561L82.8978 9.73515C83.0437 9.65055 83.1764 9.57761 83.2989 9.51197C83.4215 9.44633 83.5352 9.38652 83.6476 9.33109C83.7934 9.26253 83.9393 9.20127 84.0852 9.14438C84.5974 8.93941 85.1391 8.8173 85.6897 8.78263C87.3312 8.66843 88.9578 9.15873 90.2627 10.1611C92.2698 11.6956 92.6973 13.7538 91.4997 16.1125C90.9279 17.2372 89.8659 17.8921 88.8376 18.5252C88.5925 18.671 88.3372 18.8242 88.0893 18.9628L87.9609 19.0372C85.9785 15.7318 83.5338 16.2438 82.237 16.8492C80.259 17.7813 79.4495 19.6075 80.1234 21.6147C80.7783 23.5708 82.2662 24.3453 84.9239 24.1046C84.9239 24.2286 84.9239 24.3541 84.9239 24.4781C84.9239 24.9682 84.9239 25.4744 84.9239 25.9747V26.0987C84.923 26.5839 84.9576 27.0685 85.0275 27.5486C85.2564 29.0536 86.0433 30.4174 87.2316 31.3689C89.3933 33.1266 91.7812 33.9712 94.3193 33.8778L94.3733 33.9041L94.4345 33.8749C94.8818 33.8655 95.3283 33.8328 95.7721 33.7772H95.8028L96.042 33.7174L96.6255 33.5715L96.6561 33.554C97.4496 33.0887 97.9004 32.2908 97.7953 31.5731L97.8697 31.4973L97.7589 31.3674ZM85.0421 20.8416C84.8101 21.0408 84.5163 21.1537 84.2106 21.161C84.025 21.1687 83.841 21.1243 83.6793 21.0327C83.5177 20.9412 83.3849 20.8063 83.296 20.6432C83.2539 20.4662 83.2687 20.2804 83.3383 20.1122C83.4015 20.0223 83.4868 19.9502 83.5859 19.9027C83.685 19.8552 83.7946 19.8339 83.9043 19.8409C83.9903 19.8415 84.0759 19.8518 84.1596 19.8715C84.6424 19.9824 84.8408 20.2668 85.0421 20.8416Z" fill="#5BC0EB"/>
</svg>
