<svg width="43" height="42" viewBox="0 0 43 42" fill="none" xmlns="http://www.w3.org/2000/svg">
<path d="M16.2734 1.45703C17.3013 0.820164 18.5855 1.11113 19.4326 2.17871L19.5967 2.40234C19.9422 2.91799 20.3 3.42435 20.6543 3.92871C20.8316 4.18113 21.0085 4.43309 21.1826 4.68652L21.6963 5.45312C21.8006 5.61197 21.9024 5.73966 22.0078 5.82715C22.1157 5.91667 22.2382 5.97245 22.376 5.96582C22.5092 5.95931 22.6272 5.8953 22.7324 5.81055C22.7853 5.76791 22.8393 5.71703 22.8936 5.65918L23.0596 5.4668C23.6506 4.73137 24.2864 4.02788 24.9375 3.33594L25.5928 2.64648C26.4931 1.7035 27.7991 1.60845 28.6924 2.3418V2.34277C29.1879 2.75376 29.4827 3.2764 29.5518 3.82422C29.612 4.30272 29.5013 4.81083 29.1885 5.29297L29.042 5.49805C28.2706 6.47896 27.4275 7.38675 26.5918 8.32031L25.7607 9.2666C25.5946 9.46097 25.3643 9.7028 25.2598 9.97754C25.2048 10.1221 25.1815 10.2809 25.2158 10.4531C25.2414 10.5814 25.2969 10.7101 25.3857 10.8398L25.4854 10.9697C25.5858 11.0885 25.686 11.1967 25.7881 11.2803C25.8901 11.3638 26.0049 11.4317 26.1357 11.4531C26.3791 11.4928 26.5984 11.3656 26.8145 11.127L26.9072 11.0186C27.5532 10.2108 28.2134 9.41595 28.877 8.62305L30.8682 6.23926C31.5104 5.46268 32.2264 4.94805 33.1904 5.06836L33.3867 5.10059C34.1867 5.26533 34.7935 5.68954 35.0859 6.44531L35.1396 6.60059C35.3984 7.43597 35.1982 8.14228 34.707 8.82031L34.4785 9.10938C33.489 10.264 32.5037 11.4213 31.5215 12.5801L28.585 16.0625C27.2855 17.606 26.0307 19.1767 24.7266 20.708L24.1641 21.3613C23.9414 21.6175 23.7982 21.8625 23.7607 22.1309C23.7234 22.3992 23.7958 22.6638 23.9434 22.9531V22.9541C24.1584 23.4005 24.3515 23.8574 24.5225 24.3223L24.6865 24.79L24.6875 24.7939C24.8099 25.1354 24.9793 25.4246 25.2168 25.6064C25.4576 25.7906 25.7514 25.8496 26.0889 25.7695L35.9854 24.8662C36.4348 24.8247 36.8838 24.776 37.3311 24.7275L38.6729 24.5908C40.1254 24.4595 41.3314 25.4039 41.4482 26.6738C41.5575 27.862 40.6796 28.9199 39.3604 29.1611L39.0908 29.1982C38.4633 29.2581 37.8326 29.3166 37.2012 29.373L35.3057 29.5352C35.1417 29.5477 34.9991 29.575 34.8838 29.624C34.7658 29.6743 34.6675 29.7518 34.6123 29.8672C34.5582 29.9804 34.5578 30.1053 34.583 30.2275C34.5956 30.2883 34.6151 30.352 34.6406 30.418L34.7344 30.624C34.9996 31.1408 35.2486 31.6667 35.498 32.1953C35.6226 32.4593 35.7474 32.724 35.874 32.9883L36.2607 33.7783C36.9007 35.0458 36.6095 36.3707 35.6299 36.9922L35.4248 37.1064C34.765 37.4287 34.1014 37.4485 33.5244 37.2178C33.0185 37.0154 32.5672 36.616 32.2402 36.0371L32.1084 35.7773C31.7369 34.9717 31.3628 34.1746 30.9893 33.377L29.8701 30.9727C29.6799 30.5609 29.4313 30.2858 29.0986 30.1533C28.8117 30.0392 28.4853 30.0408 28.124 30.1162L27.9668 30.1523C27.6209 30.2416 27.3729 30.3779 27.2803 30.6221C27.2146 30.7954 27.2427 30.988 27.3076 31.1846L27.3828 31.3818C27.775 32.3211 28.1636 33.2622 28.5508 34.2041L29.709 37.0322L29.7109 37.0352C29.8591 37.3791 29.9975 37.7242 30.1221 38.0732L30.2412 38.4248C30.6282 39.6112 30.171 40.7386 29.1562 41.252L28.9492 41.3447C28.4717 41.5236 27.95 41.5374 27.4668 41.3877L27.2617 41.3145C26.7912 41.1181 26.4021 40.7707 26.1523 40.3311L26.0537 40.1367C25.6233 39.1608 25.2142 38.1757 24.8125 37.1865L23.6143 34.2119L21.6904 29.4795L19.7871 24.7383C19.7188 24.5595 19.623 24.3929 19.5039 24.2441L19.376 24.1006C19.1956 23.918 18.979 23.7749 18.7402 23.6807H18.7393C18.5477 23.6 18.3503 23.5338 18.1484 23.4844H18.1475C17.4684 23.3086 16.9462 23.173 16.5312 23.1113C16.1144 23.0494 15.779 23.0577 15.4844 23.1914C15.1902 23.325 14.9631 23.5722 14.7334 23.9268C14.6187 24.1038 14.4993 24.3136 14.3691 24.5576L13.9375 25.3945C13.1726 26.8974 12.4054 28.3987 11.6357 29.8984L9.31934 34.3936V34.3945C8.89824 35.2109 8.49809 35.9418 7.62305 36.2236L7.44141 36.2744C5.76159 36.6686 4.30603 35.3011 4.65137 33.6768L4.69043 33.5186C4.9092 32.7465 5.27239 32.0355 5.67188 31.3252C6.06856 30.6199 6.50636 29.9076 6.85352 29.1572L6.85254 29.1562C6.9819 28.8819 7.08749 28.6646 7.14844 28.4951C7.2074 28.331 7.24566 28.1616 7.17676 28.0088C7.10771 27.8556 6.95518 27.772 6.79199 27.708C6.70763 27.675 6.6069 27.6421 6.49023 27.6074L6.09277 27.4951C5.37013 27.2906 4.64883 27.0818 3.92871 26.8691L1.77148 26.2188L1.76758 26.2178L1.5625 26.1484C1.16128 25.9913 0.81502 25.7197 0.567383 25.3672L0.452148 25.1846C0.202895 24.743 0.11503 24.2308 0.200195 23.7354L0.24707 23.5244H0.248047C0.559568 22.3706 1.60595 21.652 2.73828 21.833L2.96582 21.8818C3.9173 22.1337 4.86395 22.403 5.80957 22.6777L8.64746 23.5068H8.64844C9.08139 23.6315 9.53397 23.4908 9.86719 23.2236C10.1588 22.9897 10.378 22.6442 10.415 22.2588L10.4189 22.0908L10.4102 22.001C10.3958 21.9149 10.3655 21.8392 10.3184 21.7754C10.2554 21.6904 10.1731 21.6415 10.0938 21.6123C10.0168 21.584 9.93562 21.5714 9.87012 21.5625L9.69922 21.5361L6.38672 20.749L3.07324 19.9707V19.9697C2.81027 19.9087 2.55439 19.8506 2.30078 19.7793H2.2998C1.17224 19.4539 0.400383 18.3552 0.503906 17.3643L0.536133 17.167C0.816008 15.9436 1.8716 15.1883 3.12012 15.3486L3.37207 15.3936C5.00026 15.7579 6.62749 16.1304 8.25391 16.5068L13.1318 17.6396C14.1402 17.8733 15.1491 18.1076 16.1572 18.3438L19.1787 19.0605C19.4441 19.1247 19.7019 19.1464 19.9453 19.084C20.1927 19.0205 20.4076 18.8733 20.5957 18.6318L20.5967 18.6328C21.217 17.848 21.8614 17.0889 22.5156 16.332L22.5146 16.3311C22.728 16.0856 22.8695 15.8388 22.8877 15.5615C22.9014 15.3526 22.8445 15.1459 22.7285 14.9316L22.5938 14.7148C20.8736 12.2555 19.1652 9.78694 17.4697 7.30859L15.7783 4.82715C14.976 3.64403 15.1525 2.31273 16.0781 1.59277L16.2734 1.45703Z" fill="#0D3B66" stroke="white" stroke-width="0.337516"/>
<path d="M17.1377 25.3564C18.0784 25.3789 18.7982 25.8352 19.1797 26.6133L19.251 26.7734C19.3667 27.0552 19.3796 27.3452 19.3799 27.9229C19.3344 28.2241 19.271 28.5224 19.1875 28.8154C18.3217 31.531 17.4583 34.2463 16.5781 36.9561L15.6914 39.6641C15.4943 40.2591 15.2004 40.6652 14.8203 40.9199C14.4868 41.1433 14.0726 41.2596 13.5693 41.2705L13.3486 41.2686C12.8153 41.2495 12.3707 41.0828 12.0205 40.7861C11.7131 40.5256 11.47 40.158 11.3057 39.6846L11.2402 39.4756L11.2383 39.4697L11.208 39.3613C11.1567 39.144 11.1567 38.9175 11.208 38.7002L11.2383 38.5928C12.1788 35.6658 13.1153 32.7354 14.0664 29.8096L15.0234 26.8848C15.1519 26.4952 15.3852 26.1499 15.6963 25.8857L15.834 25.7773C16.2134 25.5034 16.6697 25.3563 17.1377 25.3564Z" fill="#0D3B66" stroke="white" stroke-width="0.337516"/>
<path d="M10.4658 3.66113C11.4305 3.57131 12.0037 4.21567 12.5898 4.95996V4.96094C13.5651 6.20244 14.5375 7.44918 15.5088 8.69727L18.4219 12.4424C18.5982 12.6691 18.7759 12.8899 18.9512 13.1104L19.4678 13.7764L19.4688 13.7773C20.2121 14.7508 20.1471 15.9819 19.3623 16.7871L19.1953 16.9424C18.2741 17.722 17.0047 17.6728 16.1328 16.7842L15.9639 16.5947C15.1113 15.5511 14.2685 14.499 13.4297 13.4434L10.9199 10.2705C10.5289 9.7743 10.1428 9.2744 9.75879 8.77246L8.60938 7.26367C8.31332 6.87441 8.14348 6.47982 8.10059 6.08008C8.06315 5.73113 8.12198 5.36832 8.29102 4.98926L8.37012 4.8252C8.59087 4.40558 8.86929 4.10477 9.20605 3.91406C9.5009 3.74711 9.84996 3.65891 10.2607 3.65723L10.4404 3.66211L10.4531 3.66309L10.4658 3.66113Z" fill="#0D3B66" stroke="white" stroke-width="0.337516"/>
<path d="M39.6406 17.1348C40.4301 17.1178 41.0645 17.3059 41.5107 17.6328C41.8993 17.9176 42.1541 18.3134 42.2461 18.7939L42.2754 19.0059C42.3446 19.7707 42.2023 20.3669 41.875 20.7959C41.5894 21.1701 41.1475 21.437 40.5312 21.5713L40.2559 21.6211H40.2549C37.4612 22.0301 34.665 22.4224 31.8662 22.7979L29.0664 23.168H29.0654C27.7978 23.3379 26.6752 22.556 26.4121 21.502L26.3711 21.2881C26.2809 20.6088 26.4342 20.0171 26.7822 19.5693C27.087 19.1772 27.5503 18.8828 28.1602 18.7422L28.4307 18.6924C32.2255 18.1365 36.0113 17.6405 39.6406 17.1348Z" fill="#0D3B66" stroke="white" stroke-width="0.337516"/>
</svg>
