<svg width="847" height="1295" viewBox="0 0 847 1295" fill="none" xmlns="http://www.w3.org/2000/svg">
<path d="M395.958 56.8132C386.835 56.9856 377.709 59.7997 369.413 64.999C361.118 70.1984 353.916 77.6167 348.469 86.5772C336.385 106.695 334.08 132.614 342.203 157.638C358.98 208.682 376.535 260.743 393.63 310.72L407.285 351.847C411.762 365.11 416.288 378.599 420.993 392.093C387.857 354.655 354.714 316.831 322.463 280.012L285.21 237.511C283.268 235.289 281.577 233.345 279.75 231.238C275.178 225.842 270.584 220.396 265.456 215.193C239.285 188.309 205.817 189.131 182.234 217.194C158.041 246.332 158.205 284.766 182.994 313.457C210.799 345.638 239.28 377.999 266.87 409.355C278.715 422.772 290.516 436.22 302.272 449.699L318.468 468.255L336.191 488.412L242.996 448.346L147.023 406.899L143.139 405.184C136.596 402.081 129.811 399.591 122.847 397.737C88.8973 389.729 60.9113 407.663 49.8047 444.846C39.1454 480.614 51.5254 510.994 82.1774 524.225L195.075 572.733L261.841 601.502L291.406 614.061C227.102 617.64 158.698 621.28 79.8365 625.379C29.367 628.032 2.65371 651.126 0.288126 693.792C-0.477284 702.15 0.25657 710.462 2.44401 718.201C4.6315 725.941 8.22524 732.942 12.9981 738.763C28.9784 757.858 55.101 758.709 76.0361 757.582L167.253 752.547C207.283 750.145 247.377 747.959 287.534 745.988L168.652 808.712L89.1179 850.853L83.3617 853.757C79.5615 855.689 75.761 857.621 72.0304 859.7C40.4129 877.563 26.4338 910.444 35.5301 945.581C37.4516 953.533 40.8187 960.803 45.4175 966.932C50.0165 973.06 55.7474 977.913 62.2484 981.183C70.2144 984.645 78.8497 986.104 87.6124 985.47C96.3751 984.836 105.077 982.123 113.171 977.499C179.589 943.131 253.563 904.928 327.076 866.006C275.975 925.394 225.538 984.319 174.173 1044.02C159.95 1060.75 116.367 1111.26 154.125 1155.82C158.701 1161.74 164.369 1166.41 170.771 1169.52C177.174 1172.63 184.175 1174.13 191.333 1173.91C209.988 1173.07 228.563 1160.65 251.272 1133.98L272.399 1109.19C315.949 1057.98 360.819 1005.34 405.546 953.513C385.046 1006.8 364.667 1060.58 344.801 1112.84L320.19 1177.69L318.599 1181.79L316.002 1188.74C305.553 1216.88 303.521 1241.76 310.178 1260.85C312.526 1267.85 316.117 1274.11 320.734 1279.26C325.352 1284.41 330.902 1288.35 337.05 1290.82C349.053 1295.72 390.417 1306.17 418.298 1233.06C470.239 1096.99 522.135 960.902 573.986 824.805L617.247 711.334L628.007 684.338L834.768 141.7L837.045 135.695C861.228 70.6809 832.402 47.2713 813.038 39.0478C797.872 32.5812 759.778 24.6636 734.62 90.3566C715.945 139.248 697.292 188.145 678.663 237.049L670.929 257.258C661.585 281.772 651.963 307.067 642.63 332.224C643.826 282.507 645.254 231.913 646.665 183.021C647.773 146.973 648.791 110.944 649.72 74.934C651.438 9.31762 617.402 0.134104 596.992 0.504919C589.689 0.322663 582.31 1.88873 575.314 5.10617C568.319 8.32359 561.858 13.1228 556.334 19.2045C543.575 33.6825 536.903 54.3869 536.044 82.4817C533.486 163.7 530.83 249.798 528.483 337.044C501.315 256.576 474.936 177.768 449.803 102.448C445.999 90.6015 433.959 54.9801 395.958 56.8132Z" fill="black" fill-opacity="0.2"/>
</svg>
