<svg width="955" height="953" viewBox="0 0 955 953" fill="none" xmlns="http://www.w3.org/2000/svg">
<path fill-rule="evenodd" clip-rule="evenodd" d="M953.859 478.315C951.711 504.717 933.081 521.276 905.235 521.276L802.753 521.784L742.138 522.135H715.346C764.556 542.288 816.891 563.612 877.349 588.139C916.014 603.762 930.113 626.414 919.412 655.003C917.55 660.689 914.532 665.928 910.546 670.391C906.568 674.863 901.699 678.455 896.252 680.936C878.169 689.02 857.509 682.342 841.574 675.819L771.782 647.231C741.188 634.577 710.503 622.04 679.728 609.62L754.168 683.63L803.964 733.27L807.596 736.785C810.017 739.089 812.4 741.433 814.704 743.815C834.232 764.28 835.442 789.705 817.984 810.21C814.158 814.878 809.406 818.703 804.029 821.446C798.652 824.188 792.766 825.788 786.74 826.144C779.493 826.218 772.311 824.782 765.65 821.926C758.985 819.078 752.977 814.89 747.997 809.624L738.506 800.641C699.177 762.132 656.06 719.952 613.528 677.46C624.893 704.252 636.141 730.927 647.429 757.68L680.704 836.416V836.807C687.07 852.077 705.621 896.64 663.363 915.23C658.049 917.839 652.252 919.32 646.338 919.582C640.424 919.844 634.519 918.881 628.994 916.753C614.661 911.051 603.764 897.772 593.844 873.988L584.627 851.921C565.607 806.304 546.04 759.398 526.317 713.039C526.59 746.354 526.747 779.903 526.864 812.826C526.864 820.013 526.864 827.121 526.864 834.229L527.059 883.556V891.953C527.059 913.278 521.24 930.15 510.421 940.812C506.523 944.734 501.876 947.833 496.757 949.926C491.639 952.019 486.152 953.063 480.622 952.997C476.5 952.92 472.405 952.316 468.437 951.201C453.049 948.662 431.256 937.765 430.943 896.523C430.709 859.342 430.501 822.148 430.318 784.941V769.553C430.318 750.923 430.318 731.669 430.318 712.61C416.649 745.534 402.979 779.004 389.622 811.459C379.754 835.492 369.951 859.381 360.214 883.127C342.287 926.595 312.995 923.159 297.139 917.261C291.387 915.362 286.086 912.302 281.565 908.272C277.044 904.241 273.398 899.325 270.854 893.828C265.152 880.822 266.011 865.395 273.588 846.766C295.459 792.869 318.697 735.731 342.482 677.928C297.607 723.038 253.748 767.327 212.076 809.702C205.631 816.42 185.752 836.416 156.578 824.699C149.499 822.061 143.194 817.69 138.241 811.986C133.288 806.282 129.843 799.428 128.223 792.049C124.669 775.528 130.488 757.914 144.197 743.776C172.317 714.953 201.335 685.739 229.377 657.854L252.147 634.694L255.154 631.647C261.559 625.203 268.042 618.642 274.682 612.12C237.774 627.468 200.749 643.052 164.74 658.244L123.146 675.663L117.014 678.241H116.663C111.625 680.467 106.547 682.693 101.04 684.646C72.6861 694.996 46.7922 685.193 36.5987 660.275C26.2489 634.498 37.6922 609.503 65.4998 597.435C96.2756 584.234 127.637 571.072 158.062 558.379L159.233 557.871L198.758 541.273L216.84 533.462L236.642 525.182L152.203 525.846L65.0312 526.392H61.5161C55.4784 526.634 49.4311 526.386 43.4334 525.65C14.5713 521.511 -2.02735 502.217 0.198823 474.566C2.38594 448.203 20.9764 431.604 48.8231 431.604L151.305 431.136L211.958 430.784H238.751C189.54 410.593 137.206 389.268 76.7478 364.741C38.0828 349.119 23.9837 326.506 34.6849 297.878C36.5485 292.198 39.5636 286.963 43.5419 282.501C47.5201 278.039 52.3759 274.446 57.8059 271.945C75.9277 263.861 96.5881 270.539 112.484 277.1L182.315 305.65C212.883 318.304 243.567 330.841 274.369 343.261L199.89 269.055L150.133 219.532L146.501 216.056C144.08 213.713 141.697 211.409 139.393 208.987C119.865 188.522 118.655 163.136 136.073 142.593C139.906 137.932 144.659 134.111 150.035 131.37C155.411 128.628 161.294 127.024 167.318 126.658C174.56 126.627 181.735 128.061 188.408 130.876C195.061 133.726 201.056 137.913 206.022 143.179L215.434 152.318C254.802 190.827 297.92 233.046 340.412 275.538C329.047 248.707 317.76 222.032 306.512 195.318C295.264 168.604 284.563 142.944 273.276 116.543V116.191C266.949 100.92 248.397 56.319 290.655 37.7676C295.967 35.153 301.762 33.6646 307.677 33.3958C313.591 33.127 319.497 34.0835 325.024 36.2053C339.358 41.9465 350.215 55.2254 360.174 79.1665L369.392 101.272C388.373 146.889 407.979 193.795 427.702 240.154C427.428 206.8 427.272 173.252 427.155 140.328C427.155 133.18 427.155 126.033 427.155 118.925V69.6369V61.0447C427.155 39.7203 433.013 22.8483 443.793 12.1861C447.692 8.25643 452.34 5.14881 457.462 3.0471C462.456 1.00308 467.805 -0.0322558 473.201 0.000765703C477.322 0.0606707 481.417 0.651371 485.387 1.75827C500.775 4.29688 522.568 15.1934 522.88 56.4361C523.115 93.6692 523.323 130.863 523.505 168.018V183.406C523.505 202.075 523.505 221.29 523.505 240.349C537.175 207.464 550.844 173.955 564.201 141.499C573.939 117.597 583.729 93.7082 593.571 69.8322C611.497 26.4024 640.789 29.8002 656.646 35.6976C662.397 37.5966 667.698 40.6563 672.219 44.6871C676.74 48.7179 680.386 53.634 682.93 59.131C688.632 72.1365 687.773 87.5635 680.196 105.998C658.325 159.934 635.087 217.072 611.263 274.874C656.138 229.687 699.919 185.359 741.709 142.983C748.153 136.266 768.032 116.269 797.207 127.986C804.283 130.64 810.583 135.021 815.535 140.73C820.487 146.439 823.934 153.295 825.561 160.676C829.115 177.196 823.296 194.81 809.588 208.948C781.467 237.732 752.449 266.985 724.407 294.871L701.638 318.031L698.63 321.038C692.225 327.521 685.703 334.083 679.103 340.566C716.01 325.217 753.035 309.595 789.044 294.441L830.834 277.296L836.965 274.679H837.317C842.355 272.453 847.432 270.227 852.939 268.313C881.294 257.924 907.227 267.766 917.42 292.645C927.731 318.46 916.327 343.417 888.519 355.524C857.743 368.725 826.381 381.848 795.957 394.58L794.785 395.048C781.585 400.542 768.41 406.088 755.261 411.686L737.139 419.497L717.377 427.816L801.972 427.386L889.183 426.801H892.698C898.723 426.578 904.755 426.826 910.742 427.543C939.526 431.37 956.124 450.898 953.859 478.315Z" fill="black" fill-opacity="0.2"/>
</svg>
