<svg width="363" height="215" viewBox="0 0 363 215" fill="none" xmlns="http://www.w3.org/2000/svg">
<path d="M209.142 156.674C211.244 156.455 213.365 156.751 215.323 157.535L215.713 157.699L215.896 157.779H349.5V157.844L350.424 157.874C353.345 157.969 356.125 159.125 358.248 161.114L358.664 161.523C360.833 163.763 362.045 166.759 362.045 169.877C362.045 172.8 360.979 175.615 359.059 177.801L358.664 178.229C356.495 180.469 353.54 181.778 350.424 181.879H222.651L222.468 182.599C220.281 191.192 215.411 198.855 208.576 204.479L207.909 205.018C200.948 210.51 192.422 213.632 183.575 213.941L182.718 213.963C173.852 214.09 165.185 211.384 157.974 206.25L157.28 205.746C149.935 200.285 144.593 192.556 142.082 183.754L141.885 183.062H13.7383C10.4191 182.959 7.26446 181.608 4.90137 179.286L4.67578 179.059C2.28988 176.598 0.955145 173.305 0.955078 169.877C0.955078 166.556 2.20758 163.362 4.45508 160.928L4.67578 160.694C7.05659 158.239 10.2979 156.804 13.7158 156.692H153.681C155.016 156.692 156.344 156.896 157.617 157.3L157.758 157.345H157.837C157.994 157.4 158.167 157.461 158.33 157.522L158.864 157.728C158.941 157.758 159.026 157.798 159.137 157.854C159.234 157.904 159.378 157.98 159.511 158.042V158.041L159.99 158.281V158.282C160.24 158.413 160.454 158.553 160.76 158.736L161.07 158.936C161.297 159.091 161.517 159.262 161.771 159.463L161.78 159.47L161.79 159.477L162.09 159.702C162.18 159.776 162.264 159.851 162.354 159.936L162.663 160.227L162.665 160.229L163.045 160.582C163.181 160.713 163.309 160.853 163.429 161L163.447 161.022L163.467 161.043L163.878 161.491L164.188 161.913V161.914L164.64 162.518C164.715 162.631 164.704 162.637 164.847 162.874L164.861 162.897L164.877 162.921C165.025 163.137 165.159 163.362 165.278 163.595V163.594L165.455 163.947V163.948C165.538 164.122 165.618 164.28 165.686 164.417L165.848 164.756C165.916 164.915 165.934 165.001 166.03 165.271L166.038 165.295L166.048 165.317C166.091 165.42 166.13 165.525 166.168 165.63L166.273 165.947L166.276 165.958C166.367 166.245 166.446 166.536 166.514 166.829L166.577 167.123L166.578 167.129C166.849 168.436 166.918 169.776 166.781 171.104L166.776 171.152V172.25C166.895 176.098 168.461 179.755 171.152 182.495L171.416 182.758C174.269 185.524 178.087 187.071 182.062 187.071C185.911 187.071 189.615 185.62 192.437 183.014L192.707 182.758C195.56 179.991 197.224 176.222 197.347 172.25L197.346 172.249C197.37 171.878 197.37 171.506 197.345 171.136L197.344 171.121L197.342 171.105L197.313 170.783C197.191 169.167 197.367 167.54 197.835 165.986C198.303 164.432 199.053 162.979 200.048 161.699L200.25 161.446C201.277 160.19 202.527 159.135 203.936 158.333L204.22 158.176C205.65 157.408 207.208 156.911 208.816 156.71L209.139 156.674H209.142Z" fill="url(#paint0_linear_1078_1759)" stroke="#F1EFEE" stroke-width="1.91053"/>
<path d="M170.3 13.3535C170.251 11.845 170.487 10.3414 170.994 8.92188L171.1 8.63965C171.679 7.13787 172.555 5.76787 173.675 4.61133C174.724 3.52717 175.968 2.65107 177.341 2.02832L177.617 1.90723C179.007 1.31841 180.494 0.996848 182.001 0.958984L182.303 0.955078C183.812 0.955099 185.307 1.23984 186.709 1.79297L186.988 1.90723C188.378 2.49603 189.643 3.34129 190.718 4.39746L190.931 4.61133C191.98 5.69553 192.816 6.96729 193.394 8.35938L193.506 8.63965C194.086 10.1414 194.358 11.7446 194.306 13.3535L194.305 13.3682V131.751L196.087 128.665L254.16 28.1455C255.682 25.6189 258.077 23.7467 260.881 22.875L261.447 22.7139C264.304 21.9772 267.324 22.319 269.936 23.6611L270.452 23.9434C273.177 25.5169 275.175 28.0972 276.018 31.1289C276.859 34.159 276.478 37.398 274.957 40.1504L219.764 135.769L217.981 138.855L221.068 137.073L317.825 81.207H317.826C319.02 80.5172 320.322 80.039 321.676 79.792L322.26 79.7002C323.822 79.494 325.409 79.5976 326.932 80.0049C328.454 80.4122 329.882 81.1153 331.133 82.0742C332.227 82.9132 333.167 83.9338 333.913 85.0898L334.221 85.5938C334.911 86.7878 335.389 88.0906 335.636 89.4443L335.728 90.0273C335.908 91.3944 335.851 92.7808 335.562 94.126L335.423 94.7002C335.015 96.2225 334.312 97.6498 333.354 98.9004C332.515 99.9946 331.494 100.935 330.338 101.681L329.835 101.988L216.799 167.217C214.217 168.701 211.183 169.169 208.286 168.543L207.709 168.403C204.833 167.631 202.355 165.82 200.746 163.331L200.436 162.824L200.434 162.82L200.231 162.462C199.775 161.618 199.42 160.724 199.173 159.796L198.999 159.141L198.322 159.089L197.991 159.059C196.338 158.886 194.738 158.37 193.294 157.543C191.919 156.739 190.711 155.678 189.738 154.416L189.217 153.739L188.486 154.183C186.923 155.132 185.163 155.707 183.344 155.863L182.979 155.889C181.031 155.996 179.086 155.622 177.317 154.799L176.663 154.495L176.191 155.041C175.144 156.253 173.863 157.239 172.427 157.942L172.137 158.079C170.583 158.789 168.895 159.154 167.187 159.152C166.696 159.15 166.206 159.118 165.72 159.054L164.876 158.941L164.668 159.768C164.244 161.454 163.459 163.026 162.368 164.376L162.146 164.644C161.014 165.964 159.611 167.021 158.032 167.743L157.714 167.883C156.113 168.56 154.384 168.88 152.649 168.822L152.303 168.806C150.567 168.698 148.878 168.213 147.351 167.388L147.048 167.219L147.047 167.218L34.2021 102.092L34.1348 101.997L33.9551 101.894L33.4473 101.583C31.1189 100.08 29.3814 97.8175 28.5322 95.1797L28.3643 94.6094C27.5919 91.7279 27.9222 88.6691 29.2773 86.0273L29.5625 85.5049C31.0537 82.9216 33.4495 80.9929 36.2754 80.083L36.8467 79.9141C39.7278 79.1418 42.7861 79.4723 45.4277 80.8271L45.9512 81.1123L146.689 139.262L149.778 141.044L147.994 137.956L91.4619 40.1123L91.458 40.1045L91.4531 40.0977L91.1572 39.5781C90.5925 38.5256 90.188 37.3945 89.957 36.2227L89.8564 35.6338C89.6549 34.2524 89.6962 32.8479 89.9766 31.4834L90.1113 30.9004C90.4601 29.5484 91.0415 28.269 91.8281 27.1191L92.1777 26.6348C93.1432 25.3642 94.3525 24.299 95.7344 23.501C96.9436 22.8027 98.2639 22.3213 99.6357 22.0771L100.227 21.9873C101.611 21.8114 103.015 21.878 104.374 22.1836L104.954 22.3291C106.3 22.7028 107.568 23.3083 108.703 24.1162L109.181 24.4746C110.433 25.4634 111.477 26.6915 112.249 28.0879L112.253 28.0957L112.258 28.1035L168.518 125.485L170.3 128.57V13.3535Z" fill="url(#paint1_linear_1078_1759)" stroke="#F1EFEE" stroke-width="1.91053"/>
<path d="M181.95 195.872C198.404 195.872 211.743 181.104 211.743 162.887C211.743 144.67 198.404 129.902 181.95 129.902C165.496 129.902 152.157 144.67 152.157 162.887C152.157 181.104 165.496 195.872 181.95 195.872Z" fill="#F1EFEE"/>
<defs>
<linearGradient id="paint0_linear_1078_1759" x1="-0.00289993" y1="185.309" x2="363.016" y2="185.309" gradientUnits="userSpaceOnUse">
<stop stop-color="#B1503E"/>
<stop offset="1" stop-color="#681D0F"/>
</linearGradient>
<linearGradient id="paint1_linear_1078_1759" x1="26.9975" y1="84.9611" x2="336.8" y2="84.9611" gradientUnits="userSpaceOnUse">
<stop stop-color="#B1503E"/>
<stop offset="1" stop-color="#681D0F"/>
</linearGradient>
</defs>
</svg>
