<svg width="790" height="758" viewBox="0 0 790 758" fill="none" xmlns="http://www.w3.org/2000/svg">
<path d="M719.24 436.793C702.537 438.269 685.896 440.373 669.223 441.911C608.657 447.5 548.058 452.995 485.043 458.741C473.802 461.598 466.643 454.816 462.279 442.633C458.367 430.833 453.7 419.297 448.307 408.096C443.063 397.86 444.037 390.984 451.949 381.878C480.019 349.57 506.707 315.942 534.243 283.226C570.518 239.938 607.066 196.808 643.885 153.835C656.444 139.046 662.724 123.316 656.79 104.163C651.421 86.9882 638.579 77.5688 621.812 74.115C600.305 69.6565 584.92 80.6144 571.89 96.3762C547.368 126.079 522.218 155.279 498.167 185.358C489.25 196.504 483.912 193.082 476.565 184.385C466.581 172.611 475.058 164.51 481.683 156.755C501.841 133.143 523.662 110.882 542.815 86.5172C559.55 65.1666 555.374 39.64 535.845 23.4386C517.822 8.61873 491.668 10.7224 473.896 29.3414C457.569 46.3905 441.337 63.6594 426.579 82.0273C418.322 92.263 413.801 93.4562 406.296 82.0273C393.737 62.7489 380.016 44.3497 367.206 25.2283C350.879 0.894828 323.249 -7.01748 301.113 6.70345C278.977 20.4244 274.236 49.185 290.971 73.8638C332.836 135.529 375.108 196.881 417.788 257.919C425.01 268.249 424.068 275.502 416.532 284.168C404.35 298.265 392.324 312.426 380.738 327.089C374.459 335.158 366.923 336.194 357.567 333.934C320.109 324.922 282.557 316.194 245.036 307.496C184.532 293.461 124.028 279.238 63.4301 265.674C36.4906 259.646 12.8479 275.094 6.91364 301.06C2.04695 322.316 18.2797 346.587 41.9538 353.4C46.7577 354.75 51.593 355.849 56.4597 356.98C97.5597 366.65 138.66 376.258 179.728 386.117C184.03 387.153 190.372 386.117 190.718 393.527C191.346 407.939 175.49 420.686 161.769 416.73C126.54 406.526 91.4371 395.85 55.9888 386.462C31.5297 379.963 8.16957 394.814 1.57599 419.242C-1.50518 430.437 -0.0317809 442.396 5.67446 452.509C11.3807 462.621 20.8562 470.065 32.0321 473.215C58.7622 481.441 85.5866 489.364 112.505 496.983C134.892 503.263 134.484 502.729 124.656 523.578C111.877 551.208 92.5988 575.73 84.247 605.212C74.6392 639.216 104.781 668.479 139.162 660.41C159.414 655.669 167.891 639.876 176.18 623.8C205.004 568.079 233.649 512.243 262.117 456.292C286.073 409.195 285.979 409.195 336.907 422.382C340.532 423.269 344.081 424.445 347.519 425.898C351.555 427.492 355.214 429.909 358.263 432.996C361.313 436.083 363.684 439.771 365.228 443.827C388.713 502.708 412.45 561.485 436.438 620.158C451.384 657.019 465.827 694.131 481.871 730.522C486.633 741.147 495.265 749.558 506.009 754.043C516.754 758.529 528.804 758.752 539.707 754.667C562.941 745.499 573.805 721.416 565.641 696.392C562.753 687.538 559.362 678.872 555.657 670.269C541.308 635.166 526.959 600.063 512.359 565.086C508.214 555.164 508.591 549.701 521.119 546.467C536.347 542.542 546.237 545.588 552.894 559.999C566.646 589.89 580.807 619.655 594.527 649.421C607.432 677.459 634.434 688.386 660.463 675.669C683.666 664.303 690.731 635.794 677.45 609.482C667.653 590.079 658.956 570.109 649.034 550.768C643.885 540.689 645.549 535.948 657.135 535.069C680.652 533.154 704.232 531.019 727.592 528.79C756.29 526.089 776.636 504.017 774.281 478.396C771.926 452.775 747.718 434.219 719.24 436.793Z" fill="#8F0707" fill-opacity="0.1"/>
<path d="M318.916 450.988C309.526 450.973 300.372 453.926 292.759 459.423C285.147 464.921 279.467 472.683 276.529 481.601C252.635 554.131 229.432 626.88 206.103 699.504C204.204 705.436 204.204 711.813 206.103 717.746C212.383 740.101 227.14 752.66 248.239 753.414C271.631 754.262 287.267 744.528 294.928 721.388C317.095 654.228 338.508 586.848 359.985 519.467C361.601 513.808 362.849 508.05 363.721 502.23C363.721 491.366 363.532 485.275 361.083 479.309C353.925 461.821 338.791 451.459 318.916 450.988Z" fill="#8F0707" fill-opacity="0.1"/>
<path d="M200.704 175.38C231.82 214.753 262.841 254.252 294.585 293.123C311.853 314.316 339.515 316.64 359.17 299.999C378.009 284.049 380.427 257.361 364.728 236.795C358.448 228.412 351.698 220.248 345.23 211.928C309.09 165.49 273.014 118.895 236.718 72.6774C225.917 58.9565 214.268 45.4553 194.425 47.3078C175.241 46.2717 161.614 54.1526 152.948 70.6365C143.905 87.9054 146.135 104.17 157.689 119.366C171.944 138.111 186.136 156.887 200.704 175.38Z" fill="#8F0707" fill-opacity="0.1"/>
<path d="M789.668 335.661C787.596 312.427 767.846 297.293 737.359 297.984C669.791 307.403 599.208 316.634 528.5 326.995C499.488 331.266 483.977 352.114 487.525 378.834C490.665 402.319 514.496 420.09 541.184 416.511C610.679 407.468 680.089 397.871 749.416 387.719C778.899 383.48 792.337 365.144 789.668 335.661Z" fill="#8F0707" fill-opacity="0.1"/>
</svg>
