<svg width="191" height="183" viewBox="0 0 191 183" fill="none" xmlns="http://www.w3.org/2000/svg">
<path d="M173.483 105.052C169.465 105.407 165.463 105.913 161.453 106.283C146.887 107.627 132.312 108.949 117.156 110.331C114.453 111.018 112.731 109.387 111.682 106.457C110.741 103.619 109.618 100.844 108.321 98.1502C107.06 95.6884 107.294 94.0346 109.197 91.8447C115.948 84.0742 122.367 75.9866 128.99 68.118C137.714 57.707 146.504 47.3338 155.359 36.9984C158.38 33.4417 159.89 29.6584 158.463 25.052C157.172 20.9213 154.083 18.6559 150.051 17.8252C144.878 16.7529 141.178 19.3884 138.044 23.1792C132.146 30.3229 126.097 37.3458 120.313 44.5801C118.168 47.2608 116.885 46.4377 115.118 44.346C112.716 41.5142 114.755 39.5659 116.348 37.7007C121.196 32.022 126.445 26.668 131.051 20.8081C135.076 15.6731 134.072 9.53372 129.375 5.63716C125.04 2.07287 118.75 2.57882 114.476 7.05684C110.549 11.1573 106.645 15.3106 103.096 19.7282C101.11 22.19 100.022 22.4769 98.2174 19.7282C95.1968 15.0916 91.8968 10.6664 88.8158 6.0676C84.889 0.215213 78.2438 -1.68776 72.92 1.61223C67.5962 4.91222 66.4559 11.8294 70.4809 17.7648C80.5495 32.5959 90.7163 47.3515 100.981 62.0315C102.718 64.5159 102.492 66.2603 100.679 68.3445C97.7492 71.7351 94.857 75.1408 92.0705 78.6674C90.5602 80.6081 88.7478 80.8573 86.4975 80.3136C77.4886 78.1463 68.4571 76.047 59.4331 73.9553C44.8814 70.5798 30.3297 67.159 15.7554 63.8967C9.27626 62.4468 3.59001 66.1621 2.16278 72.4072C0.992308 77.5195 4.89642 83.3568 10.5902 84.9955C11.7456 85.3202 12.9085 85.5845 14.079 85.8564C23.9639 88.1822 33.8487 90.493 43.726 92.8641C44.7606 93.1133 46.286 92.8641 46.369 94.6463C46.5201 98.1124 42.7066 101.178 39.4066 100.227C30.9339 97.7726 22.4913 95.2051 13.9657 92.9472C8.08313 91.384 2.46484 94.9559 0.879038 100.831C0.137993 103.523 0.492356 106.4 1.86475 108.832C3.23715 111.264 5.51608 113.054 8.20395 113.812C14.6328 115.79 21.0842 117.696 27.5584 119.528C32.9425 121.039 32.8444 120.91 30.4808 125.924C27.4073 132.57 22.7707 138.467 20.762 145.558C18.4513 153.736 25.7007 160.774 33.9695 158.834C38.8402 157.693 40.8791 153.895 42.8727 150.029C49.805 136.627 56.6944 123.198 63.5411 109.742C69.3028 98.4145 69.2802 98.4145 81.5286 101.586C82.4006 101.8 83.2541 102.082 84.081 102.432C85.0517 102.815 85.9318 103.396 86.6651 104.139C87.3984 104.881 87.9689 105.768 88.3401 106.744C93.9886 120.905 99.6975 135.042 105.467 149.153C109.061 158.018 112.535 166.944 116.394 175.696C117.539 178.251 119.615 180.274 122.199 181.353C124.783 182.432 127.681 182.486 130.304 181.503C135.892 179.298 138.504 173.506 136.541 167.488C135.846 165.358 135.031 163.274 134.14 161.205C130.689 152.762 127.238 144.32 123.726 135.907C122.729 133.521 122.82 132.207 125.833 131.429C129.496 130.486 131.874 131.218 133.475 134.684C136.783 141.873 140.188 149.032 143.488 156.191C146.592 162.934 153.086 165.562 159.346 162.504C164.927 159.77 166.626 152.913 163.432 146.585C161.076 141.918 158.984 137.116 156.598 132.464C155.359 130.04 155.76 128.9 158.546 128.688C164.202 128.228 169.873 127.714 175.491 127.178C182.394 126.529 187.287 121.22 186.721 115.058C186.154 108.896 180.332 104.433 173.483 105.052Z" fill="#F1EFEE"/>
<path d="M77.2014 108.465C74.9431 108.461 72.7414 109.171 70.9106 110.494C69.0798 111.816 67.7136 113.683 67.007 115.828C61.2603 133.271 55.6798 150.768 50.0691 168.235C49.6124 169.662 49.6124 171.195 50.0691 172.622C51.5794 177.999 55.1285 181.019 60.2031 181.201C65.829 181.404 69.5896 179.063 71.4321 173.498C76.7635 157.345 81.9136 141.14 87.0788 124.935C87.4676 123.574 87.7678 122.189 87.9774 120.789C87.9774 118.176 87.9321 116.711 87.3431 115.276C85.6213 111.07 81.9815 108.578 77.2014 108.465Z" fill="#F1EFEE"/>
<path d="M48.773 42.1717C56.2565 51.6412 63.7173 61.141 71.3518 70.4897C75.5051 75.5869 82.158 76.1457 86.8852 72.1435C91.4161 68.3073 91.9975 61.8886 88.2218 56.9424C86.7115 54.9261 85.088 52.9627 83.5324 50.9616C74.8406 39.793 66.164 28.5866 57.4345 17.4709C54.8368 14.1709 52.0352 10.9237 47.2627 11.3693C42.6488 11.1201 39.3714 13.0155 37.2872 16.98C35.1124 21.1333 35.6485 25.045 38.4275 28.6999C41.8558 33.2081 45.2691 37.7239 48.773 42.1717Z" fill="#F1EFEE"/>
<path d="M190.42 80.7274C189.922 75.1393 185.172 71.4995 177.84 71.6656C161.589 73.9311 144.613 76.1512 127.607 78.6432C120.63 79.6702 116.899 84.6843 117.753 91.1106C118.508 96.7591 124.239 101.033 130.658 100.172C147.372 97.9976 164.066 95.6893 180.739 93.2477C187.83 92.2283 191.062 87.8182 190.42 80.7274Z" fill="#F1EFEE"/>
</svg>
