<svg width="191" height="178" viewBox="0 0 191 178" fill="none" xmlns="http://www.w3.org/2000/svg">
<path d="M190.461 126.516C189.997 114.126 190.21 101.715 190.203 89.3104C190.203 71.9224 182.805 58.193 169.024 48.0414C164.106 44.4269 161.176 40.2603 158.975 34.5624C150.774 13.2948 134.763 1.65619 112.111 0.117619C90.7629 -1.35469 70.7395 11.1158 61.9719 30.7638C59.7634 35.7771 57.1206 37.853 51.4227 37.9708C37.9468 38.2815 25.1194 43.8187 15.6506 53.4125C6.18186 63.0062 0.8134 75.9051 0.679436 89.384C0.532205 101.258 0.995974 113.147 0.532196 125.007C0.419247 126.573 0.604107 128.147 1.07697 129.644C1.11602 132.378 2.23928 134.984 4.19968 136.889C6.16008 138.794 8.79701 139.842 11.5304 139.803C14.2638 139.764 16.8697 138.641 18.7748 136.681C20.68 134.72 21.7284 132.083 21.6894 129.35V127.745C21.8119 126.87 21.8587 125.986 21.8292 125.102C21.4906 113.766 21.7703 102.414 21.7409 91.0698C21.7409 86.005 22.2562 81.0949 24.5898 76.4644C31.6937 62.367 45.9383 55.8521 61.8614 59.6064C74.9871 62.6689 84.6823 75.2645 84.8443 90.1349C85.0504 113.883 84.8958 137.632 84.9547 161.387C84.9547 162.86 84.9547 164.141 85.043 165.23V167.35C85.0147 170.084 86.0734 172.716 87.9861 174.669C89.8989 176.622 92.5091 177.735 95.2425 177.763C97.9759 177.792 100.609 176.733 102.561 174.82C104.514 172.907 105.627 170.297 105.655 167.564C105.951 165.536 106.064 163.487 105.994 161.439C106.033 128.184 106.033 94.9346 105.994 61.6898C105.994 59.0543 106.046 56.4115 106.252 53.7835C106.414 51.759 107.459 50.1395 109.69 50.2131C111.92 50.2867 112.826 51.9725 112.965 53.9896C113.135 56.3526 113.194 58.7304 113.194 61.1008C113.194 82.2138 113.532 103.334 113.046 124.41C112.96 126.011 113.149 127.615 113.606 129.151C113.856 131.587 115.001 133.844 116.819 135.484C118.637 137.124 121 138.031 123.448 138.029H124.251C126.794 138.028 129.24 137.047 131.078 135.289C132.917 133.531 134.007 131.133 134.123 128.592C134.459 127.21 134.6 125.787 134.542 124.366C134.108 101.678 134.439 78.9747 134.395 56.2864C134.395 41.8577 127.932 32.4202 116.043 29.0928C104.698 25.9199 94.7382 30.7565 87.3325 43.0797C86.1178 45.0968 85.4037 47.7396 82.1205 45.8845C79.4703 44.4122 79.3599 42.3583 80.523 39.8554C83.7253 32.9208 88.3631 27.4217 95.4523 24.1605C117.898 13.8543 141.182 28.4302 141.609 53.5332C142.002 77.0166 141.987 100.502 141.565 123.991C141.495 125.6 141.669 127.211 142.08 128.768V130.079C142.076 132.405 142.926 134.651 144.468 136.392C146.01 138.134 148.137 139.248 150.446 139.525C152.756 139.802 155.086 139.222 156.996 137.894C158.906 136.567 160.263 134.585 160.808 132.324C162.538 131.154 162.73 128.813 162.752 123.807C162.825 106.941 162.752 90.076 162.752 70.8034C168.943 78.7981 169.885 86.0345 170.01 93.3887C170.15 101.14 170.15 108.892 170.128 116.644C169.376 118.098 168.985 119.711 168.987 121.348V132.434C168.987 135.168 170.073 137.789 172.006 139.722C173.938 141.655 176.56 142.741 179.293 142.741C182.027 142.741 184.648 141.655 186.581 139.722C188.514 137.789 189.599 135.168 189.599 132.434V131.235C190.316 129.771 190.614 128.138 190.461 126.516Z" fill="#F1EFEE"/>
<path d="M77.5121 89.6693C77.379 83.2739 74.7417 77.1861 70.1672 72.7149C65.5927 68.2436 59.4463 65.746 53.0496 65.7589C40.4466 65.6338 29.4926 76.2197 29.2055 89.3159C28.9331 101.418 29.4631 113.55 29.0141 125.645C28.867 127.305 29.1378 128.975 29.8018 130.504C30.2387 132.598 31.3697 134.483 33.0116 135.854C34.6535 137.224 36.7101 138.001 38.8483 138.057C40.9865 138.113 43.0811 137.446 44.7927 136.163C46.5044 134.881 47.7329 133.058 48.2793 130.99C49.0596 129.782 49.4498 128.045 49.3173 125.491C48.8093 116.038 49.0523 106.535 49.2584 97.0603C49.3394 93.4237 47.7419 87.5418 53.1747 87.5344C58.1438 87.5344 56.3623 93.2396 56.4801 96.5744C56.6788 102.368 56.6273 108.169 56.5905 113.97C56.5537 114.338 56.5242 114.706 56.5242 115.096V126.183C56.5301 128.303 57.1895 130.369 58.4128 132.101C59.636 133.832 61.3634 135.145 63.3596 135.859C65.3558 136.573 67.5236 136.654 69.5675 136.091C71.6114 135.527 73.4319 134.348 74.7809 132.712C76.7538 131.719 77.652 129.878 77.5784 126.823C77.4458 120.507 77.5784 114.191 77.5784 107.867C77.5563 101.779 77.7035 95.7205 77.5121 89.6693Z" fill="#F1EFEE"/>
</svg>
