<svg width="227" height="180" viewBox="0 0 227 180" fill="none" xmlns="http://www.w3.org/2000/svg">
<path d="M199.779 46.5834C194.085 45.1508 191.631 42.9212 189.276 37.0384C185.42 27.6816 179.254 19.4557 171.354 13.1299C163.454 6.80421 154.079 2.58536 144.105 0.867941C134.132 -0.849474 123.886 -0.00933983 114.325 3.30976C104.765 6.62887 96.2021 12.3185 89.4382 19.8466C81.4175 28.677 76.3011 39.7568 74.7804 51.5888C74.0462 57.2836 76.822 61.483 82.0243 62.5396C86.9221 63.5335 90.9067 60.8115 92.4289 55.439C92.6796 54.5436 92.8587 53.7467 93.0378 52.9319C93.1273 52.52 93.2169 52.0992 93.3154 51.6873C98.0431 31.845 113.838 18.5572 132.624 18.5572H132.749C154.74 18.6199 170.061 30.8422 174.78 52.0813C175.89 57.0776 178.513 63.7215 188.488 63.1395C191.259 62.9523 194.035 63.4308 196.583 64.5352C199.132 65.6396 201.379 67.3378 203.137 69.488C208.465 75.6036 209.495 82.9191 206.137 90.5838C202.958 97.8276 196.896 101.508 188.094 101.508H158.922C111.376 101.508 63.8326 101.508 16.2924 101.508C13.3461 101.405 10.398 101.649 7.50844 102.233C5.44587 102.643 3.60131 103.785 2.31578 105.449C1.03024 107.113 0.390676 109.186 0.51531 111.286C0.783932 116.067 4.01635 119.344 8.94109 119.774C10.8841 119.953 12.7824 119.953 14.609 119.944H100.729H104.186H126.795C135.346 119.944 144.022 119.944 152.761 119.944C164.67 119.944 176.66 119.944 188.533 119.828C208.232 119.685 223.848 105.716 226.525 85.865C228.808 68.8612 216.568 50.8545 199.779 46.5834Z" fill="#F1EFEE"/>
<path d="M172.648 123.41H99.2874V123.589H34.048C32.0423 123.589 29.9649 123.589 27.8697 123.759C23.133 124.153 20.0886 127.099 19.7215 131.639C19.3544 136.179 21.6018 139.465 25.8998 140.951C29.2844 142.115 32.6959 142.097 35.7493 142.079H168.377C168.879 142.079 169.389 142.079 169.899 142.079C171.636 142.079 173.284 142.079 174.878 142.187C177.212 142.394 179.395 143.427 181.036 145.099C182.677 146.771 183.668 148.974 183.832 151.311C184.065 155.887 179.964 160.596 175.048 161.384C172.722 161.74 170.347 161.233 168.368 159.96C166.389 158.687 164.944 156.736 164.303 154.472C164.124 153.854 163.981 153.218 163.828 152.592C163.517 151.058 163.055 149.558 162.449 148.114C161.732 146.311 160.415 144.809 158.721 143.862C157.027 142.915 155.058 142.579 153.146 142.912C149.215 143.539 146.502 146.404 145.893 150.577C145.34 154.478 145.851 158.456 147.371 162.092C149.415 167.392 153.024 171.945 157.718 175.144C162.413 178.343 167.97 180.037 173.651 180C176.224 179.996 178.787 179.671 181.28 179.033C193.977 175.827 203.728 162.02 202.143 149.484C200.101 133.439 188.801 123.419 172.648 123.41Z" fill="#F1EFEE"/>
<path d="M47.2028 95.2641H48.2952C58.1447 95.2641 68.1195 95.2641 77.781 95.2641H89.0542C93.2984 95.2641 97.5456 95.2641 101.796 95.2641C105.977 95.2641 110.231 95.2641 114.502 95.2641C119.82 95.2641 125.166 95.2642 130.467 95.1657C140.701 95.0224 149.512 90.2051 154.643 81.9494C159.773 73.6938 160.15 63.3876 155.762 54.1918C150.667 43.5185 137.729 36.7493 126.303 38.7818C113.284 41.2084 103.273 51.5682 102.503 63.5936C102.279 67.0857 101.814 74.3385 109.604 75.6995C115.567 76.7292 119.301 73.4968 120.725 66.0828L120.841 65.5008C120.936 64.8543 121.082 64.2164 121.28 63.5936C122.06 61.3667 123.613 59.4937 125.657 58.3155C127.702 57.1372 130.101 56.732 132.419 57.1735C134.754 57.6571 136.839 58.9581 138.3 60.8426C139.761 62.727 140.501 65.0711 140.388 67.4528C140.366 69.7219 139.517 71.9052 138.001 73.5933C136.484 75.2813 134.404 76.3581 132.15 76.6217C130.069 76.85 127.975 76.9338 125.882 76.8725H124.647C99.808 76.8725 74.9664 76.8725 50.1218 76.8725H48.6355C44.6688 76.8725 35.5894 76.9352 35.5088 86.3727C35.4359 87.5384 35.6034 88.7066 36.0008 89.8048C36.3982 90.903 37.0171 91.9079 37.8189 92.757C40.4156 95.3358 44.1853 95.291 47.2028 95.2641Z" fill="#F1EFEE"/>
</svg>
