<svg width="195" height="126" viewBox="0 0 195 126" fill="none" xmlns="http://www.w3.org/2000/svg">
<path d="M111.816 91.9355C113.175 91.7949 114.546 91.991 115.81 92.5059H186.934V92.6514C188.591 92.9142 190.128 93.7049 191.308 94.9229L191.564 95.2002C192.809 96.6175 193.5 98.443 193.5 100.338C193.5 102.233 192.809 104.058 191.564 105.476L191.308 105.753C189.902 107.205 187.986 108.054 185.966 108.119L185.95 108.12H120.19C118.883 112.621 116.248 116.626 112.625 119.607L112.252 119.909C108.358 122.982 103.588 124.728 98.6387 124.901L98.1592 124.913C93.1994 124.984 88.3506 123.47 84.3164 120.599L83.9277 120.316C80.0217 117.413 77.1306 113.362 75.6475 108.739H9.65918L9.64453 108.738C7.59829 108.675 5.65013 107.867 4.16211 106.475L3.87012 106.188C2.35014 104.62 1.5 102.522 1.5 100.338C1.5 98.154 2.34995 96.0553 3.87012 94.4873L4.16211 94.2012C5.65014 92.8087 7.59827 92.0009 9.64453 91.9375L9.65918 91.9365H82.9385V91.9375C83.7366 91.937 84.53 92.0524 85.2949 92.2783H85.3623L85.5166 92.3301L85.9014 92.4678C86.026 92.5147 86.1359 92.5576 86.1963 92.5811L86.4736 92.707L86.6289 92.7861L86.6396 92.791L86.6504 92.7969L86.9209 92.9316L86.9297 92.9355L86.9375 92.9404L87.2109 93.0957L87.4219 93.2246L87.4346 93.2324L87.4463 93.2402L87.624 93.3535L87.6377 93.3623L87.6504 93.3701C87.8082 93.4781 87.9522 93.5912 88.083 93.6943H88.084L88.2549 93.8223L88.2695 93.834L88.2852 93.8467L88.5029 94.0391C88.5689 94.1004 88.626 94.1547 88.6621 94.1885L88.8613 94.373L88.8721 94.3838C88.9763 94.4837 89.0743 94.5905 89.167 94.7012L89.4014 94.957L89.4385 94.9971L89.4697 95.04L89.6475 95.2822L89.6484 95.2832L89.7773 95.4541C89.8012 95.4856 89.8268 95.519 89.8496 95.5498C89.87 95.5773 89.8977 95.6166 89.9229 95.6543L90.0225 95.8184C90.0488 95.865 90.0573 95.8803 90.0693 95.9004C90.1135 95.9667 90.1574 96.0331 90.1982 96.1016L90.3428 96.3623L90.3486 96.373L90.4482 96.5723L90.4561 96.5898C90.4958 96.6733 90.6352 96.9491 90.6855 97.0664L90.8135 97.417C90.8706 97.5577 90.9217 97.7011 90.9658 97.8467H90.9648C91.0421 98.0926 91.107 98.3421 91.1582 98.5947L91.2178 98.9092C91.3373 99.6225 91.3616 100.349 91.293 101.069V101.534L91.3105 101.85C91.4356 103.422 92.1281 104.9 93.2656 106.003L93.498 106.218C94.6826 107.26 96.2092 107.838 97.7939 107.838C99.4842 107.838 101.108 107.18 102.321 106.003L102.543 105.777C103.621 104.626 104.246 103.118 104.295 101.534L104.296 101.516L104.297 101.496C104.306 101.364 104.306 101.232 104.297 101.1V101.099C104.192 100.012 104.298 98.9148 104.613 97.8691C104.931 96.8129 105.455 95.8296 106.153 94.9756C106.851 94.1217 107.711 93.4133 108.683 92.8916L109.051 92.7051C109.921 92.2918 110.856 92.0309 111.816 91.9346V91.9355Z" fill="#F1EFEE" stroke="#F1EFEE" stroke-width="2"/>
<path d="M98.2354 1.00977C99.1453 1.05551 100.041 1.26098 100.882 1.61719L101.238 1.77832C102.058 2.17544 102.803 2.71403 103.438 3.37012L103.703 3.6582C104.303 4.34365 104.779 5.12985 105.107 5.98145L105.239 6.34961C105.521 7.20505 105.651 8.10374 105.626 9.00586H105.627V65.3643L134.161 15.9736L134.171 15.958C135.224 14.2106 136.92 12.9461 138.896 12.4365L139.267 12.3506C141.131 11.9658 143.077 12.2769 144.733 13.2334L145.06 13.4316C146.659 14.4632 147.83 16.0489 148.342 17.8916C148.888 19.8572 148.641 21.959 147.653 23.7441L147.648 23.752L147.645 23.7598L120.616 70.5811L168.029 43.2061L168.365 43.0225C169.159 42.6147 170.018 42.3465 170.904 42.2295C171.917 42.0958 172.947 42.1627 173.934 42.4268L174.301 42.5342C175.15 42.8069 175.948 43.2245 176.657 43.7686L176.955 44.0088C177.636 44.5859 178.213 45.2766 178.66 46.0508L178.843 46.3867C179.251 47.1802 179.52 48.0385 179.637 48.9248L179.678 49.3057C179.74 50.0679 179.69 50.8353 179.529 51.583L179.439 51.9551C179.175 52.9422 178.719 53.8678 178.098 54.6787C177.476 55.4896 176.7 56.1694 175.815 56.6807V56.6816L116.649 90.8232L116.648 90.8242C114.975 91.7867 113.006 92.0905 111.128 91.6846L110.754 91.5938C108.765 91.0597 107.068 89.7584 106.037 87.9756V87.9746C105.796 87.5616 105.593 87.1277 105.431 86.6787C104.524 86.5276 103.65 86.2193 102.85 85.7607L102.842 85.7559C102.2 85.381 101.616 84.9185 101.104 84.3838C100.362 84.7288 99.5689 84.9562 98.7539 85.0518L98.2812 85.0918C97.2588 85.1482 96.2389 84.997 95.2783 84.6562C94.6546 85.2536 93.9352 85.7453 93.1465 86.1055C92.1371 86.5664 91.0403 86.8049 89.9307 86.8037H89.9268C89.8896 86.8035 89.8525 86.8015 89.8154 86.8008C89.4972 87.6578 89.0313 88.4548 88.4336 89.1523C87.7487 89.9516 86.9091 90.6024 85.9678 91.0664L85.5586 91.2539C84.5893 91.6638 83.5483 91.8716 82.499 91.8672L82.0488 91.8525C80.8484 91.7778 79.6816 91.4254 78.6406 90.8232V90.8223L19.4824 56.6816L19.2949 56.5732L19.251 56.5117C17.6749 55.5388 16.4972 54.0382 15.9307 52.2783L15.8223 51.9082C15.2881 49.9153 15.5672 47.7918 16.5986 46.0049L16.7998 45.6758C17.8437 44.058 19.4538 42.8807 21.3223 42.3799L21.6973 42.2891C23.5793 41.8834 25.5503 42.1892 27.2256 43.1562L76.7188 71.7236L48.998 23.7461V23.7451C48.5362 22.9742 48.2116 22.13 48.0381 21.25L47.9727 20.8682C47.8233 19.8444 47.8793 18.8006 48.1377 17.7988L48.2441 17.4268C48.513 16.5644 48.9298 15.754 49.4775 15.0332L49.7197 14.7305C50.3012 14.0395 50.9994 13.4546 51.7832 13.002L52.123 12.8164C52.9268 12.4041 53.7972 12.1346 54.6953 12.0205L55.0811 11.9814C55.9816 11.9123 56.8886 11.9999 57.7607 12.2422L58.1309 12.3555C58.9881 12.6402 59.7904 13.0719 60.501 13.6328L60.7988 13.8809C61.4742 14.4709 62.0436 15.1736 62.4805 15.959L90.0625 63.7012V9.03809L90.0596 8.64648C90.0759 7.7356 90.2522 6.83322 90.5811 5.98145L90.7314 5.62109C91.1018 4.78859 91.6157 4.02625 92.251 3.37012L92.5293 3.09668C93.1952 2.47459 93.9658 1.97351 94.8066 1.61719L95.1709 1.47363C96.0265 1.16078 96.9316 1 97.8447 1L98.2354 1.00977Z" fill="#F1EFEE" stroke="#F1EFEE" stroke-width="2"/>
<path d="M97.7349 78.4141C106.993 78.4141 114.33 86.6896 114.33 96.6787C114.33 106.668 106.993 114.943 97.7349 114.943C88.477 114.943 81.1411 106.668 81.1411 96.6787C81.1412 86.6897 88.4771 78.4143 97.7349 78.4141Z" fill="#2B2B2B" stroke="#F1EFEE" stroke-width="2"/>
</svg>
