<svg width="191" height="191" viewBox="0 0 191 191" fill="none" xmlns="http://www.w3.org/2000/svg">
<path d="M190.289 92.2688C190.285 92.2412 190.285 92.2131 190.289 92.1855C190.187 91.5938 190.067 90.9189 189.901 90.0406C189.475 87.8587 189.05 86.0651 188.736 84.817H188.551C184.368 69.5356 175.913 55.764 164.18 45.1173C154.186 35.9644 142.352 30.0289 129.288 26.2661C96.2359 16.7341 61.7322 33.7548 51.627 65.8177C49.0105 74.1386 47.9843 82.5519 49.5745 91.1408H49.4543C49.5955 91.9267 49.7901 92.702 50.0367 93.4614C50.8792 96.0442 52.2629 98.4176 54.0955 100.423C58.3668 104.621 66.4935 105.36 70.3488 102.161C70.7556 101.819 72.7064 100.201 72.6694 98.1026C72.6694 97.0024 72.087 96.4292 71.5045 95.1995C71.3196 94.8049 71.156 94.4006 71.0145 93.9884C71.0145 93.9144 71.0145 93.8405 70.959 93.7573C70.8111 93.1933 70.7186 92.6201 70.6169 92.0469C70.5152 91.4737 70.4413 90.9836 70.3673 90.4474C70.3673 90.1146 70.3673 89.7632 70.3673 89.3934H70.2563C68.2224 71.6238 77.7359 54.825 93.832 48.6491C103.032 45.1229 113.134 44.704 122.594 47.4564C146.762 54.1223 162.183 69.4696 168.304 93.9052C168.39 94.2227 168.505 94.5321 168.646 94.8297L169.015 96.2997C169.82 99.175 173.268 102.217 177.142 103.271C181.441 104.436 187.21 103.382 189.328 99.7853C190.161 98.1044 190.561 96.2422 190.492 94.3674C190.521 93.6618 190.453 92.9557 190.289 92.2688Z" fill="#F1EFEE"/>
<path d="M100.092 165.128C123.843 157.732 137.619 141.219 142.066 116.941C143.212 110.7 143.36 104.293 141.289 98.0527C141.137 97.5886 140.929 97.1447 140.669 96.7306L140.549 96.4255C139.227 93.2266 137.387 88.7426 133.005 86.5607C132.08 86.0984 128.17 84.1568 124.305 85.9874C122.513 86.8183 121.072 88.2559 120.237 90.0462C119.646 91.5107 119.448 93.1043 119.664 94.6688C119.765 95.3625 119.9 96.0507 120.071 96.7306C120.097 97.6109 120.237 98.4841 120.487 99.3286C125.766 122.442 107.895 145.555 84.2727 146.286C68.648 146.767 55.0296 141.663 43.214 131.641C32.8962 122.904 25.7403 112.087 22.717 98.7645C22.5974 98.1438 22.3689 97.5491 22.0421 97.008H22.1716C21.737 96.0834 21.1083 94.6874 20.4334 92.9492C19.2315 89.8705 19.3147 89.3435 18.6861 88.3265C17.9043 87.1705 16.8728 86.2048 15.6679 85.5007C14.4629 84.7966 13.1152 84.3721 11.7243 84.2585C6.23252 83.7408 2.77475 88.4375 2.4789 88.8812C-1.01585 93.7998 1.14758 99.4857 1.314 99.911C1.38796 100.244 1.46193 100.604 1.54514 100.993C8.82124 134.387 28.8375 155.91 61.7972 165.109C74.4819 168.66 87.4161 169.094 100.092 165.128Z" fill="#F1EFEE"/>
<path d="M119.58 49.8808C113.303 48.6696 106.97 48.0317 100.59 49.363C99.9657 49.4861 99.3484 49.6435 98.7412 49.8345L98.1403 50.0009C94.8767 51.0272 90.18 52.4972 87.7022 56.9627C86.2383 59.6179 85.8227 62.7253 86.5373 65.6719C86.8332 66.7813 87.7115 70.0634 90.596 71.4687C92.245 72.161 94.0587 72.3633 95.8197 72.0512C96.4057 71.9743 96.9841 71.8475 97.5486 71.6721C97.7519 71.6721 97.9646 71.5982 98.205 71.5427C104.412 69.9302 110.932 69.9652 117.121 71.6444C127.439 74.3163 135.529 80.1316 140.798 89.3863C145.421 97.4852 146.253 106.342 145.042 115.514C143.193 129.548 138.006 141.928 127.624 151.876C119.756 159.429 110.816 165.06 100.415 168.111C97.9517 168.762 95.4462 169.241 92.9166 169.544C86.1675 170.061 81.1565 174.481 80.7312 178.789C80.2135 184.17 86.5466 191.095 95.8197 190.401C99.1505 190.092 102.45 189.507 105.684 188.654C108.367 187.947 110.998 187.061 113.562 186C124.393 182.04 134.211 175.725 142.305 167.51C160.426 149.315 168.498 127.172 166.611 101.701C164.707 75.4349 145.782 54.938 119.58 49.8808Z" fill="#F1EFEE"/>
<path d="M74.6017 142.666C79.5387 143.359 84.5405 143.812 89.4498 142.721C89.4498 142.721 89.4498 142.804 89.4498 142.85C90.0415 142.666 90.7811 142.425 91.6132 142.12C91.946 142.009 92.2881 141.889 92.6209 141.76C93.2618 141.552 93.881 141.282 94.47 140.955C98.0076 139.495 101.238 137.381 103.993 134.724C106.766 131.95 108.615 130.101 108.615 127.18C108.604 125.766 108.224 124.38 107.512 123.159C106.8 121.938 105.781 120.924 104.557 120.218C102.338 119.025 99.8416 119.349 97.5949 119.635C97.447 119.635 96.5225 119.839 94.6919 120.218C90.1339 121.142 89.7271 121.235 88.8858 121.374C88.0445 121.512 86.7594 121.706 85.2616 121.836C76.4682 122.392 67.7636 119.803 60.7028 114.532C53.6421 109.262 48.6852 101.653 46.7177 93.0642C45.399 86.8144 45.3079 80.368 46.4495 74.0835C48.323 62.0626 53.7223 50.8684 61.9633 41.9188C68.5408 34.4861 76.7755 28.706 86.0013 25.046C88.5886 24.033 91.2382 23.1869 93.9338 22.5128C94.4744 22.3918 94.9904 22.1792 95.4593 21.8841C95.94 21.7732 96.4485 21.6714 97.0125 21.5697C99.6197 21.1259 100.1 21.3756 101.635 20.9965C103.618 20.4998 105.434 19.4852 106.896 18.0565C109.614 15.1442 109.854 10.0685 108.051 6.45357C105.343 1.00805 98.39 -0.332535 94.7104 0.0650156C93.6287 0.185205 91.567 0.592 89.6439 1.04502C79.8743 3.14266 70.6428 7.23436 62.5272 13.064C43.8886 26.4883 30.8711 44.0915 25.8416 66.9183C22.4948 82.0622 23.068 96.901 30.4643 110.898C39.9963 128.714 54.3821 139.8 74.6017 142.666Z" fill="#F1EFEE"/>
</svg>
