<svg width="157" height="186" viewBox="0 0 157 186" fill="none" xmlns="http://www.w3.org/2000/svg">
<path d="M153.03 88.9531C153.03 88.2986 152.987 87.6441 152.973 86.9896C152.93 85.5511 152.887 84.0119 152.779 82.5303C152.078 73.3106 149.935 64.2579 146.428 55.7025C145.361 52.8265 143.958 50.0864 142.249 47.5391C141.82 46.898 141.2 46.4083 140.477 46.1397C139.754 45.8711 138.965 45.8373 138.221 46.0431C137.728 46.1342 137.273 46.3693 136.913 46.7188C136.554 47.0682 136.305 47.5163 136.2 48.0066C135.779 48.6173 135.53 49.3305 135.481 50.0709C135.121 52.7105 134.718 55.1056 134.237 57.4215C133.479 61.0739 132.271 64.6181 130.64 67.9728C127.988 72.9924 124.634 77.6083 120.679 81.6816C115.702 86.932 109.761 91.6718 101.979 96.5986L100.475 97.5552C94.3258 101.439 87.9749 105.467 82.4943 110.451C75.8845 116.457 71.1159 122.585 67.9512 129.152C67.5772 129.871 67.232 130.59 66.8796 131.352C66.8796 131.439 66.8076 131.511 66.7717 131.583C65.9146 133.505 65.1936 135.486 64.6139 137.509C64.6181 137.543 64.6181 137.576 64.6139 137.61C63.1653 142.519 62.9798 147.714 64.0745 152.714L63.8444 152.764H64.0817C64.2327 153.44 64.3982 154.073 64.578 154.677C64.7425 155.143 64.7425 155.651 64.578 156.116L64.7722 157.295L64.8369 157.648L64.9879 158.475C64.9879 158.633 65.0527 158.799 65.0886 158.964L65.2181 159.683L65.326 160.201C65.3763 160.417 65.4195 160.64 65.4698 160.863C65.5202 161.086 65.549 161.215 65.5921 161.388C65.6353 161.561 65.6856 161.827 65.736 162.042L65.8654 162.582C65.9158 162.79 65.9661 163.006 66.0237 163.222C66.0812 163.438 66.11 163.582 66.1603 163.761L66.3185 164.394L66.4696 164.948L66.635 165.567C66.6926 165.754 66.7429 165.934 66.7932 166.121C66.8436 166.308 66.9083 166.531 66.9731 166.739C67.0378 166.948 67.0809 167.106 67.1385 167.293C67.196 167.48 67.2608 167.703 67.3255 167.911L67.4981 168.465L67.6923 169.077C67.7498 169.264 67.8146 169.451 67.8721 169.638C67.9296 169.825 68.0088 170.04 68.0735 170.242L68.2677 170.803C68.3396 170.997 68.4043 171.198 68.4763 171.4C68.5482 171.601 68.6057 171.774 68.6777 171.961L68.8934 172.558L69.102 173.119C69.1739 173.32 69.2531 173.514 69.325 173.716C69.3969 173.917 69.4688 174.09 69.5479 174.277L69.7349 174.773C69.762 174.834 69.786 174.897 69.8069 174.96L70.2096 175.082C70.4398 174.924 70.6772 174.773 70.9289 174.622L71.4755 174.27C71.6841 174.133 71.9071 174.003 72.1228 173.874L72.6695 173.543L73.3455 173.155L73.9065 172.838C74.1367 172.709 74.3741 172.587 74.6258 172.464C74.8775 172.342 74.9926 172.263 75.1868 172.169L75.906 171.795L76.4599 171.515L77.2654 171.141L77.8048 170.896L78.7183 170.494L79.1858 170.292C79.6533 170.098 80.128 169.904 80.6243 169.717C81.1205 169.53 81.5305 169.364 81.9836 169.192C84.6664 168.214 87.4139 167.286 90.0679 166.387L93.434 165.25C95.9873 164.373 99.0153 163.316 102.065 162.086C117.169 155.95 128.734 147.521 137.308 136.322C140.217 132.462 142.737 128.323 144.831 123.966C150.204 113.494 152.951 101.77 153.03 88.9531ZM129.856 132.309C122.312 141.436 112.098 148.463 98.6341 153.793C95.714 154.951 92.7219 155.994 90.147 156.878L88.5575 157.432C84.6304 158.777 80.5739 160.172 76.69 161.798C75.0861 162.467 73.5397 163.193 71.943 164.02C71.7666 164.117 71.5685 164.166 71.3676 164.164C71.0475 164.162 70.7407 164.036 70.5117 163.812C70.3318 163.641 70.2085 163.419 70.1584 163.176C70.1082 162.933 70.1336 162.681 70.2312 162.452C72.123 158.862 74.4996 155.549 77.2942 152.606C78.8377 150.957 80.4884 149.412 82.2354 147.981C86.5515 144.566 91.0904 141.443 95.8219 138.631L96.6418 138.063C98.0803 137.164 99.5691 136.258 100.993 135.38C106.151 132.361 111.123 129.035 115.882 125.419C120.887 121.596 125.12 116.856 128.353 111.451C128.555 111.115 128.731 110.764 128.878 110.401C128.877 110.384 128.877 110.367 128.878 110.351C130.317 107.826 130.101 105.827 128.109 104.244C127.837 103.98 127.513 103.775 127.159 103.642C126.804 103.508 126.426 103.449 126.047 103.468C125.669 103.486 125.298 103.583 124.959 103.751C124.619 103.92 124.318 104.156 124.074 104.446C123.132 105.419 122.302 106.495 121.599 107.653C121.082 108.43 120.557 109.236 119.945 109.991C116.291 114.479 111.645 118.377 104.891 122.65C101.072 125.066 97.1668 127.476 93.3836 129.842C91.0964 131.252 88.814 132.666 86.5364 134.086C83.5093 135.967 80.6246 138.068 77.9055 140.372C76.6253 141.458 75.3954 142.58 74.2374 143.709C74.0596 143.89 73.8293 144.012 73.579 144.056C73.3288 144.099 73.071 144.064 72.8421 143.954C72.6106 143.849 72.4172 143.675 72.2884 143.456C72.1596 143.237 72.1018 142.984 72.1228 142.731C72.238 141.535 72.4668 140.352 72.8061 139.199C73.1076 138.036 73.4677 136.888 73.885 135.761C74.2806 134.704 74.7265 133.661 75.2228 132.618C77.3063 128.689 79.9147 125.062 82.9762 121.837C89.1832 115.148 96.5555 110.185 103.582 105.819C112.321 100.396 119.032 95.3112 124.699 89.8162C130.199 84.5452 134.734 78.3526 138.099 71.5187C138.578 70.5597 139.058 69.5719 139.537 68.5554C139.692 68.3828 139.892 68.2566 140.114 68.1907C140.336 68.1249 140.572 68.122 140.796 68.1824C141.019 68.2428 141.222 68.3641 141.381 68.5328C141.539 68.7015 141.648 68.911 141.695 69.138C141.703 69.2181 141.718 69.2974 141.738 69.3753C143.95 77.8418 144.8 86.6063 144.256 95.34C143.682 104.05 141.435 112.567 137.639 120.427C135.484 124.659 132.874 128.643 129.856 132.309Z" fill="#F1EFEE" stroke="#F1EFEE" stroke-width="6" stroke-linecap="round" stroke-linejoin="round"/>
<path d="M108.603 26.4592C98.5844 11.3551 83.9837 3.44342 65.19 3.01907C55.569 2.75138 46.0802 5.30673 37.8947 10.3697C23.6897 19.0438 16.224 30.1273 15.0876 44.2532C14.675 50.3838 12.3535 56.2313 8.44896 60.9756C7.07521 62.6586 5.79496 64.392 4.64417 66.1182C3.0043 68.5492 3.11938 70.5055 5.03975 72.8503C5.84601 73.7936 6.72108 74.6759 7.65779 75.4899L8.37704 76.166C10.3046 77.9569 10.3765 78.3237 9.31205 80.6828C8.24757 83.0419 8.59281 85.6096 10.319 87.0697C10.5189 87.2019 10.6901 87.373 10.8223 87.5728C10.9546 87.7726 11.0453 87.997 11.0889 88.2327C11.1326 88.4683 11.1283 88.7103 11.0763 88.9442C11.0243 89.1782 10.9258 89.3992 10.7865 89.5942C9.86587 91.4427 10.1608 93.6364 11.5057 94.708C12.1266 95.141 12.5923 95.7617 12.8344 96.4789C13.0764 97.196 13.0822 97.9719 12.8507 98.6926C12.8125 98.8563 12.7837 99.022 12.7644 99.1889C12.7644 99.3256 12.7213 99.4694 12.6925 99.6061C11.7287 104.641 12.3113 107.359 18.3313 110.208C21.4744 111.697 24.9915 112.092 29.12 111.416C30.1053 111.251 31.1123 110.977 32.0833 110.697C33.788 110.163 35.5558 109.855 37.3409 109.783H37.4488C41.045 109.783 43.0589 111.474 43.7278 114.998C44.3474 118.506 43.844 122.121 42.2893 125.326C38.1105 134.547 37.1899 144.206 39.4771 154.873C41.455 164.043 46.1013 171.746 50.7476 178.19C51.323 178.989 51.8984 179.773 52.4738 180.535L52.7111 180.837C53.019 181.117 53.3485 181.372 53.6965 181.6C53.9338 181.758 54.2287 181.945 54.5452 182.132C55.66 182.772 57.1704 183.383 58.652 182.7C59.4017 182.325 60.0162 181.726 60.4105 180.987C60.8048 180.247 60.9594 179.403 60.8529 178.572V178.485C60.8453 178.431 60.8308 178.378 60.8098 178.327C60.0905 177.5 59.3713 176.666 58.652 175.81C54.7296 171.025 51.6239 165.625 49.4601 159.828C49.3019 159.411 49.1437 158.972 48.9639 158.447V158.332C48.9671 158.296 48.9671 158.26 48.9639 158.224C44.6484 146.637 45.6194 135.424 51.8408 124.887C58.2565 113.948 67.6641 104.936 80.6105 97.3333C88.7235 92.5647 97.1531 87.0841 103.971 79.3522C111.358 70.9443 115.134 61.9825 115.479 51.9635C115.76 42.4048 113.48 33.7739 108.603 26.4592ZM69.0882 88.314C68.2048 90.8041 67.0188 93.1761 65.5568 95.3769C63.8607 97.9148 61.9346 100.291 59.8028 102.476L59.3137 102.987C57.156 105.252 54.8904 107.59 52.8406 110.006L52.7111 110.172C52.591 110.38 52.4249 110.558 52.2255 110.693C52.0261 110.828 51.7986 110.915 51.5603 110.949H51.4165C50.7476 110.855 50.4599 110.129 50.3664 109.891C46.8637 101.073 38.6715 101.26 34.1043 102.152C32.2559 102.505 30.2564 102.929 27.8038 103.476C26.7603 103.685 25.6954 103.77 24.6319 103.727C22.8985 103.727 21.7549 103.54 21.122 102.771C20.4891 102.001 20.5466 100.886 20.8271 99.3184C21.2802 96.7723 21.2227 94.7296 19.4606 93.0538C19.1832 92.8027 19.0146 92.4536 18.9904 92.0803C18.9663 91.707 19.0885 91.339 19.3311 91.0543C19.7143 90.5672 19.9905 90.0047 20.1417 89.4037C20.2929 88.8026 20.3157 88.1764 20.2086 87.566C20.0205 86.9557 19.7054 86.3921 19.2839 85.9124C18.8624 85.4326 18.3441 85.0476 17.7631 84.7825C17.5795 84.6941 17.4152 84.5704 17.2796 84.4183C17.144 84.2662 17.0397 84.0888 16.9729 83.8963C16.9061 83.7038 16.8779 83.5 16.8901 83.2966C16.9023 83.0932 16.9546 82.8942 17.0439 82.7111L17.6049 81.0209C17.7919 80.4527 17.9861 79.8916 18.1731 79.3234C18.8924 77.1657 18.3889 75.2094 16.5836 73.3825C15.6159 72.3986 14.5642 71.5009 13.4405 70.6997C13.1755 70.5802 12.9454 70.3949 12.7722 70.1614C12.599 69.9278 12.4884 69.6539 12.4509 69.3656C12.4134 69.0773 12.4503 68.7842 12.558 68.5141C12.6658 68.2441 12.8408 68.0061 13.0665 67.8228C15.297 65.1321 17.3055 62.2649 19.0722 59.2494C21.5838 55.0055 23.0116 50.2083 23.2294 45.2817C23.7045 37.5462 26.9946 30.2522 32.4788 24.7761C32.7505 24.4811 33.0028 24.1688 33.234 23.8411L33.6224 23.3305L33.9964 22.863L34.5143 23.165L34.9314 23.4096L35.212 23.575L35.2695 23.8915C36.0853 28.3755 37.724 32.6698 40.1028 36.5573C43.2531 41.9013 47.6261 46.5907 54.2862 51.7549L55.1925 52.4741C58.5657 55.085 62.0541 57.7893 64.8088 61.2561C71.1453 69.2253 72.5838 78.3669 69.0882 88.3068V88.314ZM98.9152 72.4475C93.1972 79.5176 85.9689 84.4588 78.9562 88.7527L77.4746 89.6661L77.9349 87.9831C81.2219 76.0077 79.2367 65.6003 71.8573 56.1567C68.6351 52.0354 64.4132 48.8348 60.3495 45.7348L59.436 45.0156C53.7468 40.7002 49.8845 36.4566 47.2808 31.6952C44.9936 27.5496 43.5788 22.9798 43.1236 18.267C43.0544 17.7664 43.1596 17.2572 43.4216 16.8249C43.6835 16.3927 44.0863 16.0638 44.5621 15.8935C49.6955 13.3408 55.2634 11.7768 60.9752 11.2832C72.4088 10.1993 83.8136 13.6241 92.7585 20.8275C100.958 27.2647 105.705 35.4353 106.935 45.1163C108.186 55.1353 105.489 64.3273 98.9152 72.4403V72.4475Z" fill="#F1EFEE" stroke="#F1EFEE" stroke-width="6" stroke-linecap="round" stroke-linejoin="round"/>
</svg>
